<svg width="24" height="24" viewBox="0 0 24 24" fill="none" xmlns="http://www.w3.org/2000/svg">
<path d="M2.10054 0.707078C2.49106 0.316554 3.12423 0.316554 3.51475 0.707078L23.3137 20.5061C23.7043 20.8966 23.7043 21.5298 23.3137 21.9203L21.8995 23.3345C21.509 23.725 20.8758 23.725 20.4853 23.3345L0.686326 3.53551C0.295802 3.14498 0.295801 2.51182 0.686326 2.12129L2.10054 0.707078Z" fill="#F4EFE9"/>
<path d="M0.686383 21.9203C0.295859 21.5298 0.295859 20.8966 0.686383 20.5061L20.4854 0.707132C20.8759 0.316608 21.5091 0.316607 21.8996 0.707132L23.3138 2.12135C23.7043 2.51187 23.7043 3.14503 23.3138 3.53556L3.51481 23.3345C3.12429 23.7251 2.49112 23.7251 2.1006 23.3345L0.686383 21.9203Z" fill="#F4EFE9"/>
</svg>
