<svg width="30" height="24" viewBox="0 0 30 24" fill="none" xmlns="http://www.w3.org/2000/svg">
<path d="M0 21C0 20.4477 0.447715 20 1 20H29C29.5523 20 30 20.4477 30 21V23C30 23.5523 29.5523 24 29 24H1C0.447716 24 0 23.5523 0 23V21Z" fill="#F4EFE9"/>
<path d="M0 11C0 10.4477 0.447715 10 1 10H29C29.5523 10 30 10.4477 30 11V13C30 13.5523 29.5523 14 29 14H1C0.447716 14 0 13.5523 0 13V11Z" fill="#F4EFE9"/>
<path d="M0 1C0 0.447715 0.447715 0 1 0H29C29.5523 0 30 0.447715 30 1V3C30 3.55228 29.5523 4 29 4H1C0.447716 4 0 3.55228 0 3V1Z" fill="#F4EFE9"/>
</svg>
