<svg width="121" height="51" viewBox="0 0 121 51" fill="none" xmlns="http://www.w3.org/2000/svg">
<path d="M7.73876 21.7814C6.45447 21.7814 5.1799 21.5576 3.91506 21.1101C2.66968 20.6431 1.53133 19.9523 0.5 19.0377L2.98103 16.0896C3.70101 16.6734 4.4891 17.1502 5.3453 17.5199C6.2015 17.8896 7.09661 18.0745 8.03065 18.0745C8.96468 18.0745 9.64575 17.9188 10.0738 17.6074C10.5019 17.2961 10.716 16.8972 10.716 16.4107C10.716 16.0799 10.6479 15.8075 10.5117 15.5934C10.3755 15.3599 10.1809 15.1556 9.9279 14.9805C9.67494 14.8053 9.36359 14.6399 8.99387 14.4843C8.62415 14.3286 8.21551 14.1535 7.76795 13.9589L5.31611 12.9081C4.79072 12.7135 4.27505 12.4605 3.76912 12.1492C3.28264 11.8378 2.85454 11.4779 2.48482 11.0692C2.1151 10.6411 1.81349 10.1546 1.57998 9.60978C1.36593 9.04547 1.2589 8.41305 1.2589 7.71253C1.2589 6.93417 1.4243 6.20445 1.75511 5.52339C2.10537 4.82286 2.58212 4.21963 3.18535 3.71369C3.80804 3.1883 4.54748 2.77966 5.40368 2.48778C6.25988 2.19589 7.20364 2.04995 8.23497 2.04995C9.40251 2.04995 10.5311 2.264 11.6208 2.6921C12.7105 3.1202 13.6932 3.74288 14.5689 4.56016L12.3797 7.2747C11.7181 6.78822 11.0565 6.4185 10.3949 6.16553C9.73331 5.89311 8.93549 5.7569 8.00146 5.7569C7.28147 5.7569 6.6977 5.90284 6.25015 6.19472C5.82205 6.48661 5.608 6.91471 5.608 7.47902C5.608 8.04333 5.89015 8.48116 6.45447 8.7925C7.03824 9.08439 7.79714 9.39573 8.73117 9.72654L11.0371 10.7189C12.3019 11.186 13.2943 11.8281 14.0143 12.6454C14.7537 13.4627 15.1235 14.5426 15.1235 15.8853C15.1235 16.6831 14.9581 17.442 14.6273 18.162C14.2965 18.8626 13.8197 19.4852 13.197 20.0301C12.5743 20.5555 11.8057 20.9836 10.8911 21.3144C9.97655 21.6257 8.92576 21.7814 7.73876 21.7814Z" fill="#0F0C0B"/>
<path d="M23.0805 21.7814C22.3411 21.7814 21.6795 21.6647 21.0957 21.4311C20.5119 21.2171 20.0157 20.9155 19.6071 20.5263C19.1985 20.1177 18.8774 19.6506 18.6439 19.1253C18.4298 18.5999 18.3228 18.0258 18.3228 17.4031C18.3228 16.5858 18.4979 15.8756 18.8482 15.2724C19.1985 14.6497 19.753 14.1243 20.5119 13.6962C21.2903 13.2681 22.2827 12.9276 23.4892 12.6746C24.6956 12.4022 26.1551 12.2173 27.8675 12.12C27.7896 11.4584 27.4977 10.9427 26.9918 10.573C26.5053 10.2033 25.7659 10.0184 24.7735 10.0184C24.073 10.0184 23.3627 10.1449 22.6427 10.3979C21.9422 10.6314 21.1833 10.9525 20.366 11.3611L18.8482 8.559C19.8406 7.99468 20.9011 7.52767 22.0298 7.15794C23.1778 6.78822 24.3746 6.60336 25.6199 6.60336C27.6437 6.60336 29.2393 7.13849 30.4069 8.20873C31.5744 9.27898 32.1582 10.9233 32.1582 13.1416V21.4311H28.6556L28.3345 19.7966H28.2177C27.4783 20.3609 26.6707 20.8376 25.7951 21.2268C24.9194 21.5966 24.0146 21.7814 23.0805 21.7814ZM24.4524 18.4539C25.0946 18.4539 25.6978 18.3274 26.2621 18.0745C26.8264 17.802 27.3615 17.4712 27.8675 17.0821V14.6886C26.7972 14.747 25.9118 14.8443 25.2113 14.9805C24.5108 15.1167 23.9562 15.2918 23.5476 15.5059C23.1389 15.7005 22.847 15.934 22.6719 16.2064C22.5162 16.4788 22.4384 16.7707 22.4384 17.0821C22.4384 17.5491 22.6135 17.8993 22.9638 18.1328C23.3335 18.3469 23.8297 18.4539 24.4524 18.4539Z" fill="#0F0C0B"/>
<path d="M35.0656 21.4311V6.95362H38.3056L38.5975 8.73413H38.7142C38.9866 8.15036 39.3661 7.65415 39.8526 7.24551C40.339 6.81741 41.0006 6.60336 41.8374 6.60336C42.4601 6.60336 42.9855 6.80768 43.4136 7.21632C43.8611 7.6055 44.1725 8.18928 44.3476 8.96764C44.62 8.30603 45.0092 7.75145 45.5151 7.30389C46.0405 6.83687 46.7216 6.60336 47.5583 6.60336C48.6091 6.60336 49.4069 7.02173 49.9518 7.85847C50.5161 8.67575 50.7983 9.8141 50.7983 11.2735V21.4311H46.7119V11.5654C46.7119 11.1179 46.6535 10.7871 46.5367 10.573C46.42 10.359 46.2157 10.2519 45.9238 10.2519C45.6514 10.2519 45.4178 10.3687 45.2233 10.6022C45.0287 10.8357 44.8243 11.186 44.6103 11.653V21.4311H41.2536V11.5654C41.2536 10.6898 40.9812 10.2519 40.4363 10.2519C40.1639 10.2519 39.9304 10.3687 39.7358 10.6022C39.5412 10.8357 39.3466 11.186 39.152 11.653V21.4311H35.0656Z" fill="#0F0C0B"/>
<path d="M58.0548 21.7814C56.4008 21.7814 55.2041 21.256 54.4646 20.2052C53.7252 19.1544 53.3555 17.7145 53.3555 15.8853V6.95362H57.6462V15.3307C57.6462 16.3037 57.7921 17.0139 58.084 17.4615C58.3759 17.9091 58.9305 18.1328 59.7478 18.1328C60.2926 18.1328 60.7694 18.0161 61.178 17.7826C61.6061 17.5491 62.0731 17.1112 62.579 16.4691V6.95362H66.8698V21.4311H63.3671L63.0461 19.3588H62.9293C62.2872 20.0982 61.5769 20.6917 60.7985 21.1393C60.0202 21.5674 59.1056 21.7814 58.0548 21.7814Z" fill="#0F0C0B"/>
<path d="M78.6797 21.7814C77.5511 21.7814 76.4906 21.616 75.4982 21.2852C74.5252 20.9349 73.6787 20.4387 72.9588 19.7966C72.2388 19.1544 71.6745 18.3664 71.2658 17.4323C70.8572 16.4788 70.6529 15.3988 70.6529 14.1924C70.6529 13.0054 70.8572 11.9449 71.2658 11.0108C71.6939 10.0573 72.2582 9.25952 72.9588 8.61737C73.6593 7.95577 74.4571 7.45956 75.3522 7.12876C76.2668 6.77849 77.2106 6.60336 78.1835 6.60336C79.2927 6.60336 80.2754 6.77849 81.1316 7.12876C81.9878 7.47902 82.698 7.9655 83.2623 8.58818C83.8461 9.21087 84.2839 9.95032 84.5758 10.8065C84.8677 11.6433 85.0136 12.5578 85.0136 13.5502C85.0136 13.9394 84.9845 14.3189 84.9261 14.6886C84.8872 15.0389 84.8482 15.3016 84.8093 15.4767H74.9436C75.1576 16.5275 75.6344 17.2961 76.3738 17.7826C77.1133 18.2691 78.0765 18.5123 79.2635 18.5123C79.9251 18.5123 80.5478 18.4247 81.1316 18.2496C81.7348 18.0745 82.3575 17.8215 82.9996 17.4907L84.4299 20.0885C83.5931 20.6139 82.6688 21.0322 81.657 21.3436C80.6451 21.6355 79.6527 21.7814 78.6797 21.7814ZM78.3295 9.87248C77.4733 9.87248 76.7533 10.0963 76.1695 10.5438C75.6052 10.9914 75.216 11.6724 75.002 12.587H81.1899C80.9759 10.7773 80.0224 9.87248 78.3295 9.87248Z" fill="#0F0C0B"/>
<path d="M98.0787 21.7814C96.2496 21.7814 94.868 21.2463 93.9339 20.176C93.0194 19.0863 92.5621 17.6172 92.5621 15.7686V4.35584H88.0087V0.969971H96.8528V15.9437C96.8528 16.3913 96.9112 16.7707 97.0279 17.0821C97.1641 17.3739 97.3393 17.6172 97.5533 17.8118C97.7868 17.9869 98.0398 18.1134 98.3122 18.1912C98.6041 18.2691 98.9057 18.308 99.2171 18.308C99.5479 18.308 99.8884 18.2788 100.239 18.2204C100.608 18.1426 101.017 18.0161 101.465 17.841L102.428 20.9933C102.039 21.1101 101.679 21.2171 101.348 21.3144C101.017 21.4117 100.686 21.4895 100.355 21.5479C100.025 21.6257 99.6744 21.6841 99.3046 21.723C98.9349 21.762 98.5263 21.7814 98.0787 21.7814Z" fill="#0F0C0B"/>
<path d="M1.20053 50.6197V31.5888H7.59282C8.58523 31.5888 9.49981 31.6666 10.3365 31.8223C11.1927 31.9585 11.9322 32.2115 12.5549 32.5812C13.1776 32.9509 13.664 33.4374 14.0143 34.0406C14.384 34.6438 14.5689 35.4027 14.5689 36.3173C14.5689 36.7454 14.5008 37.1735 14.3646 37.6016C14.2478 38.0297 14.0532 38.4286 13.7808 38.7983C13.5084 39.1681 13.1678 39.4989 12.7592 39.7908C12.3506 40.0826 11.8641 40.2967 11.2998 40.4329V40.5497C12.6619 40.8026 13.6932 41.2891 14.3938 42.0091C15.0943 42.7291 15.4445 43.7312 15.4445 45.0155C15.4445 45.9885 15.2597 46.8252 14.89 47.5257C14.5202 48.2262 14.0046 48.81 13.343 49.277C12.6814 49.7246 11.903 50.0651 11.0079 50.2986C10.1322 50.5127 9.17873 50.6197 8.1474 50.6197H1.20053ZM5.49124 39.2362H7.3885C8.43929 39.2362 9.19819 39.0318 9.66521 38.6232C10.1322 38.2146 10.3657 37.6405 10.3657 36.9011C10.3657 36.2006 10.1225 35.7044 9.63602 35.4125C9.169 35.1011 8.42956 34.9455 7.41769 34.9455H5.49124V39.2362ZM5.49124 47.263H7.79714C10.0933 47.263 11.2414 46.4068 11.2414 44.6944C11.2414 43.8577 10.9592 43.2545 10.3949 42.8847C9.85007 42.515 8.98414 42.3302 7.79714 42.3302H5.49124V47.263Z" fill="#0F0C0B"/>
<path d="M23.0805 50.97C22.3411 50.97 21.6795 50.8532 21.0957 50.6197C20.5119 50.4057 20.0157 50.104 19.6071 49.7149C19.1985 49.3062 18.8774 48.8392 18.6439 48.3138C18.4298 47.7884 18.3228 47.2144 18.3228 46.5917C18.3228 45.7744 18.4979 45.0642 18.8482 44.4609C19.1985 43.8382 19.753 43.3128 20.5119 42.8847C21.2903 42.4566 22.2827 42.1161 23.4892 41.8631C24.6956 41.5907 26.1551 41.4059 27.8675 41.3086C27.7896 40.647 27.4977 40.1313 26.9918 39.7616C26.5053 39.3918 25.7659 39.207 24.7735 39.207C24.073 39.207 23.3627 39.3335 22.6427 39.5864C21.9422 39.8199 21.1833 40.141 20.366 40.5497L18.8482 37.7476C19.8406 37.1832 20.9011 36.7162 22.0298 36.3465C23.1778 35.9768 24.3746 35.7919 25.6199 35.7919C27.6437 35.7919 29.2393 36.327 30.4069 37.3973C31.5744 38.4675 32.1582 40.1118 32.1582 42.3302V50.6197H28.6556L28.3345 48.9851H28.2177C27.4783 49.5495 26.6707 50.0262 25.7951 50.4154C24.9194 50.7851 24.0146 50.97 23.0805 50.97ZM24.4524 47.6425C25.0946 47.6425 25.6978 47.516 26.2621 47.263C26.8264 46.9906 27.3615 46.6598 27.8675 46.2706V43.8772C26.7972 43.9355 25.9118 44.0328 25.2113 44.169C24.5108 44.3052 23.9562 44.4804 23.5476 44.6944C23.1389 44.889 22.847 45.1225 22.6719 45.395C22.5162 45.6674 22.4384 45.9593 22.4384 46.2706C22.4384 46.7376 22.6135 47.0879 22.9638 47.3214C23.3335 47.5355 23.8297 47.6425 24.4524 47.6425Z" fill="#0F0C0B"/>
<path d="M37.4299 50.6197V36.1422H40.9325L41.2828 39.2945H41.3704C42.0903 38.1075 42.9563 37.2319 43.9681 36.6676C44.98 36.0838 46.0697 35.7919 47.2373 35.7919C47.8794 35.7919 48.3951 35.8406 48.7843 35.9379C49.1929 36.0352 49.6113 36.1811 50.0394 36.3757L49.1637 39.9659C48.7162 39.8297 48.3075 39.7324 47.9378 39.674C47.5875 39.5962 47.14 39.5572 46.5951 39.5572C45.7 39.5572 44.8146 39.8199 43.939 40.3453C43.0828 40.8707 42.3433 41.7853 41.7206 43.0891V50.6197H37.4299Z" fill="#0F0C0B"/>
<path d="M53.6473 50.6197V36.1422H57.15L57.471 38.0686H57.5878C58.2105 37.4459 58.9207 36.9108 59.7186 36.4633C60.5358 36.0157 61.4893 35.7919 62.579 35.7919C64.2136 35.7919 65.4103 36.3173 66.1692 37.3681C66.9281 38.4189 67.3076 39.8589 67.3076 41.688V50.6197H63.0169V42.2426C63.0169 41.2696 62.8612 40.5594 62.5499 40.1118C62.2385 39.6643 61.6839 39.4405 60.8861 39.4405C60.3023 39.4405 59.7867 39.567 59.3391 39.8199C58.911 40.0729 58.444 40.4524 57.9381 40.9583V50.6197H53.6473Z" fill="#0F0C0B"/>
<path d="M78.6797 50.97C77.5511 50.97 76.4906 50.8046 75.4982 50.4738C74.5252 50.1235 73.6787 49.6273 72.9588 48.9851C72.2388 48.343 71.6745 47.5549 71.2658 46.6209C70.8572 45.6674 70.6529 44.5874 70.6529 43.3809C70.6529 42.1939 70.8572 41.1334 71.2658 40.1994C71.6939 39.2459 72.2582 38.4481 72.9588 37.8059C73.6593 37.1443 74.4571 36.6481 75.3522 36.3173C76.2668 35.9671 77.2106 35.7919 78.1835 35.7919C79.2927 35.7919 80.2754 35.9671 81.1316 36.3173C81.9878 36.6676 82.698 37.1541 83.2623 37.7767C83.8461 38.3994 84.2839 39.1389 84.5758 39.9951C84.8677 40.8318 85.0136 41.7464 85.0136 42.7388C85.0136 43.128 84.9845 43.5074 84.9261 43.8772C84.8872 44.2274 84.8482 44.4901 84.8093 44.6652H74.9436C75.1576 45.716 75.6344 46.4847 76.3738 46.9711C77.1133 47.4576 78.0765 47.7009 79.2635 47.7009C79.9251 47.7009 80.5478 47.6133 81.1316 47.4382C81.7348 47.263 82.3575 47.0101 82.9996 46.6793L84.4299 49.277C83.5931 49.8024 82.6688 50.2208 81.657 50.5321C80.6451 50.824 79.6527 50.97 78.6797 50.97ZM78.3295 39.061C77.4733 39.061 76.7533 39.2848 76.1695 39.7324C75.6052 40.1799 75.216 40.861 75.002 41.7756H81.1899C80.9759 39.9659 80.0224 39.061 78.3295 39.061Z" fill="#0F0C0B"/>
<path d="M97.8744 50.97C96.7263 50.97 95.7534 50.8143 94.9555 50.503C94.1577 50.1916 93.5058 49.7635 92.9999 49.2187C92.5134 48.6543 92.1632 47.983 91.9491 47.2046C91.7351 46.4263 91.628 45.5604 91.628 44.6069V39.4989H87.9795V36.3173L91.8324 36.1422L92.3869 31.7055H95.9188V36.1422H102.048V39.4989H95.9188V44.5777C95.9188 45.6868 96.162 46.4749 96.6485 46.942C97.1349 47.3895 97.9133 47.6133 98.9836 47.6133C99.5284 47.6133 100.025 47.5646 100.472 47.4673C100.939 47.37 101.396 47.2436 101.844 47.0879L102.603 50.1819C101.961 50.3765 101.251 50.5516 100.472 50.7073C99.7133 50.8824 98.8473 50.97 97.8744 50.97Z" fill="#0F0C0B"/>
<path d="M115.376 50.97C114.228 50.97 113.255 50.8143 112.457 50.503C111.659 50.1916 111.008 49.7635 110.502 49.2187C110.015 48.6543 109.665 47.983 109.451 47.2046C109.237 46.4263 109.13 45.5604 109.13 44.6069V39.4989H105.481V36.3173L109.334 36.1422L109.889 31.7055H113.42V36.1422H119.55V39.4989H113.42V44.5777C113.42 45.6868 113.664 46.4749 114.15 46.942C114.637 47.3895 115.415 47.6133 116.485 47.6133C117.03 47.6133 117.526 47.5646 117.974 47.4673C118.441 47.37 118.898 47.2436 119.346 47.0879L120.105 50.1819C119.463 50.3765 118.752 50.5516 117.974 50.7073C117.215 50.8824 116.349 50.97 115.376 50.97Z" fill="#0F0C0B"/>
</svg>
