<svg clip-rule="evenodd" fill-rule="evenodd" stroke-linejoin="round" stroke-miterlimit="2" viewBox="0 0 79 76" xmlns="http://www.w3.org/2000/svg"><path d="m61.48.286c-.419-.01-.851 0-1.249.027-.359.024-.318.063-.704.063h-.285c-.146 0-.28.007-.403.02-.543-.002-1.079.01-1.566.046-.278.02-.542.051-.789.091-.894-.102-1.789-.202-2.689-.222-2.84-.067-5.682.024-8.52.131-1.253.047-2.495.122-3.739.243-.532-.013-1.063-.016-1.595-.013-.549-.026-1.094-.022-1.594-.034-3.046-.074-6.081-.131-9.13-.131-.597 0-1.191.004-1.784.015-.24-.012-.48-.024-.721-.034-.334-.043-.668-.083-1-.109-.877-.067-1.767-.134-2.648-.134-.244 0-.471.07-.662.192-.282.002-.563.004-.844.004-.112 0-.682.033-.882.045-.401-.164-.875-.11-1.235.174l-.739.044c-.334.011-.86-.068-1.372-.098-.092-.022-.189-.034-.289-.034-.63 0-1.266.001-1.904.015-.213-.173-.485-.277-.78-.277-1.01 0-2.02.229-2.989.591-.373.064-.743.14-1.109.232-.37.092-1.005.161-1.454.365-.328.149-.594.354-.787.603-.671.408-1.363.913-2.019 1.489-.112.057-.216.133-.309.226-.534.534-1.067 1.087-1.566 1.669-.23.016-.459.096-.658.245-.698.523-1.19 1.366-1.504 2.345-.203.633-.334 1.327-.441 1.971-.302.913-.514 1.84-.514 2.633 0 .113-.003.282-.001.475-.185.309-.328.736-.375 1.247-.077.842.07 2.03.05 2.477-.063 1.38-.074 2.75-.056 4.118-.218 2.967-.102 6.026.191 8.958.042.42.085.84.133 1.26.043.38.088.757.136 1.133-.031.267-.057.534-.075.801-.134 1.921-.069 3.858-.069 5.782 0 1.151-.058 2.427.035 3.664-.144.358-.239.799-.28 1.288-.035.139-.046.287-.029.438.002.019.004.039.006.058-.016 1.038.137 2.222.137 2.866 0 3.136-.717 6.892-.036 10.022-.334 2.447-.051 5.705.77 8.226.001.13.014.268.041.412.084.443.35 1.025.684 1.585.356.596.788 1.169.898 1.389.459.919 1.148 1.741 1.982 2.448.612.676 1.417 1.179 2.22 1.661 1.584.95 3.175 1.436 4.828 1.584 1.757.407 3.736.709 5.572.426.126.004.412.013.739.013.113.016.239.026.368.034.275.095.614.147.987.141.593-.008 1.323-.169 1.714-.205 1.15-.104 2.341.007 3.493-.065.431-.027.862-.049 1.294-.067 2.965.125 6.047.241 9.008.011.267.058.707.068 1.066.066.112.024.236.044.493.058 1.325.074 2.676.002 4.003.002 3.861 0 7.634.344 11.491-.016.065-.006.128-.017.189-.032.101-.006.202-.012.303-.02 2.568.003 5.162.031 7.738-.068.8-.031 1.592-.061 2.391-.066.203.078.429.105.658.065.234-.04.514.047.798.086.384.054.77.083 1.127.044.255-.029.508-.066.761-.113.521-.028 1.066-.112 1.599-.242 1.098.067 2.053-.263 2.886-.841.089-.026.176-.062.26-.109 2.299-1.294 4.072-3.398 5.229-5.779.008-.013.016-.025.024-.038.088-.147.213-.46.249-.551.213-.292.398-.601.557-.923.363-.371.625-.865.789-1.459.313-1.14.177-2.768.131-3.937.151-1.557-.071-3.402-.297-5.038-.027-1.646-.046-3.316-.06-4.996.222-1.155.033-2.585.033-3.732 0-2.122.11-4.269.202-6.39.147-3.374.525-6.955.204-10.396-.001-.061-.007-.121-.017-.18-.035-.343-.076-.684-.126-1.023-.022-.947-.06-1.894-.06-2.837 0-2.627-.024-5.275-.031-7.915.02-.205.031-.367.031-.429 0-.877-.003-1.747-.029-2.616.004-.756.01-1.511.02-2.263.168-1.814-.501-3.528-1.362-5.102-.689-1.47-1.638-2.966-2.922-3.881-.312-.321-.651-.618-1.013-.888-.029-.045-.061-.09-.098-.136-.049-.06-.46-.371-.624-.486-.194-.136-.387-.257-.589-.382-.693-.426-1.432-.68-2.19-.951-.15-.053-.301-.102-.451-.155l-.201-.083-.163-.063c-.04-.016-.079-.028-.115-.038-.129-.035-.236-.04-.324-.019-.069-.007-.134-.009-.197-.005-1.751-.747-3.818-.796-5.739-.796-.227 0-.394.046-.516.1zm-10.137 15.71c-2.816-.333-5.662-.352-8.477.081-1.355.208-3.302.4-4.518 1.132-.245.148-.522.201-.787.169-.386.188-.769.379-1.146.567-.469.235-.991.45-1.51.68-.168.223-.409.388-.688.459-.584.472-1.142.973-1.743 1.429-.079.082-.324.333-.498.493-.063.092-.137.181-.221.266-.156.156-.988.525-1.28.604-.285.077-.169-.166-.421-.166-.311 0-.617-.032-.921-.074-.331.135-.753.2-1.225.18-.37-.015-.791-.092-1.18-.158-1.51.236-3.024.636-4.418 1.139-.276.1-.552.225-.829.352-.012.008-.025.016-.039.024-.069.041-.383.172-.45.199-.343.186-.678.395-1.013.596-.349.209-.711.429-1.072.66-.39.31-.77.632-1.161.938-.375.294-.361.275-.755.557-.103.074-.359.275-.399.299-.125.074-.244.124-.358.155-.066.062-.131.124-.196.186-.038.035-.075.072-.112.11-.027.035-.053.07-.079.106-.069.094-.149.176-.236.245-.308.361-.607.753-.941 1.046-.613.854-1.182 1.744-1.694 2.682-.243.445-.547.945-.841 1.475-.292.703-.559 1.415-.791 2.133-.058.181-.114.364-.169.546 0 .042.002.084.005.125.024.31-.07.603-.242.834-.207 1.434-.287 2.88-.246 4.297.023.799.093 1.608.212 2.398.037.252.157.519.235.786.102.349.162.697.148 1.029-.004.099-.019.194-.045.285.582 1.835 1.341 3.634 2.166 5.284.054.106.111.21.171.313.503.631 1.012 1.257 1.536 1.871.23.269.468.549.714.828.412.342.82.682 1.215 1.025.13.113.268.241.413.376 1.77.932 3.492 1.991 5.31 2.799.265.118.607.304.981.489.906.087 1.804.25 2.741.323 1.277.101 2.564.133 3.851.136.239-.106.512-.138.785-.074.108.025.217.049.326.071.847-.006 1.693-.019 2.536-.028.361-.004.836.054 1.312.092.277.021.555.055.767-.006.243-.07.489-.062.713.008.672-.027 1.347-.068 2.017-.068.107-.005.641-.022.89.023.15.027.281.072.393.124 1.015-.032 2.033-.073 3.048-.073.143 0 .675-.045.963.008.096.017.185.042.266.073.142-.026.281-.056.417-.09.243-.061.486-.046.706.031.689-.048 1.379-.091 2.07-.132.498-.029.995-.075 1.493-.113.752-.148 1.503-.3 2.253-.461.472-.101 1.322-.426 2.033-.552l.021-.004c.628-.209 1.256-.423 1.884-.64.343-.118.743-.201 1.138-.301.592-.354 1.2-.685 1.798-1.027.209-.119.415-.242.623-.363 1.129-.866 2.219-1.748 3.266-2.725.31-.289.62-.589.925-.891.627-.915 1.229-1.855 1.836-2.804.451-.704.825-1.449 1.25-2.171l.115-.195c.029-.396.248-.758.588-.967.6-1.601 1.022-3.261 1.362-4.944.015-.196.031-.392.047-.587l.001-.095v-.974c0-.195.046-.38.127-.544l.013-.193-.009-.019c-.224-.448-.125-.737-.121-.761.024-.153.069-.283.127-.393-.019-.54-.049-1.079-.095-1.617-.036-.426-.092-.851-.128-1.278-.18-.789-.406-1.601-.62-2.421-.15-.452-.298-.906-.438-1.364-.105-.343-.143-.48-.186-.653l-.008-.021c-.146-.383-.256-.766-.31-1.128-.263-.653-.527-1.307-.843-1.938l-.004-.008c-.411-.692-.788-1.397-1.241-2.068-.094-.069-.188-.153-.278-.256-.196-.222-.543-.778-.728-1.083-.244-.276-.489-.55-.728-.828l-.131-.154c-.201-.183-.376-.352-.426-.4-1.138-.94-2.572-1.634-3.611-2.672-.053-.053-.098-.106-.137-.157-.434-.184-.875-.445-1.246-.668l-.155-.087c-.019.001-.038.001-.057.001-.24 0-.557-.065-.894-.206-.37-.154-.807-.426-1.047-.527-.226-.095-.453-.189-.681-.28-.098.006-.198 0-.299-.019 0 0-.425-.079-.633-.137-.29-.08-.574-.182-.863-.263-.395-.11-.792-.211-1.189-.311zm-28.681 10.199-.005.001s-.576.136-.844.258c-.498.227-.973.526-1.396.872-.564.461-1.179.873-1.746 1.326-.157.126-.292.267-.412.418-.166.133-.322.27-.462.411-.6.599-1.079 1.349-1.593 2.05-.212.216-.384.496-.58.724-.052.061-.124.141-.19.219-.032.033-.064.066-.096.098-.252.251-.289.443-.3.474-.057.163-.084.31-.087.444-.161.285-.32.573-.48.854-.008.014-.027.053-.051.102-.068.088-.233.306-.28.394-.124.237-.155.454-.155.616 0 .081.006.157.019.23-.021.089-.04.179-.058.27-.14.298-.264.604-.317.867-.074.368-.23.567-.288.918-.037.222-.054.451-.059.685l-.001.047c-.01.677.078 1.386.078 2.036 0 .457-.017.92.048 1.369.022.156.074.422.102.557l.018.218c.05.545.138 1.081.293 1.42.023.053.157.353.297.634.01.036.02.071.03.106.054.514.373 1.435.425 1.565.244.611.607 1.261 1.036 1.886l.017.046c.368.919 1.036 1.599 1.715 2.278.691.691 1.446 1.307 2.246 1.864.401.374.841.713 1.352 1.005.435.249.854.455 1.278.634.726.412 1.617.803 2.287.907.183.087.551.256.715.3.25.067.465.062.626.035h.029c.054.03.126.058.219.069.052.005.2.003.226.002l.03.004c.047.012.08.02.089.022.199.043.903.278 1.399.326.369.036.662-.054.819-.188.063.005.122.009.171.012.442.03.884.033 1.327.07.601.05 1.204.066 1.806.07.101.002.201.003.301.002h.709c.217 0 .477-.032.732-.045.206.03.498.07.733.061.033.003.066.002.099-.002.06.008.12.017.181.025.353.051.815.207 1.426.207.358 0 .454-.245.482-.312.045-.112.126-.441-.235-.635-.082-.044-.534-.171-.659-.217-.52-.188-.533-.302-.722-.397-.57-.285-.711-.523-1.159-.971-.238-.237-.503-.405-.779-.589-.088-.059-.26-.164-.293-.184-.068-.041-.123-.057-.167-.052-.062-.058-.12-.112-.166-.159-.416-.415-.778-.895-1.216-1.284-.175-.156-.514-.48-.514-.48-.011-.011-.024-.022-.036-.032-.025-.063-.1-.25-.156-.344-.083-.141-.193-.245-.315-.306-.196-.099-.382-.014-.524.105l-.11-.01c-.327-.049-.924-.048-1.028-.048-.022 0-.196.017-.384.043-.34-.093-.739-.248-1.126-.342-.431-.105-.852-.145-1.228-.099-.134-.061-.27-.12-.408-.176-.098-.041-.233-.088-.367-.133-.06-.046-.118-.089-.167-.123l-.43-.302-.039-.033c-.11-.081-.223-.158-.339-.232-.237-.166-.474-.331-.713-.494-.037-.025-.427-.31-.738-.486-.219-.266-.435-.507-.631-.703-.272-.271-.575-.429-.901-.591l-.236-.33c-.181-.347-.366-.691-.56-1.03-.197-.345-.402-.685-.603-1.028l-.044-.079-.2-.478-.021-.072c-.091-.319-.228-.617-.332-.93-.024-.071-.062-.183-.103-.3-.046-.94-.067-1.883-.005-2.824l.053-.342c.058-.39.061-.392.103-.747.037-.141.135-.525.136-.633 0-.043-.002-.084-.005-.123.332-.735.673-1.467 1.045-2.181.029-.056.106-.173.197-.311.084-.05.178-.119.273-.217.108-.111.338-.495.445-.656.191-.286.424-.523.639-.791.076-.095.245-.271.245-.271.033-.034.064-.071.093-.109.205-.142.405-.292.605-.456.197-.161.392-.325.59-.486l.009-.007.222-.131c.031-.019.552-.373.917-.655l.231-.127.153-.077c.667-.153 1.322-.356 1.987-.518.17-.042.339-.09.509-.136 1.018.107 2.05.241 3.06.241.057 0 .111-.002.163-.008.377.097 1.175.313 1.573.412.256.092.512.186.765.285.101.039.255.12.36.177.563.364 1.123.746 1.692 1.11.026.047.057.096.094.145.041.056.222.218.32.303.217.216.221.184.463.391l.099.09c.04.082.093.168.161.254.084.107.386.355.655.568.118.128.237.254.357.378.089.119.179.238.275.355.612.754 1.321 1.457 1.987 2.169.113.143.216.289.346.42.097.097.327.29.429.342.056.029.11.052.163.071.523.579 1.056 1.13 1.481 1.554.105.105.48.352.979.406.236.133.547.291.742.322.486.078.928-.044 1.296-.412.105-.105.249-.144.376-.235.247-.176.484-.4.688-.741.388-.647.442-1.474.191-2.288-.062-.198-.142-.395-.236-.585-.009-.031-.018-.059-.027-.083-.09-.247-.223-.459-.395-.631-.034-.034-.068-.069-.102-.103-.16-.199-.332-.379-.509-.533-.431-.462-.841-.922-1.286-1.366-.217-.217-.401-.382-.54-.662-.055-.11-.204-.325-.414-.525-.222-.213-.513-.417-.63-.474-.01-.004-.019-.009-.028-.013-.116-.133-.234-.265-.351-.393-.369-.404-.793-.747-1.19-1.121-.177-.166-.532-.497-.532-.497-.125-.116-.268-.201-.419-.256-.179-.165-.343-.304-.417-.366h-.001l.008.007-.009-.008c-.074-.087-.151-.174-.23-.26l-.001-.003c-.164-.233-.342-.401-.493-.502l-.012-.008c-.108-.1-.216-.194-.322-.279-1.123-.899-2.493-1.474-3.799-2.033-.603-.259-1.212-.61-1.839-.766-1.391-.348-3.578-.617-5.062-.246-.238.059-.492.031-.741.04-.342.013-.679.055-1.001.162-.604.202-1.197.434-1.818.558-.318.063-.798.331-1.072.495zm17.501-.491.399-.169c.265-.132.503-.311.765-.442.06-.03.131-.028.197-.041.127-.025.249-.063.359-.128.08-.047.15-.117.218-.188.031-.006.057-.013.08-.019.216-.063.38-.158.506-.265.523-.246 1.066-.462 1.613-.659.2-.023.399-.052.596-.101l.035-.007c.219-.017.413-.029.413-.029.115-.008.225-.031.329-.067.061-.001.099-.002.099-.002s-.04.001-.052.001h.801l.097.004.168.001c.152.011.304.022.458.029.801.037 1.597.069 2.387.154.325.105.688.217.74.235.723.252 1.436.557 2.143.852.23.096.454.207.682.307l.111.047c.35.224.671.486 1.024.709.538.34 1.081.687 1.617 1.046.16.142.316.286.469.431.022.05.045.093.064.127.088.155.201.295.303.442.228.33.489.631.73.951.35.467.711.921 1.081 1.37l.187.308c.081.136.162.272.242.408l.09.156.092.196c.275.751.513 1.52.729 2.292.004.235.011.458.019.503.108.609.185 1.225.231 1.843.024.328.059.675.086 1.027l.003.312v.313l-.003.421c-.066.395-.13.791-.2 1.185-.061.145-.099.321-.1.534l-.044.216c-.062.293-.069.334-.097.544-.157.459-.41.903-.563 1.34-.137.393-.287.784-.45 1.172-.18.302-.37.602-.57.903-.514.771-1.146 1.389-1.757 2.077-.157.177-.354.318-.534.468-.06.05-.203.151-.203.151l.017.053c-.371.3-.719.631-1.099.916-.648.486-1.451.759-2.068 1.253-.033.027-.166.137-.307.258-.07.027-.14.054-.209.081l-.825.339-.327.159-.269.075c-.102.004-.596.026-.938.071-.065-.015-.134-.025-.207-.033-.524-.051-1.682.14-1.838.153-.44.039-.879.088-1.318.135-.418-.021-.831-.066-1.241-.129-.746-.272-1.622-.394-2.435-.549-.239-.113-.509-.226-.592-.26-.534-.268-1.067-.545-1.602-.817-.682-.549-1.344-1.121-1.975-1.625-.817-.655-1.435-1.665-2.299-2.242-.073-.048-.244-.196-.291-.237-.084-.154-.265-.46-.41-.605-.184-.181-.381-.286-.566-.342-.297-.305-.596-.607-.898-.909-.241-.241-.779-.876-1.275-1.236-.028-.02-.056-.04-.083-.058-.264-.286-.527-.572-.792-.855-.054-.057-.109-.115-.164-.171-.035-.058-.107-.14-.196-.232l-.096-.113c-.17-.226-.356-.473-.555-.672-.284-.284-.609-.755-.965-1.133-.291-.309-.606-.563-.925-.734-.054-.068-.105-.128-.147-.17-.133-.133-.303-.247-.521-.315-.132-.043-.306-.073-.511-.059-.059.004-.162.024-.26.045-.035-.007-.07-.012-.105-.017-.446-.06-.956.048-1.65.395-.321.16-.654.492-.862.98-.288.676-.318 1.69-.181 2.101.294.883.807 1.526 1.467 2.071.202.202.425.431.639.669.241.386.592.725.89 1.066.064.087.44.592.539.701.113.123.212.192.267.227.098.064.193.111.285.145.169.166.339.331.508.498.095.431.418.797.871.926.042.012.081.034.12.064l.016.015c.105.275.307.512.58.655.039.181.12.356.243.511.598.747 1.425 1.346 2.177 1.928.423.327.846.653 1.26.992l.097.098c.077.077.162.141.252.194 1.373 1.169 3.091 2.848 4.88 3.316.06.032.637.347.94.425.142.036.283.058.424.063.167.063.334.152.504.227.322.14.648.263.975.329 1.791.358 3.682.768 5.565.579.579-.057 1.137-.206 1.688-.378.145-.025.279-.062.396-.108.603-.005 1.264-.183 1.919-.426.266-.031.527-.075.78-.148.77-.22 1.465-.519 2.139-.968.051-.035.104-.067.158-.097.166-.076.333-.148.494-.237.867-.482 1.796-1.074 2.582-1.686.206-.16.401-.3.627-.429.233-.134.632-.501.632-.501.071-.068.132-.143.183-.223.623-.423 1.394-1.376 1.755-2.13.135-.181.241-.335.277-.408l.012-.024c.128-.184.251-.374.371-.566.004-.005.009-.011.014-.016.279-.308.543-.623.73-.949.295-.517.551-1.056.776-1.609.287-.442.563-.888.748-1.381.487-1.297.734-2.619 1.061-3.928.027-.109.047-.221.061-.335.114-.24.187-.615.217-.942.068-.752.095-1.577-.054-2.322-.017-.084-.034-.167-.051-.249.035-.12.052-.248.048-.38-.044-1.549-.393-3.006-.988-4.355-.184-.843-.538-1.657-.976-2.426-.139-.279-.294-.552-.461-.82-.072-.401-.236-.796-.471-1.174-.353-.57-.888-1.103-1.241-1.551-1.083-1.378-2.425-2.414-3.809-3.425-.38-.35-.807-.673-1.262-.971-.118-.161-.277-.295-.47-.386 0 0-.319-.15-.48-.222-.022-.01-.045-.019-.067-.029-.651-.407-1.34-.757-2.062-.937-.354-.144-.704-.278-1.042-.401-.608-.221-1.316-.371-1.956-.451-.32-.04-.968-.007-.968-.007l-.019.001c-1.628-.3-3.258-.41-4.955-.127-.437.072-1.067.094-1.626.219-.423.095-.811.248-1.132.459-.635.153-1.26.348-1.858.581-.183-.026-.374-.01-.56.052-.483.161-.783.391-.972.656-.285.154-.631.35-.936.544-.103.043-.227.106-.234.11-.1.051-.196.107-.291.165l-.013-.047s-.152.086-.215.131c-.127.09-.249.186-.383.267-.402.241-.848.555-1.174.881-.06.06-.182.105-.262.145-.048.024-.268.207-.319.313-.115.24-.048.438.097.583.055.055.132.107.236.135.041.011.135.015.192.017.035.005.07.012.105.019.039.026.082.048.129.063.321.101.637.261.943.401.345.158.705.304 1.025.51.342.22.677.471 1.024.679.341.204.814.36 1.085.63.089.09.208.149.36.151zm11.099 23.858.009-.005s-.021.009-.029.013zm-11.099-23.858-.065.028c.014-.005.066-.028.066-.028z" fill="#f00"/></svg>