<svg xmlns="http://www.w3.org/2000/svg" viewBox="0 0 87.124 100"><defs><style>.cls-1{fill:#5596cd;}</style></defs><title>icon-css</title><g id="Layer_2" data-name="Layer 2"><g id="Layer_1-2" data-name="Layer 1"><path class="cls-1" d="M41.254,60.59l.013.008-.023.028C41.248,60.614,41.251,60.6,41.254,60.59ZM86.734,4.881c-.079,1.674-.3,3.333-.521,4.991-.49,3.491-1.043,6.966-1.532,10.441-.237,1.674-.458,3.364-.664,5.038a2.572,2.572,0,0,0,.032,1.359c.284.7.837.742.742,1.7-.11,1.122-.853,2.37-1.058,3.538-.237,1.169-.4,2.37-.584,3.554-.932,6.113-1.627,12.226-2.117,18.386-.458,5.939-1.564,11.988-1.69,17.895-.047,2.907-.363,5.813-.442,8.719-.048,1.769.268,5.007-1.343,6.223,1.58,1.09.506,2.733-.79,3.365a9.586,9.586,0,0,1-2.969.631c-2.733.411-5.434,1.548-8.087,2.322-2.638.774-5.165,1.659-7.724,2.607a2.221,2.221,0,0,1-1.674.221c-.237-.079-.569-.506-.743-.553-.458-.111-.268-.048-.837.016-1.326.142-2.858,1.169-4.091,1.674a28.576,28.576,0,0,1-6.112,2.211c-.316.048-.727-.2-.964-.126-.347.126-.6.679-1.042.821a3.618,3.618,0,0,1-2.038-.237c-5.623-1.611-10.882-4.375-16.5-5.954-2.48-.695-5.1-1.153-7.614-1.675-1.516-.316-5.544-.252-5.923-2.195-1.5,1.469-2.969-.379-3.127-1.817-.221-1.927.221-3.822-.095-5.749-.632-3.87-.884-7.787-1.169-11.7-.521-7.06-1.595-14.058-2.274-21.1a110.435,110.435,0,0,1-.79-11.625c.047-3.87-.837-7.74-1.185-11.61-.363-4.122-.315-8.213-.916-12.3A56.747,56.747,0,0,1,.257,8.261C.209,7.187.193,6.081.241,4.991.272,4.47.462,3.728.43,3.254.367,2.7-.044,2.685,0,1.959.178-1.058,6.385.285,8.091.411c1.769.126,3.538.253,5.291.442.679.079,1.343.158,2.022.253A5.924,5.924,0,0,0,17.536.869c10.836.047,21.718-.079,32.538.6C57.1,1.9,64.384,1.185,71.413.837c2.559-.126,5.07-.379,7.566-.552C81,.142,85.044-.6,86.671,1.09,87.619,2.069,86.8,3.68,86.734,4.881ZM69.818,18.37c-.948-.079-1.88-.127-2.828-.174l-1.311-.047a1.877,1.877,0,0,1-.7.868c-1.121.711-3.285.079-4.533-.015q-5.4-.4-10.819-.648c-7.108-.3-14.295-.2-21.4.158-2.148.126-4.3.268-6.46.411-1.469.11-4.027-.237-5.386.347-.821.363-.331,0-.521.806a5.759,5.759,0,0,0-.016,1.279c0,.916,0,1.848.016,2.764.016,1.8.111,3.6.237,5.4,1.99-.111,3.98-.111,5.97-.111,3.617.253,7.408-.71,11.025-.947,2.812-.19,5.639-.016,8.451-.032a1.775,1.775,0,0,1,.647,3.459c-2.416,1.122-5.56.7-8.087,1.643-5.291,1.959-10.172,5.339-14.989,8.245-.806.49-.806.316-.853,1.248-.016.647.426,1.326.458,1.974.047.964-.332,1.595-.332,2.575a19.029,19.029,0,0,0,.253,2.1c.126,1.106-.126.9.774,1.2,1.232.411,3.412-.048,4.738-.063,3.712,0,7.377.173,11.088.426,4.976.348,10.03-.363,15.053.142.979.095,2.322.679,3.238.553.411-.047.711-.616,1.264-.663a1.9,1.9,0,0,1,1.658.758c.727.916.316,1.643.174,2.606-.19,1.374.047,2.8-.127,4.17-.094.774-.442,1.342-.537,2.053a6.82,6.82,0,0,0,.253,1.469,2.689,2.689,0,0,1-.932,2.717c-.837.553-1.564.142-2.416.284a18.307,18.307,0,0,0-3.728,1.453,29.008,29.008,0,0,1-5.118,2.038c-1.137.2-1.721-.316-2.716-.727-1.469-.6-3.049-1.153-4.549-1.642-1.469-.49-3.238-.158-4.6-.727-1.105-.474-1.058-1.184-1.137-2.211-.095-1.2-.395-2.148-.5-3.333-.063-.648.11-3.1-.474-3.491-.474-.316-2.543.095-3.112.143-2.48.173-4.959.41-7.455.568.3,2.78.569,5.56.821,8.356.19,2.179-.079,5.038.537,7.123,2.212-.837,6.618,1.9,8.577,2.733a47.366,47.366,0,0,0,8.324,2.922c1.564.332,3.112.663,4.66,1.011a7.283,7.283,0,0,0,1.879.41,15.7,15.7,0,0,0,2.211-.742c2.291-.632,4.565-1.264,6.855-1.88,2.2-.568,4.233-1.674,6.524-2.227a10.931,10.931,0,0,1,3.617-.379c1.421.142,1.406.395,1.674-1.279a149.656,149.656,0,0,0,1.248-15.716c.268-5.607,1.469-11.1,1.643-16.695-4.786-.032-9.6-.143-14.39.2-2.2.158-4.47.474-6.586.711-1.706.2-3.507-1.343-2.054-2.986.616-.7,2.07-1.074,2.891-1.421,1.643-.711,3.27-1.422,4.912-2.1,2.828-1.169,5.671-2.322,8.529-3.412,1.627-.616,3.254-1.216,4.9-1.816a9.877,9.877,0,0,0,1.88-.663c.821-.569.647-.964.726-2.07A79.812,79.812,0,0,1,69.818,18.37Z"/></g></g></svg>