<svg xmlns="http://www.w3.org/2000/svg" viewBox="0 0 135.666 100"><defs><style>.cls-1{fill:#bd6893;}</style></defs><title>icon-sass</title><g id="Layer_2" data-name="Layer 2"><g id="Layer_1-2" data-name="Layer 1"><path class="cls-1" d="M135.2,68.69c-.19-.74-.912-.74-1.188-1.256-.086-.155.121-.757.052-1a3.413,3.413,0,0,0-.723-1.1,19.8,19.8,0,0,0-3.544-3.458,20.811,20.811,0,0,0-3.6-2.409c-1.635-.861-3.132-.912-4.869-1.394a30.938,30.938,0,0,0-8.466-.533,20.079,20.079,0,0,0-8.689,2.219c-.464-1.049-.98-2.065-1.531-3.062-.912-1.6-.757-2.943-.637-4.784.155-2.219.43-4.422.723-6.624.172-1.256,1.531-5.041-1.29-4.353-1.738.43.705.138-.964.723-.189.068-1.222-.035-1.549.017-.877.172-1.669.619-2.6.74-1.72.189-2.013.6-2.477,2.426-.4,1.6-.947,3.08-1.48,4.628a40.947,40.947,0,0,1-7.6,13.249,29.221,29.221,0,0,1-1.617-7.244c-.362-2.357.413-4.216,1.015-6.469,1.049-3.82-3.338-2.753-5.713-2.616-1.445.086-1.737.258-2.357,1.514-.361.706-.774,1.927-1.118,2.839-1.738,4.835-4.491,9.687-6.728,14.4-.826,1.72-1.634,3.458-2.391,5.23a28.653,28.653,0,0,0-1.342,4.25,6.345,6.345,0,0,1-1.342,2.908c-.086-3.992.757-7.829,1.256-11.769a12.509,12.509,0,0,1,.619-2.546c.12-.413.413-1.153.516-1.618a2.635,2.635,0,0,0,.172-.963c-.206-2.271-3.665-2.736-4.611-.757-.034-1.274.62-2.7.6-4.13a5.669,5.669,0,0,0-1.29-3.527c-1.824-2.478-3.682-3.94-6.573-1.841-.912.654-1.634,1.893-2.563,2.374-.826.431-1.652.344-2.5,1.033A24.513,24.513,0,0,0,46.386,56.2c-1,1.066-1.463,2.8-2.478,3.647-2.013,1.669-5.334,2.77-7.691,4.026-.964.5-1.927,1.016-2.891,1.532-.98.533-.843.619-1.565.172-.448-.276-.826-.947-1.239-1.308-.568-.5-1.377-.791-1.893-1.29A21.612,21.612,0,0,0,26.754,61c-1.274-.981-2.426-2.2-3.631-3.269-1.772-1.566-3.6-3.08-5.506-4.474-1.307-.963-2.7-1.823-3.991-2.821a7.362,7.362,0,0,1-2.358-3.941,20.892,20.892,0,0,1-.654-4.576,10.447,10.447,0,0,1,.431-4.629c2.271,1.738,4.077-4.422,4.9-5.953a29.8,29.8,0,0,1,2.564-4.2,18.658,18.658,0,0,1,4.026-3.183c5.145-3.665,10.806-7.657,16.948-9.378,6.056-1.7,12.354-5.3,18.961-5.333a5.838,5.838,0,0,0,2.047-.018c1.067-.43.62-.877,1.79-.98,1.738-.172,3.974.516,5.7.86,2.873.568,6.263,1.342,8.414,3.3,1.927,1.737,1.669,5.041,1.342,7.45a16.179,16.179,0,0,1-3.166,7.519,21.573,21.573,0,0,1-5.127,5.54,38.418,38.418,0,0,1-8.4,4.869c-5.884,2.237-12.165,4.319-18.514,3.321a9.23,9.23,0,0,1-3.51-1.05c-.55-.344-.98-.826-1.531-1.17-.74-.447-1.548-.516-2.3-.929-.981-.516-1.7-1.342-3.046-.843-1.72.654-1.428,2.461-.447,3.6a17.726,17.726,0,0,0,3.613,2.753c1.1.723,2.753.637,3.716,1.359.637.448.878,1.016,1.773,1.291.671.206,1.359.12,2.013.292a15.306,15.306,0,0,0,5.4.585,23.628,23.628,0,0,0,5.111-1.187c1.7-.533,3.183-.361,4.938-.963,3.252-1.136,6.452-1.824,9.342-3.8,2.513,3.648,11.425-8.689,12.647-10.409.774-1.1,1.892-2.134,2.615-3.184.74-1.084,1.1-3.32,1.377-4.628.292-1.48.24-3.011.464-4.473a19.833,19.833,0,0,0,.5-3.338C85.185,8.5,78.956,4.667,73.777,2.516A26.279,26.279,0,0,0,63.764.021a27.48,27.48,0,0,0-9.24,1.1C48.02,3.1,41.465,4.2,35.236,7.162c-2.667,1.273-5.144,2.735-7.622,4.232a29.749,29.749,0,0,1-3.751,1.463,20.487,20.487,0,0,0-3.906,2.46,72.777,72.777,0,0,0-6.865,5.954,73.5,73.5,0,0,0-7.467,7.9c-.981,1.308-1.721,2.805-2.65,4.095A15.121,15.121,0,0,0,.91,36.171a12.347,12.347,0,0,0-.275,8.568,15.217,15.217,0,0,0,4.112,6.367c.62.567,1.377,1.1,1.962,1.7.5.533.5.963.826,1.5A14.683,14.683,0,0,0,10.873,57.3c2.408,1.892,4.886,3.733,7.433,5.437,1.445.963,3.011,2.374,4.628,2.994.826.327,1.084.155,1.893.671.963.619,1.841,1.462,2.753,2.185-1.7.981-3.786,1.634-5.4,2.65-1.549.98-3.063,2.288-4.663,3.355-2,1.307-4.043,2.133-5.8,3.905a27.219,27.219,0,0,0-2.34,2.736A23.282,23.282,0,0,1,7.449,83.2C6.33,84.4,5.935,86.911,5.5,88.511a10.671,10.671,0,0,0,.19,6.435,7.528,7.528,0,0,0,4.731,3.872c1.428.464,5.472,2.34,6.143.12,1.7,2.306,7.175-1.514,8.947-2.443,2.2-1.187,4.714-2,5.97-4.164,1.979-3.39,2.822-7.261,4.113-10.909.172-.481.6-.688.567-1.29-.051-.585-.516-.9-.567-1.376a19.116,19.116,0,0,1,.24-2.6c.035-2.1-.034-4.49-1.256-6.28,1.979-1.239,3.923-2.546,5.919-3.751a22.055,22.055,0,0,0-1.17,11.115A15.858,15.858,0,0,0,40.4,80.786c.516,1.256,1.342,2.03,1.824,3.166a8.766,8.766,0,0,0,1.48,2.873,4.256,4.256,0,0,0,4.645,1.084,6.8,6.8,0,0,0,1.6-1.549,21.022,21.022,0,0,0,2.2-2.408c1.806-2.564,2.684-5.541,3.871-8.431,0,2.976-1.411,8.672,1.7,10.633,3.768,2.357,6.969-4.164,8.1-6.555,2.082-4.371,5.231-8.466,7.055-12.922,1.325-3.2,3.475-6.229,4.3-9.653.688,1.7.43,3.493,1.239,5.283.671,1.428,1.394,2.839,2.151,4.232,1.032,1.945,1.531,1.979.086,3.665-1.153,1.342-2.323,2.667-3.476,3.992-1.445,1.686-3.011,4.026-4.714,5.231-1.119.791-2.5,1.858-1.7,3.6.568,1.256,2.1,1.376,3.3,1.307,2.753-.155,5.317-.241,7.777-1.617a18.166,18.166,0,0,0,3.2-2.254c.5-.447.843-.981,1.308-1.428a17.878,17.878,0,0,0,1.686-1.549c1.6-2.15.344-6.108-.069-8.482-.155-.774-.7-2.048-.413-2.7.31-.7.775-.619,1.256-1.049,1.119-1,1.738-2.736,2.375-4.044.671-1.376,1.307-2.787,1.875-4.232.62-1.566.947-4.216,2.271-5.093a21.4,21.4,0,0,0,.895,4.835c.465,2.064,1.635,3.7,2.22,5.678.292,1.015.344.447-.241,1.307-.31.482-.947.981-1.308,1.428-.619.775-1.032,1.91-1.7,2.6a10.685,10.685,0,0,0-2.082,2.2,9.77,9.77,0,0,0-.964,2.116c-.533,1.772-1.875,3.648-.929,5.558a4.579,4.579,0,0,0,2.323,2.013c1.29.43,1.256-.4,2.151-.74.413-.172,1.032.1,1.617-.017.241-.052,1.187-.516,1.5-.637,1.376-.55,4.25-1.806,4.147-3.562,3.338.276,5.609-9.377,2.632-10.254.929-2.994,7.3-2.5,9.825-2.478a24.193,24.193,0,0,1,4.611.224,49.266,49.266,0,0,1,5.041,1.772c3.269,1.153,6.883,3.906,6.659,7.708a7.358,7.358,0,0,1-2.013,4.956c-.929.86-3.562,1.479-1.979,3.269-2.065.258-1.5,3.217.43,3.183,1.394-.035,3.665-1.772,4.646-2.633C135.856,77.706,136.114,72.424,135.2,68.69ZM30.178,80.235c-.4,2.392-1.876,4.2-3.2,6.246a17.758,17.758,0,0,1-6.555,5.351c-.5.258-5.076,1.118-5.4.482-2.116-.43-1.824-4.353-1.325-5.816a25.264,25.264,0,0,1,2.478-4.473,9.869,9.869,0,0,1,1.394-1.859c.533-.533,1.153-.43,1.239-1.393a1.587,1.587,0,0,0,1.789-.843c.138-.31-.069-1.119.086-1.291.447-.5,1.548-.189,2.065-.533.86-.6,1.479-1.669,2.288-2.357a15.5,15.5,0,0,1,3.493-1.876c.43-.189.895-.413,1.394-.636C30.16,74.282,30.677,77.173,30.178,80.235Zm27.185-20.8c-.207,1.669-.551,3.287-.654,4.973a1.551,1.551,0,0,0-1.789.946c-.6,1.635-4.388,14.591-5.971,13.816-1.462.31-1.359-3.922-1.376-4.748-.069-1.618-.069-3.252-.017-4.87.017-.55.206-4.318.671-4.318A10.305,10.305,0,0,1,49.6,62.393a13.321,13.321,0,0,0,1.669-2c.946-1.6,2.977-3.665,4.938-4.147,1.2-.292.843-.172,1.067.637A6.692,6.692,0,0,1,57.363,59.433ZM80.918,76.777a8.671,8.671,0,0,1-4.508,3.149c1.927-2.392,3.974-4.68,5.988-6.986A8.093,8.093,0,0,1,80.918,76.777Zm18.806-4.3a12.149,12.149,0,0,1-1.5,1.635c-1.308,1.29-.843.981-2.237.981a1.927,1.927,0,0,0-.292-1.153c1.049-1.015,1.445-3.287,2.15-4.577a11.95,11.95,0,0,1,2.547-3.424,1.587,1.587,0,0,0,1.239.792A11.776,11.776,0,0,1,99.724,72.475Z"/></g></g></svg>