<svg clip-rule="evenodd" fill-rule="evenodd" stroke-linejoin="round" stroke-miterlimit="2" viewBox="0 0 66 76" xmlns="http://www.w3.org/2000/svg"><path d="m45.192.556c-.117-.097-.288-.197-.533-.252-.13-.029-1.16-.11-1.34-.11h-1.902c-1.877 0-3.784.001-5.647.187-7.169.717-14.516.447-21.703.447-2.424 0-4.893-.09-7.336-.09-.772 0-3.006-.009-3.303.006-.112.006-.21.023-.295.045-.221-.154-.41-.285-.41-.285-.376-.261-.866-.291-1.272-.079-.388.203-.638.597-.658 1.032-.193.191-.325.447-.357.738-.008.075-.01.15-.004.224-.003.031-.003.062-.003.093 0 .213.085.56.362.9v.006c0 1.123-.375 2.184-.054 3.468.828 3.31.822 6.982 1.164 10.453-.087.339-.135.734-.129 1.17.021 1.438.493 3.498.566 4.153.12 1.081.203 1.002.266 2.024.002.022.056 1.105.102 1.322.005.024.01.047.016.07.015.387.036.772.065 1.158.148 2.007.455 4.035.756 6.066.058.503.11.993.15 1.466.068.782.154 1.562.241 2.342.017.603.027 1.206.027 1.808v5.344c0 .192-.062.704-.019 1.081.053.469.248.835.47 1.057l.003.003c.072 2.35.321 4.667.644 6.994.2 1.44.255 2.874.351 4.317-.01.057-.092.522-.109.738-.033.405.052.745.18.979.1.184.226.344.387.467.093.576.211 1.143.297 1.644.018.374.06.738.06.923 0 .077.108 1.095.151 1.218l.003.01c.018.277.028.468.028.468.005.091.021.182.046.27l.137 1.01c-.065.172-.158.5-.19.821-.033.338.005.664.075.867.176.514.51.785.911.877.068.051.143.096.224.133.315.145.659.146.959.03l1.528.458c.115.034.23.068.344.103.1.199.281.402.598.574.262.141.552.178.823.125l.264.043c.667.121.695.1 1.198.215 1.387.489 2.771 1 4.157 1.462.352.118.72.067 1.016-.108 3.132.836 6.491 1.793 9.328 3.211.445.223.961.15 1.325-.143.055.017.109.034.164.052.059.055.124.109.198.159.214.146.612.299 1.086.379.514.087 1.144.12 1.417.131.344.13.631.186.798.186.176 0 .343-.037.494-.103.013.004.025.008.037.011.234.067.472.06.689-.005.44.351 1.081.362 1.537-.005.115-.093.235-.172.36-.242.093-.018.185-.048.276-.089.203-.092.409-.182.615-.27.107-.032.216-.063.326-.093.786-.216 1.625-.398 2.472-.744.761-.312 1.522-.626 2.285-.938 1.122-.342 2.251-.674 3.366-1.028.214-.008.444-.043.682-.109.61-.166 1.349-.573 1.759-.683.085-.022.169-.045.253-.068.312.398.852.578 1.359.409 2.194-.732 4.433-1.432 6.685-1.962.658-.155 1.318-.303 1.977-.45.151-.033.565-.093.844-.133l.11-.016c-.385.039-.639-.074-.792-.184l.012-.003c.224.143.497.215.782.187l.158-.023c.287-.061.482-.184.614-.312.036-.015.072-.031.108-.049.288-.144.529-.387.681-.722.084-.185.159-.568.175-.65.089-.356.112-.307.134-.658.016-.261.022-.524-.003-.784-.002-.023-.005-.047-.009-.07l-.088-.571c.029-.303.05-.607.05-.836 0-1.263.271-2.532.271-3.803 0-3.718 1.268-7.447 1.268-11.14 0-.4-.112-.676-.264-.868.165-.21.264-.474.264-.762 0-1.153.001-2.31.005-3.467.093-.517.267-2.937.267-3.053l.001-.408c.04-.197.069-.35.08-.436.347-2.776.44-5.577.727-8.358.119-1.146.489-2.549.255-3.719-.024-.117-.057-.219-.096-.309.019-.085.029-.174.029-.264 0-.416.017-.834.047-1.253.086-.168.134-.357.134-.559 0-.257 0-.518-.001-.782.222-1.821.588-3.658.722-5.466.057-.759.06-1.627.115-2.498.009-.059.015-.115.019-.165.004-.059.006-.117.005-.172.003-.048.007-.095.012-.142.075-.851.209-1.689.591-2.358.331-.579.14-1.315-.425-1.661l.003-.025c.001-.011.002-.022.003-.033l.001-.012c.058-.197.118-.392.182-.585.103-.311.075-.635-.055-.911.123-1.599.25-3.199.782-4.604.13-.344.095-.711-.064-1.012.171-.54.284-1.093.284-1.671 0-.147.091-1.082.051-1.531-.046-.506-.27-.828-.412-.97-.104-.104-.355-.327-.821-.371-.335-.032-1.721.101-1.951.101-2.048 0-3.801-.09-5.796-.09-.503 0-1.33-.105-1.999-.062-.171.011-.335.032-.489.061-1.982-.168-4.726-.579-6.696.091h-2.618zm-20.832 13.718c-3.463.307-6.904.699-10.384.699-.187 0-.545.021-.972.032-.023.298-.061.626-.061.82 0 1.149.017 1.09.089 2.28l.025.438c.089.178.166.396.213.651.112.603.083 1.6.056 2.271.026.234.05.467.07.698.063.089.135.217.184.39.041.142.063.572.082.757.04.404-.024.812.003 1.217.064.965.112 1.926.181 2.893.172 2.416.44 4.82.633 7.234.023.29.178.93.216 1.445.031.412-.009.778-.094 1.035l-.009.024c.127.716.31 1.448.443 2.167.248-.035.494-.068.612-.078 1.472-.123 2.973-.166 4.451-.248 5.687-.316 11.236-.124 16.94-.124 1.295 0 2.611-.06 3.925-.061.145-.024.897-.141 1.217-.114.447.037.759.228.943.413.287.286.46.701.418 1.206-.022.259-.128.567-.241.819v.502c0 .508-.108 1.092-.208 1.591-.085.423-.146.845-.189 1.269l-.029.313c-.048.574-.065 1.151-.065 1.735v.027c-.002.368-.043.659-.114.884.016.33.053.655.053.991 0 .266-.075.796-.075.796-.039.258-.155.485-.323.662-.046.299-.131.528-.152.55-.007.008-.418.191-.679.307-.166.115-.392.229-.667.307-.458.131-1.123.204-1.421.204-1.357 0-2.737.492-4.058.822-.537.134-1.17.253-1.719.331-.123.018-.609.059-.768.072-.215.046-.446.035-.668-.044-.149-.053-.269-.119-.366-.192-.731-.198-1.559-.504-1.684-.567-.965-.482-1.951-.445-3.036-.878-.412-.165-.813-.326-1.227-.491-.151-.061-.473-.123-.473-.123-.158-.033-.303-.096-.43-.182-.033-.003-.065-.008-.097-.014-.213-.039-.804-.193-.995-.958-.073-.292-.128-1.707-.128-2.013 0-1.239-.338-2.497-.366-3.704-2.67.085-5.346.187-7.998.128.152 1.848.091 3.741.21 5.582.142 2.21.342 4.418.588 6.622 5.087 1.191 10.22 2.923 15.15 4.626.529.182 1.143.358 1.793.542.94-.271 1.883-.531 2.829-.783.127-.13.285-.234.467-.3 4.262-1.524 8.724-2.433 13.136-3.43.035-.01.07-.021.105-.031.004-.394.013-.788.041-1.18.028-.396.086-.807.125-1.201.022-.217.156-.69.239-.921.026-.831.061-1.661.127-2.489.128-1.606.402-3.159.731-4.708.05-.672.11-1.342.178-2.011.007-.787.044-1.582.163-2.32.011-.205.021-.409.03-.613.001-.019.002-.038.004-.056l.132-1.462.026-.424.013-.273.008-.969c.004-.353.044-.635.111-.855-.015-.934-.029-2.087.084-3.157.103-.969.32-1.873.676-2.57-.412.006-.823.009-1.235.009-6.035 0-12.066-.122-18.099-.122-1.947 0-3.904.059-5.85.122-.709.022-1.402.098-2.108.118-.502.103-1.079.211-1.454.209-.599-.002-1.005-.234-1.214-.442-.143-.143-.343-.424-.389-.859-.028-.263.029-.796.029-.932 0-.356.044-.857.051-1.345.003-.26.037-.519-.044-.681-.139-.277-.67-1.993-.694-2.851-.018-.632.225-1.06.434-1.27.36-.359.926-.559 1.586-.502.37.032.781.15 1.108.265h.017c.617 0 1.26.122 1.902.122 1.9 0 3.8-.074 5.697-.182 6.901-.39 13.825-.349 20.713.211.04-2.828.03-5.687.432-8.42-2.823.011-5.657.02-8.486-.014-.188.116-.409.183-.646.183-3.387 0-6.79-.107-10.19-.239-2.003.047-4 .043-5.978-.033-1.181-.046-2.395-.125-3.606-.155zm-.376 34.088-.004.014.016-.048zm.134-.281c-.022.033-.044.069-.064.109s-.039.083-.056.131c.032-.086.072-.166.12-.24zm-20.486-47.322c.229.031.435.123.604.257h.014c-.032-.028-.069-.055-.111-.082-.122-.077-.287-.146-.507-.175-.003 0-.005 0-.008-.001zm40.45-.452-.009.002.044-.008zm.071-.012-.021.003.047-.006zm.078-.008-.027.003.039-.003z" fill="#f16529"/></svg>