<svg clip-rule="evenodd" fill-rule="evenodd" stroke-linejoin="round" stroke-miterlimit="2" viewBox="0 0 66 76" xmlns="http://www.w3.org/2000/svg"><path d="m37.214 1.229c-.476-.023-.952-.041-1.429-.06-.648-.044-1.294-.079-1.934-.095-2.921-.177-5.818-.198-8.736-.12-3.701-.067-7.416.032-11.116.032l-.068.001c-.259.003-.48.026-.666.066-1.384.012-2.768.029-4.156.029-.561 0-1.757-.129-2.676-.082-.255.013-.494.042-.71.083l-.607-.001c-.367-.018-1.191-.007-1.31-.001l-.054.004-.059-.02c-.133-.051-1.26-.352-1.446-.344-.183.007-.337.044-.466.098-.112-.023-.229-.031-.348-.021-.611.05-1.093.54-1.133 1.151 0 0-.057.941.115 1.714.009.042.019.083.03.124.064.352.132.663.143.824.035.48.091.964.161 1.451-.359.416-.501.934-.469 1.517.023.41.18.876.214 1.27.076.878.184 1.757.308 2.633-.016.39-.009.791.018 1.198-.613.244-.72.886-.727.925-.004.022-.077 1.307 1.048 1.443.247 1.32.562 2.619.7 3.725.035.279.068.558.1.838l.185 1.679c.031.28.064.559.099.839.027.218.053.347.078.452.128 2.155.327 4.323.593 6.452l.051.399c-.022.432-.044.924-.045 1.403-.021.218-.037.477-.051.752-.032.085-.059.181-.078.29-.103.594-.19 3.922-.173 4.517.092 3.315.652 6.703 1.063 9.996.138 1.098.148 2.201.281 3.3-.013.079-.08.478-.097.665-.035.402.046.74.169.972.065.123.141.235.231.333.113.911.241 1.819.38 2.724.18 1.169.379 2.368.575 3.547l.003.031c.051 1.225.218 2.442.478 3.628.015.16.09.915.185 1.256.039.14.088.262.14.364l.017.144c-.093.058-.188.134-.283.229-.345.345-.559.906-.519 1.582.017.3.089.625.184.934l-.005.044c-.103.538.161 1.067.626 1.318l.015.02c.449.493.943.458 1.217.395.04.043.083.083.129.121 1.446 1.171 3.416 1.361 5.189 1.615.24.034.474-.004.681-.096.461.137.964.282 1.447.413.254.08.511.155.772.225.857.23 1.75.409 2.64.56.758.351 1.755.53 2.419.694l.259.076.164.047c2.462 1.296 5.267 2.076 7.923 2.666.19.043 1.068.336 1.777.469.367.07.707.093.971.077.16.19.436.443.972.443.492 0 1.084-.205 1.679-.531.208-.113.417-.247.621-.372.151.054.416.106.747.056.241-.036.597-.146.848-.231.228-.002.519-.024.685-.107.163-.082.322-.17.479-.263.157.027.339.026.547-.024.225-.054 1.269-.617 1.352-.663l.045-.02c.058.022.118.039.181.053.151.228.402.425.828.5.464.083.915-.106 1.188-.453.487-.261 2.176-1.162 2.512-1.308.503-.219 1.005-.436 1.508-.651.148.011.315-.003.505-.051.011-.002.021-.005.032-.008.271.033.555-.023.804-.179.439-.276 1.054-.506 1.708-.71.273.05.555.007.799-.12.089 0 .179-.01.269-.03 2.356-.524 4.61-.925 6.879-1.775.207-.078 1.031-.304 1.415-.508.248-.131.423-.291.543-.44.188-.015.399-.079.617-.245.097-.054.185-.136.261-.25.202-.244.346-.571.395-.96.047-.381-.032-.883-.032-1.152 0-.535-.01-1.068-.024-1.6.082-.593.215-1.188.299-1.773.13-.909.242-1.833.34-2.772.182-.189.305-.438.336-.718 0 0 .145-1.305.196-1.96.104-1.359.037-2.729.188-4.082.19-1.714.134-3.487.093-5.26.174-.154.324-.385.384-.732.023-.134.089-1.103.104-1.477.021-.491.048-.983.092-1.473.104-1.138.148-2.281.227-3.422.146-.838.258-1.664.258-2.444 0-.42-.156-.63-.212-.713-.037-.055-.076-.106-.116-.151.013-.147.022-.295.031-.442.044-.202.09-.409.105-.55.035-.334-.028-.587-.083-.727-.025-.065-.054-.125-.084-.181.051-.64.102-1.279.162-1.915.037-.397.072-.795.109-1.192.014-.034.026-.07.037-.106.136-.184.224-.408.24-.653.018-.277.028-.563.034-.856.007-.028.015-.058.024-.089.064-.232.057-.468-.008-.684.011-.056.022-.112.032-.168.054-.328.143-1.184.134-1.307-.006-.078-.017-.152-.032-.22l.002-.016c.127-.194.2-.426.2-.674 0-.185.002-.37.004-.554.022-.118.044-.236.068-.355.041-.205.162-.644.188-.871.033-.288-.014-.512-.061-.652.009-.196-.03-.39-.11-.565.009-.163.017-.326.025-.489.069-.264.149-.527.242-.79.138-.387.071-.797-.145-1.113.014-.301.026-.603.037-.905.044-.358.087-.716.128-1.074.051-.115.084-.241.098-.373.132-1.327.36-3.044.423-4.684.007-.077.015-.155.022-.233.042-.151.054-.306.038-.456.03-.383.054-.766.071-1.148.021-.179.026-.273.027-.419.033-.228.111-.627.134-.835.026-.241.003-.42-.016-.507-.017-.081-.039-.156-.065-.224.027-.312.043-.619.043-.918 0-.142-.015-.268-.041-.38.095-.459.179-.923.257-1.383.046-.104.087-.205.104-.265.062-.226.064-.428.039-.592l.104-.629c.07-.421.217-.826.287-1.247.029-.174.088-.544.085-.736-.001-.063-.006-.122-.014-.177.013-.062.022-.12.026-.173.019-.24-.012-.452-.068-.629.088-.159.159-.308.204-.435.265-.752.01-1.311-.29-1.612-.134-.134-.515-.394-1.134-.426-.237-.013-.564-.005-.911.013-.123-.115-.331-.264-.656-.333-.349-.073-1.629.001-1.721.001-1.064 0-2.12.105-3.174.205-.109-.008-.206-.014-.278-.014-.742 0-1.46-.095-2.206-.095-2.29 0-4.578-.007-6.864.097-.649.029-1.291.152-1.939.193-.37.023-1.107.1-1.107.1-.135.014-.263.05-.381.103-1.144.057-2.299.166-3.453.263-.405.007-.81.011-1.215.011-.321 0-1.673-.082-2.393.069-.101.021-.196.048-.284.078zm-.51 72.807c.017-.005.034-.01.051-.016.016-.006.031-.013.044-.019zm16.013-58.695c-1.1-.035-2.325-.09-2.343-.091-.291-.015-.583-.031-.875-.048-.129.153-.336.311-.678.397-.923.23-2.333-.1-3.254-.158-2.191-.137-4.388-.209-6.582-.286-.591-.02-1.181-.04-1.772-.057-.119.037-.253.06-.402.061-.132.002-.441-.058-.592-.089l-.386-.01h-1.504c-.017 0-.034 0-.051-.001-1.935-.081-3.859-.095-5.799-.095h-4.219c-.304 0-.939.09-1.269.071-.138-.008-.261-.03-.37-.06-1.49.019-2.979.047-4.467.085-2.159.054-4.315.079-6.472.089.004.271.001.529-.002.748.16 1.816.503 3.656.761 5.42.078.53.156 1.058.237 1.585h5.685c.123 0 .241.017.353.051.359-.019.719-.03 1.078-.03.19 0 .497-.034.75-.016.174.012.335.044.479.09.266-.015.54-.001.807-.001.104 0 .2.009.288.025.125-.015.249-.031.373-.049.108-.015.705-.101 1.059-.088 1.575-.156 3.154-.28 4.725-.359.828-.041 1.693-.258 2.521-.315.158-.019.39-.018.469-.012.724.054.973.587.995.625.179.318.2.634.113.942-.063.226-.196.511-.554.726-.028.017-.197.16-.58.175h-.002c-.163.048-1.074.2-1.303.286-1.274.478-2.668.709-3.97 1.142-1.29.43-2.493 1.256-3.742 1.811-1.626.723-3.305 1.401-4.975 2.027-.919.345-1.847.629-2.679 1.158-.033.022-.091.051-.157.082-.024.043-.052.085-.083.127-.089.122-.25.333-.65.466-.005.002-.01.003-.016.005-.024.48-.048.935-.048 1.004 0 .422.013.843.034 1.264.174 1.035.387 2.061.652 3.076.155.591.375 1.233.54 1.877.987-.064 1.966-.073 2.955-.073.443 0 .457.01.84.032.192.003.385.004.577.004.297 0 .524.072.697.183l.145-.001h1.433c.696-.02 1.391-.036 2.087-.036l.232-.002c.159-.02.325-.035.423-.035h.945c.7 0 1.399.008 2.098.023l.075-.035.113-.041.119-.031.122-.018.127-.007h1.869c.194-.035.467-.072.602-.072h1.455.035c.393.011.788.036 1.184.064.031-.014.064-.026.098-.037.4-.134 1.114-.1 1.518-.1 1.146 0 2.31.013 3.453.114.461.04.93.092 1.39.15.095.012.25.032.399.058.07-.001.139-.001.208-.001.161 0 .897-.01 1.204-.014.196-.131.432-.208.685-.208.682 0 1.236.554 1.236 1.235 0 .248-.062.52-.227.762-.001.129-.019.298-.072.492-.084.309-.336.904-.388 1.191-.147.809-.289 1.627-.425 2.438v.544c.002.022.003.044.004.067.001.025-.001.056-.004.091-.002.126-.016.239-.04.341.008.186-.003.427-.008.519-.002.572-.046 1.132-.161 1.689-.014.117-.065.499-.119.677-.033.11-.074.206-.118.288l-.002.008c-.053.634-.584 1.133-1.232 1.133-.236 0-.456-.067-.644-.182l-.687.098-.013.005c-.32.12-1.035.485-1.607.614-.401.091-.77.081-1.073.003-.391.104-.806.202-1.158.241-.132.015-.26.021-.382.019-.175.067-.367.092-.572.07-.422.119-.844.231-1.265.325-.308.068-.869.114-1.097.131-.162.074-.364.121-.617.121-.752 0-1.532-.296-2.3-.708-.283-.022-.571-.056-.778-.107-.315-.079-.674-.194-1.046-.31-.358-.036-.694-.069-.969-.115-.3-.05-.974-.191-1.296-.285-.227-.066-.384-.147-.455-.192-.147-.092-.259-.193-.344-.298-.161-.105-.333-.275-.475-.558-.161-.324-.269-.781-.302-1.305-.036-.56.008-1.225.038-1.761-.047-.173-.09-.347-.122-.518-.101-.549-.107-1.072.003-1.519l-.018-.199c-.019-.118-.034-.234-.045-.342-.001-.012-.002-.024-.003-.037l-1.311.018-.59.007c-.623.073-1.358.149-1.582.131-.51-.04-.807-.265-.978-.52-1.319.084-2.647.208-3.928.432v.28c.022.687.059 1.374.094 2.061.1 2.005.434 4.17.446 6.26.223 1.381.448 2.762.582 4.13.98.189 1.97.428 2.956.692l.078.021c1.892.509 3.77 1.106 5.545 1.62 2.786.651 5.602 1.279 8.346 2.09 1.718-.716 3.626-1.436 5.06-1.502 2.75-.934 5.515-1.832 8.3-2.64.397-.116.793-.226 1.189-.335.213-.08.512-.157.811-.223.381-.105.761-.212 1.141-.323-.038-.256-.074-.511-.091-.769-.174-2.603.256-5.518.915-8.044l.007-.079v-.953c0-.636-.085-1.603-.047-2.49.034-.772.169-1.492.429-2.013.039-.077.081-.144.126-.203.033-.257.063-.515.084-.774l.035-.434c-.017-.073-.028-.157-.03-.253-.001-.087.065-.444.085-.548l.043-.438c.048-.599.099-1.198.159-1.796-.074-.139-.137-.312-.168-.518-.056-.364-.004-1.076-.001-1.164.024-.748.125-1.488.225-2.228-.002-.763-.008-1.525.017-2.288-3.151.12-6.302.407-9.43.619-1.157.079-2.324.043-3.486.053-.03.003-.059.004-.089.005-.157.002-.306.004-.45.004-.462.012-.923.035-1.382.08-.262.025-.514-.033-.727-.154-.218-.024-.374-.053-.476-.083-.616-.184-.828-.571-.921-.807-.16-.405-.239-1.112.592-1.624.571-.351 3.491-1.012 5.988-1.779 4.199-1.289 8.081-3.465 12.329-4.627v-3.508c-.138-1.175-.294-2.432-.323-3.619zm-20.83 7.36c.061.075.109.152.148.231.038.078.066.159.085.24-.033-.151-.102-.311-.233-.471zm-28.606-21.49c-.074-.092-.178-.185-.323-.269.126.073.234.165.323.27z" fill="#1c88c7"/></svg>