<svg xmlns="http://www.w3.org/2000/svg" viewBox="0 0 87.63 100"><defs><style>.cls-1{fill:#da6a3a;}</style></defs><title>icon-html</title><g id="Layer_2" data-name="Layer 2"><g id="Layer_1-2" data-name="Layer 1"><path class="cls-1" d="M86.8.228a2.027,2.027,0,0,0-1.858.143c-.206.079-.381.556-.524.572-.238.047-.524-.207-.778-.175C82.068.911,80.353.673,78.765.736c-1.6.048-3.207.064-4.81.064C67.953.831,61.984.689,56,.5,50.267.308,44.535.514,38.8.482c-5.636-.047-11.272.4-16.893.064C18.72.371,15.513.165,12.306.038A15.508,15.508,0,0,0,8.019.276C6.654.625,4.828.292,3.51.959A1.665,1.665,0,0,0,.573.847c-.841,1.27-.508,3.922-.508,5.4a60.072,60.072,0,0,0,.953,9.383c.794,4.684,2.349,9.669,2.111,14.48A166.878,166.878,0,0,0,4.352,59.892c.4,2.937,1.318,5.795,1.54,8.748q.381,5.336.73,10.669c.064,1.175.159,2.35.286,3.541A8.977,8.977,0,0,1,7.13,84.8c-.111.762-.683,1.174-.365,2.032.651,1.73,3.414,1.968,4.985,2.588,3.064,1.222,6.081,2.572,9.193,3.651,2.747.953,5.62,1.461,8.319,2.477,2.921,1.08,5.827,2.159,8.828,3,1.349.381,2.7.825,4.064,1.175A5.038,5.038,0,0,0,43.6,100a4.733,4.733,0,0,0,.666-.127.955.955,0,0,0,.588-.333c.238-.333.54-.349.921-.079.952-.334,2.349-1.445,3.413-1.445.54-.016.969.571,1.667.429a9.826,9.826,0,0,0,1.81-.842c3.017-1.238,6.414-1.937,9.558-2.889,3.207-.953,6.684-1.7,9.653-3.271A16.842,16.842,0,0,1,75.8,89.772c1.255-.318,3.144-.46,2.525-2.413,3.62-.826,1.873-10.622,2.191-12.987.778-5.811,1.6-11.622,2-17.5.508-7.129.683-14.257,1.016-21.386a47.494,47.494,0,0,1,.683-8.367,7.259,7.259,0,0,0,.508-1.746c-.016-.683-.27-1.159-.27-1.858a34.214,34.214,0,0,1,.635-4.683c.492-3.589,1-7.193,1.493-10.8.174-1.254.333-2.508.492-3.778S88.386,1.054,86.8.228ZM70.954,19.9c-.54,3.255-.9,6.541-1.222,9.812a105.693,105.693,0,0,0-10.765.048c-3.239.174-6.477.127-9.716.285-3.684.175-7.335.016-11.035-.031a34.609,34.609,0,0,1-5.286-.127c-1.382-.239-3.985-1.525-4.7.555-.365,1.064.572,3,.619,4.176.048,1.429-.333,3.175.207,4.509.412,1.032.841,1.095,1.81,1.286a6.381,6.381,0,0,1,1.016.111c.286.095.571.4.9.508,1.54.46,3.874,0,5.493-.016a36.18,36.18,0,0,0,4.557.191c1.3-.127,2.6-.175,3.921-.223,2.318-.079,4.652-.127,6.97-.19,5.1-.143,10.463.286,15.495-.413a20.631,20.631,0,0,0-.571,4.731,29.494,29.494,0,0,1-.762,3.3c-.349,2.111-.365,4.318-.524,6.445-.3,3.89-.619,7.764-.857,11.638-.08,1.381-.175,2.747-.27,4.112a17.481,17.481,0,0,1-.207,2.747c-.19.809.127.46-.54.968a6.339,6.339,0,0,1-1.635.524c-3.731,1.159-7.509,2.175-11.288,3.175-1.953.524-3.906,1.048-5.843,1.6a22.352,22.352,0,0,1-2.619.762,3.607,3.607,0,0,1-2.334-.445c-3.175-1.3-6.414-2.349-9.685-3.492-2.524-.874-5.1-1.636-7.636-2.461-.477-.159-2.35-.461-2.684-.889-.476-.588-.285-3.017-.349-3.811q-.119-1.167-.238-2.334c-.349-3.159-.81-6.414-1.064-9.494,3.573-.016,7.145-.047,10.7-.032-.127,1.89.365,3.89.349,5.8,0,1.985.794,2.144,2.779,2.715,2.064.6,4.175,1.1,6.207,1.826,2.16.762,3.382,1.429,5.573.572a5.016,5.016,0,0,1,1.635-.334,3.506,3.506,0,0,0,1.477-.27,18.54,18.54,0,0,1,3.937-1.73c.921-.175,1.667-.032,2.382-.794.809-.873.524-1.81.524-2.826a32.108,32.108,0,0,1,.905-7.287c.254-1,.73-2.366-.048-3.334a1.719,1.719,0,0,0-2.874.333c-1.27-1.54-4.255-.778-6-.857-2.35-.127-4.684-.254-7.017-.27-2.033-.032-4.065-.048-6.1.031-1.159.048-1.492.508-2.445.763a15.608,15.608,0,0,1-3.525-.128c-1.444-.047-2.905-.063-4.35-.079-1.048,0-2.095-.016-3.127-.016a8.676,8.676,0,0,1-1.572,0c-.286-.27-.207-1.841-.27-2.318q-.453-3.9-1-7.811a11.852,11.852,0,0,1-.4-2.763c.032-.285.4-.746.46-1.095a9.054,9.054,0,0,0-.27-2.6c-.587-4.572-1.651-9.176-1.921-13.781a6.566,6.566,0,0,1,0-2.429c.3-.476,1.477-.27,2.08-.3a9.862,9.862,0,0,1,1.524-.08,6.649,6.649,0,0,1,1,.334,12.139,12.139,0,0,0,3.414.365c6.89.095,13.749-.429,20.639-.492,3.922-.048,7.828-.048,11.749-.064h3.731c1.524,0,3.556.334,5.017,0a12.157,12.157,0,0,1,3.414-.524c.857,0,1.73,0,2.6.032C71.16,18.709,71.049,19.344,70.954,19.9Z"/></g></g></svg>