<svg clip-rule="evenodd" fill-rule="evenodd" stroke-linejoin="round" stroke-miterlimit="2" viewBox="0 0 51 76" xmlns="http://www.w3.org/2000/svg"><path d="m13.102 25.095c-.542-.027-1.083.097-1.621.266-.151.003-.296.052-.417.137-.158.055-.316.111-.473.165-.319-.064-.686-.028-1.056.086-.435.133-.88.374-1.179.507-.029.013-.058.026-.087.04-.157-.001-.317.029-.478.087-.352.126-.719.436-.951.59-.014.01-.028.019-.042.028-.048.014-.086.026-.105.033-.46.167-.942.542-1.331.824-1.048.758-2.203 1.808-2.675 3.033-.001.003-.002.005-.003.007-.728.97-1.315 2.108-1.633 3.222-.017.06-.03.122-.041.185-.05.133-.097.269-.141.406-.029.091-.069.209-.11.341-.034.063-.059.132-.074.206-.01.051-.02.101-.029.152-.043.169-.078.343-.089.504-.001.027-.003.053-.003.08-.057.43-.089.873-.097 1.319-.07.106-.115.231-.124.367-.054.879.057 1.715.297 2.526-.002.05.001.1.009.151.497 3.074 2.673 6.07 5.121 7.954.141.108.309.158.475.154l.007.004c1.212.758 2.677 1.299 4.132 1.466.959.25 1.951.321 2.953.364.773.13 1.544.231 2.342.231.123 0 .239-.03.342-.084.656.046 1.307.069 1.97.036.202-.01.658-.024.859-.125.054-.027.103-.059.147-.096.084.026.37.104.529.127.148.021.266.008.33-.006l.012-.003c.392.051.79.081 1.203.081.279 0 .555-.012.831-.026.105.033.23.045.377.015.04-.008.089-.021.146-.045.093-.006.185-.011.278-.015.252-.013.508 0 .76 0 .126 0 .27-.014.415-.029.079-.009.159-.03.227-.02.123.046.403.144.539.143.245-.001.442-.094.589-.241.114-.114.203-.268.231-.469.016-.118-.037-.406-.061-.526-.002-.105-.01-.211-.022-.317.002-.421.026-.84-.002-1.258 0-.006 0-.011-.001-.017.126-.14.199-.327.19-.529-.034-.791-.064-1.581-.087-2.372.006-.293.001-.585-.024-.876-.044-1.787-.057-3.575-.029-5.365.015-1.004 0-2.01 0-3.014 0-.226-.023-.469-.029-.71.023-.079.033-.162.028-.249-.004-.059-.007-.118-.01-.176.007-.057.017-.112.03-.166.044-.182.018-.364-.062-.518l-.002-.058-.001-.014.001-.01c.009-.078.006-.156-.009-.229-.072-2.221.009-4.44.078-6.655.005-.168-.046-.325-.136-.453.029-.183-.011-.374-.118-.532.021-.105.033-.208.025-.279-.024-.208-.111-.382-.248-.519-.104-.104-.243-.188-.425-.225-.094-.019-.326-.002-.461.01-.285-.104-.608-.141-.946-.13-.41.013-.848.104-1.204.104-1.987 0-3.942.037-5.922.19-.838.064-1.983-.095-2.794.164-.043.014-.083.031-.121.051z" fill="#a259ff"/><path d="m12.731 49.956c-1.161.073-2.417.4-3.086.623-.111.037-.688.232-1.123.46-.008.005-.017.009-.025.013-.164-.052-.347-.048-.518.026-1.527.654-2.901 1.34-3.976 2.655-.168.205-.344.485-.474.789-.501.536-.934 1.128-1.261 1.69-.037.064-.209.421-.358.81-.664.991-1.127 2.139-1.296 3.237-.102.667-.156 1.3-.171 1.96-.325 1.238-.122 2.501.388 3.656.548 1.774 1.161 3.394 2.503 4.81.112.119.262.308.432.504.082.19.221.372.409.531.259.22.642.397.856.536.23.148.462.299.696.448.336.288.715.556 1.119.797.169.144.362.272.571.382.449.237.976.397 1.391.535 1.817.606 3.805.943 5.704.675.329.003.679-.049.934-.091.656-.11 1.437-.294 2.127-.6.018-.001.034-.003.049-.006.721-.131 1.487-.768 2.059-1.161 1.057-.727 2.078-1.615 2.853-2.648.062-.083.105-.176.128-.271.025-.031.05-.061.075-.09.666-.785 1.316-1.594 1.91-2.434.166-.236.176-.535.052-.774.266-.61.555-1.235.633-1.903.015-.134-.006-.264-.056-.38.464-1.65.18-3.352.016-4.988-.01-.102-.019-.204-.026-.307.082-1.708.178-3.417.178-5.126 0-.603.001-1.206-.016-1.808-.003-.104-.034-.397-.042-.477.07-.204.046-.425-.056-.606.026-.202.053-.404.08-.607.056-.407-.229-.783-.637-.839-.225-.031-.442.043-.599.185-.074-.025-.153-.038-.235-.038-3.462 0-7.137.095-10.61-.357-.226-.029-.442.046-.598.189z" fill="#0acf83"/><path d="m35.864 25.56c-.107.028-.214.059-.319.093-.037-.003-.076-.003-.114 0-.74.057-1.591.001-2.283.297-.858.368-1.525.966-2.124 1.643-1.099.538-2.02 1.268-2.866 2.333-.529.666-.941 1.417-1.24 2.217-.931 1.098-1.371 2.499-1.442 3.97-.001.024-.002.047-.003.07-.149.429-.226.882-.229 1.395-.15.274-.252.579-.313.907-.222 1.181.153 2.685.648 3.71.207.43.431.814.67 1.159.21.63.472 1.247.795 1.815.596 1.046 1.397 1.922 2.426 2.436.18.091.38.101.559.044.759 1.003 1.774 1.465 2.86 1.556 1.026.714 2.192 1.106 3.427.992.061.031.129.056.201.077.228.067.548.071.738.087 1.084.09 2.023.063 3.066-.339.047-.017.093-.036.139-.054.151-.026.319-.058.353-.073.24-.103.472-.227.701-.355.136.102.314.171.542.174.179.002.443-.057.72-.17.469-.191 1.007-.524 1.05-.557 1.585-1.212 3.022-2.607 4.31-4.13.072-.085.122-.182.15-.283.816-.591 1.382-1.335 1.74-2.48.044-.141.311-1.81.186-2.429-.032-.162-.083-.294-.148-.402l-.014-.15c.005-.165.004-.332-.001-.501-.006-.166-.016-.334-.03-.502.007-.531.041-1.06.041-1.597 0-1.337-.454-2.777-1.157-4.049-.244-.684-.602-1.313-1.189-1.924-.011-.025-.022-.048-.033-.068-.077-.139-.171-.239-.27-.309-.009-.015-.018-.029-.027-.044-.202-.323-.72-.987-1.241-1.331-.035-.023-.071-.045-.106-.065-.105-.127-.214-.25-.331-.367-.025-.025-.085-.084-.16-.152-.26-.307-.525-.612-.82-.827-.301-.219-.628-.363-.996-.397-.826-.49-1.615-.794-2.413-.969-1.589-.799-3.305-.955-5.161-.579-.109.022-.207.066-.292.128z" fill="#1abcfe"/><path d="m27.031.641c-.219-.014-.44-.018-.656-.044-.076-.029-.196-.073-.254-.085-.133-.027-.247-.018-.332.001-.163.034-.287.112-.382.207-.064.064-.206.221-.224.515-.011.176.085.908.085 1.062 0 1.158.026 2.356.026 3.522 0 .52-.069 1.045-.078 1.572-.011.047-.018.097-.02.148-.045 1.114-.181 2.25-.144 3.366.09 2.713.205 5.414.13 8.13-.021.749-.023 1.506.011 2.259-.047.081-.084.179-.103.292-.022.131.008.434.015.503.018.393.024.791.024 1.185 0 .447.026 1.001.11 1.448.007.094.026.344.042.401.085.306.287.426.39.478.11.055.254.094.418.099.095.002.282-.016.326-.021.407.033.813.049 1.221.065 1.478.057 2.948.037 4.428.013 1.613-.026 3.232-.027 4.845-.091.109-.005.213-.033.305-.079.348-.02.692-.054 1.034-.1.124.079.272.123.431.117.639-.024 1.281-.186 1.91-.413.245.11.541.084.766-.094.195-.153.448-.263.67-.377.16-.031.342-.074.368-.084.376-.141.76-.305 1.104-.517.366-.225.707-.473 1.031-.738.339-.173.692-.489.86-.623.111-.089.224-.157.328-.255 1.284-1.221 2.452-2.54 3.218-4.161.176-.373.339-.737.456-1.125.041-.055.075-.118.1-.186.059-.162.113-.322.161-.482.107-.271.204-.55.288-.844.041-.144.037-.29-.004-.424.011-.074.021-.149.03-.224.22-.927.325-1.878.406-2.834.018-.216-.058-.419-.194-.567 0-.049.001-.099.001-.149 0-.121 0-.376-.058-.547-.001-.006-.003-.011-.005-.017-.013-.171-.031-.343-.054-.517-.106-.813-.421-1.599-.757-2.338-.082-.179-.167-.356-.256-.529-.003-.016-.006-.031-.01-.047-.22-.879-.955-1.659-1.569-2.33-.718-.862-1.54-1.638-2.443-2.361-.413-.331-.884-.524-1.325-.789-.283-.17-.596-.41-.923-.475-.1-.02-.19-.075-.28-.128-.051-.048-.103-.094-.156-.135-.316-.241-.667-.353-1.025-.295-.033.006-.066.013-.098.023l-.021-.005c-.137-.081-.31-.152-.511-.199-.382-.091-.918-.114-1.161-.163-1.747-.349-3.491-.388-5.28-.303-.055.003-.109.005-.163.007-.076-.059-.169-.109-.281-.142-.137-.04-.488-.03-.488-.03s.023-.001.031-.001c-.415 0-.822.025-1.236.054-.373.027-.745.054-1.116.08-.366-.028-.73-.063-1.087-.103-.228-.025-.443.055-.597.201-.587.026-1.175.039-1.766.03-.197-.003-.377.071-.512.193z" fill="#ff7262"/><path d="m10.51.778c-1.792.132-3.773 1.189-5.137 2.228-.308.235-.851.693-1.151 1.159-.069.108-.127.217-.172.326-.609.564-1.18 1.169-1.588 1.893-.013.023-.439.724-.583 1.12-.509.616-.852 1.41-1.028 2.282-.012.06-.024.12-.034.18-.035.07-.066.143-.093.219-.081.23-.112.495-.176.751-.304 1.215-.447 2.838.073 4.008l.002.003c-.046.308-.023.644.055.985.034.151.079.303.13.453.008.101.026.204.053.309.108.41.409.864.531 1.162.379.926.89 2.177 1.593 3.166.537.757 1.191 1.361 1.954 1.647l.004.002c.307.349.637.67.988.921.483.346 1.001.574 1.549.623.017.012.034.025.05.037.098.073.201.139.309.197.608.423 1.357.637 2.132.736.199.051.401.076.607.087.336.017.685-.017 1.05.028.509.064.976.309 1.497.374.721.091 1.613.059 2.333.004.366-.028.729-.067 1.091-.11.984.06 1.975.31 2.994.235.634-.047 1.379-.189 2.068-.168.228.051.452.079.683.09.048.013.094.027.14.042.2.066.409.043.582-.048.359-.018.713-.049 1.074-.049.086 0 .601.004.757-.043.162-.049.27-.131.338-.2.077-.077.186-.213.216-.44.008-.059-.013-.288-.023-.384-.001-.18-.011-.359-.018-.538.075-.116.118-.254.118-.401 0-1.004-.082-2.003-.087-3.006-.001-.118-.029-.229-.078-.327-.006-1.189-.019-2.379-.033-3.567.126-.139.2-.325.193-.526-.023-.651-.052-1.301-.085-1.951.066-.104.107-.227.114-.359.106-1.945.073-3.896.113-5.843.013-.594.011-1.185.011-1.778v-.622c0-.052-.004-.104-.002-.156.008-.032.013-.065.017-.099.016-.157-.004-.284-.045-.387 0-.296-.001-.591-.001-.887 0-.428-.03-.855-.03-1.283 0-.043-.005-.145-.007-.204.071-.188.061-.396-.022-.576.027-.119.052-.238.07-.358.026-.164.048-.366.02-.534-.012-.07-.038-.167-.1-.271-.059-.1-.199-.248-.283-.307-.274-.191-.534-.145-.656-.109-.061.019-.118.044-.171.075-.045-.005-.09-.01-.146-.01-.379 0-.762-.004-1.132.029-1.161-.001-2.398-.016-3.545-.18-.143-.02-.804.026-.939.036-.166-.041-.34-.023-.492.047-.928-.07-1.858-.008-2.786.021-.167-.049-.333-.091-.489-.107-1.016-.107-2.179-.121-3.183.072-.081.015-.734.125-1.194.281z" fill="#f24e1e"/></svg>