<svg clip-rule="evenodd" fill-rule="evenodd" stroke-linejoin="round" stroke-miterlimit="2" viewBox="0 0 85 76" xmlns="http://www.w3.org/2000/svg"><path d="m25.633.626c-.28-.005-.606-.001-.824.035-.399.067-.912.266-1.402.492-.874.011-1.71.141-2.262.384-.429.188-.742.45-.947.742-.088.088-.708.712-.941 1.1-.129.215-.268.455-.407.705-.139.077-.278.193-.408.362-.061.08-.17.255-.263.516-.077.215-.178.569-.269.893-.216.11-.429.311-.569.673-.026.069-.118.572-.157.766-.058.289-.106.611-.151.927-.055.137-.113.363-.102.657-.057.264-.091.529-.091.793 0 .152.017.287.048.405-.085.56-.151 1.122-.154 1.68l-.053.23c-.043.196-.097.462-.104.598-.009.184.011.349.05.494v.471c-.14.903-.299 1.945-.324 2.833-.026.889.095 1.658.348 2.164.151.303.334.481.503.589l.176.529c.015.046.033.09.054.133l.044.655c-.051.212-.076.529-.027.914.018.149.048.319.084.499.023.381.123.943.123.943.037.199.121.379.238.53l.078.279.068.236c-1.339.33-2.752.989-3.707 1.562-.087.052-.175.105-.262.158-.299.101-.596.205-.884.319-.075-.014-.154-.022-.237-.024-.268-.009-.7.071-1.226.296-.611.261-1.454.741-2.326 1.303-.447.12-.903.298-1.228.504-.388.247-.635.556-.767.851-.123.063-.232.121-.323.173-.501.045-1.093.321-1.663.825-.795.703-1.639 1.943-2.158 2.332-.275.206-1.31 1.387-1.478 1.623-.219.31-.27.601-.249.844-.111.158-.21.319-.293.484-.183.145-.326.342-.404.578 0 0-.11.373-.2.83-.143.154-.257.359-.325.632-.367 1.465.079 2.781.927 3.897l.044.055c.057.435.335.791.71.964-.012.145-.005.299.026.461.067.357.301.836.705 1.323.633.763 1.715 1.649 2.481 2.111.553.333 1.039.455 1.294.455.068 0 .132-.004.194-.013.367.381.92.915 1.079 1.029.919.656 2.016 1.211 3.033 1.72.63.315 1.914.893 1.914.893.111.05.224.082.339.098.908.414 1.856.814 2.731 1.252.325.162.894.358 1.25.475.038.033.08.065.125.096.077.053.248.149.499.231.041.013.087.028.137.043-.029.127-.056.254-.081.381-.016.049-.028.1-.037.152 0 0-.13.728-.173 1.095-.019.165-.031.33-.04.494l-.035.274c-.015.125-.03.25-.045.374l-.04.352c-.027.18-.133.904-.126 1.186-.095.785-.174 1.573-.198 2.356l-.081.22c-.007.016-.02.065-.035.129l-.038.163c-.022.1-.043.201-.053.262-.047.281-.077.586-.061.879l-.007.226-.003.337v.557c-.01.123-.039.491-.025.584.007.046.015.089.026.129l-.001.453c0 .089.001.161.003.223-.132.182-.223.429-.231.765-.003.165.076.684.155 1.153.04.451.084.94.094.994.205 1.092.558 2.221 1.011 3.265.111.307.232.611.368.908v.013c0 .258.074.557.282.847.066.093.194.218.324.334.056.113.152.274.293.452.327.413 1.012 1.114 1.079 1.182.02.02.044.041.073.064.486.712 1.084 1.271 1.796 1.556.035.014.354.1.661.124.263.02.514-.009.638-.042.038-.01.075-.022.11-.035.139.091.303.173.49.233.028.016.057.031.087.046.172.082.89.188.89.188s-.053-.006-.06-.007c.427.061.935.119 1.387.066h.242c.491 0 1.001-.123 1.468-.279.762-.254 1.168-.248 2.009-.458.092-.023.193-.069.291-.124.426 0 .965-.176 1.507-.531.162-.105.327-.228.491-.36.083-.039.167-.089.253-.152.054-.041.135-.104.234-.183h.002c.355-.064 1.07-.521 1.242-.633.314-.197.614-.406.911-.621l.098.003c.285 0 .655-.099 1.023-.33.346-.218.736-.595.919-.736.555-.429 1.28-.922 1.96-1.456.272-.198.562-.46.562-.46s-.02.019-.028.026c.614-.552 1.232-1.056 1.875-1.562.3-.236.592-.483.867-.748.123.129.213.221.247.252.342.307.681.62 1.022.933.094.233.285.463.64.641l.154.079c.651.579 1.32 1.14 2.036 1.641.524.366 1.034.638 1.594.918.071.061.393.333.524.418.276.18.536.235.714.244.11.006.213 0 .311-.018 1.122.693 2.281 1.328 3.545 1.788.285.104 2.472 1.308 3.024 1.433.268.061.495.048.682 0 1.237.211 2.657.135 3.758.135.253 0 1.203-.04 1.755-.305.243-.117.442-.264.595-.436.084-.02.169-.047.255-.083.279-.115.613-.363.916-.728.078-.094.156-.197.232-.305.371-.28.764-.67 1.012-1.042.577-.865.951-1.777 1.234-2.737.213-.49.366-.947.444-1.334.024-.121.03-.24.019-.357.332-.321.624-.85.751-1.554.087-.483.12-1.075.128-1.639.073-.499.193-1.543.193-1.707 0-.084-.001-.168-.003-.251.085-.125.154-.28.197-.473.033-.147.126-1.212.126-1.623v-2.454c0-1.229-.302-2.517-.696-3.782-.064-.605-.163-1.206-.288-1.803.934-.37 2.209-1.136 3.118-1.687.565-.186 1.087-.386 1.428-.584.071-.041.138-.084.201-.128.259-.096.486-.189.546-.215.941-.403 1.776-.887 2.572-1.437 1.258-.318 2.316-1.066 3.33-1.824.345.043.763-.025 1.221-.314.21-.132.459-.33.723-.564.33-.171.646-.43.932-.77.128-.151.25-.322.368-.505.62-.658 1.123-1.258 1.194-1.401.151-.302.191-.562.166-.786.024-.034.047-.068.07-.103.165-.254.32-.536.455-.8l.06-.084c.492-.283.806-.842.852-1.656.043-.772-.227-1.899-.401-2.529.045-.139.074-.305.074-.504 0-.154-.039-.364-.139-.605-.063-.34-.171-.688-.317-1.034-.404-.953-1.099-1.913-1.488-2.562-.162-.27-.597-.659-.987-.977v-.001c-.063-.144-.151-.287-.266-.426-.258-.312-.754-.653-1.357-.927-.311-.142-.652-.272-.976-.385-.092-.178-.232-.362-.439-.53-.272-.221-.836-.492-1.217-.674-.129-.147-.296-.266-.491-.34l-.013-.005c-.43-.299-.993-.684-1.459-.942-.119-.066-.236-.124-.349-.174-.738-.48-1.547-.964-2.275-1.253-.284-.112-.56-.195-.825-.249-.186-.076-.38-.152-.569-.223-.049-.304-.224-.699-.785-.914-.091-.035-.758-.15-1.015-.201-.767-.154-1.228-.344-2.05-.47-.121-.019-.241-.039-.361-.059.001-.05.001-.094-.001-.134.1-.135.206-.333.253-.6.037-.204.027-.599.027-.79 0-.016.002-.039.005-.069.022-.08.05-.184.08-.302.325-.145.622-.448.716-1.04.041-.261.01-.839-.104-1.523-.028-.165-.059-.338-.092-.514.121-.137.209-.324.242-.577.02-.162.113-.975.113-.989 0-.595.042-1.21-.003-1.802-.087-1.122-.238-2.301-.51-3.416-.014-.197-.024-.326-.024-.326-.012-.142-.048-.277-.103-.4v-.564c0-.111-.002-.223-.006-.335.288-.314.405-.768.271-1.203l-.344-1.118c.081-.21.122-.489.035-.838-.112-.45-.829-2.102-1.24-2.861-.181-.335-.354-.554-.439-.636-.257-.248-.514-.348-.744-.372-.093-.184-.234-.348-.418-.47-.273-.183-.735-.749-1.157-1.082-.215-.307-.652-.615-.752-.665-.166-.083-1.232-.491-1.741-.564-.287-.041-.531-.009-.728.055-.181-.126-.432-.214-.777-.214-.14 0-.359.06-.587.141-.119.033-.26.073-.321.095-.338.123-.322.089-.669.205-.479.159-.957.311-1.429.485-.132-.042-.282-.067-.448-.065-.248.004-.661.139-.761.172-.643.215-1.279.491-1.905.8-.078.01-.16.027-.243.051-.296.086-.943.484-1.023.533-.715.38-1.421.788-2.105 1.22-.441.279-.402.259-.841.495-.152.082-.515.262-.622.346-.144.112-.234.226-.291.313-.045.068-.082.134-.113.199-.359.248-.705.499-1.032.73l-.368.256c-.152.104-.298.215-.442.329l-.457.367-.102.08c-.072.04-.509.285-.605.362-.118.095-.2.19-.256.27-.125.086-.246.172-.337.24-.467.35-.916.714-1.363 1.083-.352.162-.711.391-1.063.666-.183-.137-.38-.25-.585-.346-.097-.075-.195-.15-.293-.224-.006-.217-.097-.444-.32-.673-.159-.163-.983-.981-1.052-1.05-.155-.155-1.148-1.07-1.923-1.666-.464-.356-.891-.598-1.126-.671-.212-.067-.402-.085-.571-.071l-.261-.139-.132-.067c-.024-.379-.222-.74-.559-.961 0 0-1.473-.959-2.257-1.351-1.459-.729-2.75-1.107-4.11-1.561-.477-.158-1.538-.552-1.826-.604-.331-.06-.563.004-.679.044-.257.087-.443.216-.574.372zm8.276 71.804-.02.013c-.003.001-.005.003-.006.003l.01-.006.016-.01c.009-.007.014-.01.014-.01zm28.844-19.071c-1.145.238-2.931.532-3.837.58-.385.087-.765.154-1.125.19-.557.056-1.68.005-1.68.005l-.016-.001c-.257.046-.513.086-.766.118-.173.021-.395.031-.625.034-.943.238-1.886.468-2.849.615-.084.034-.163.058-.237.073-.222.389-.457.77-.748 1.069l-.009.016c-.007.026-.016.051-.025.077-.046.125-.371.566-.371.566s.038-.05.051-.069c-.206.309-.219.262-.419.575-.341.529-.705 1.03-1.081 1.527-.151.238-.308.473-.478.699-.377.503-.385.45-.754.917-.03.054-.224.401-.302.518-.163.243-.344.378-.449.441-.104.063-.205.11-.303.143-.101.3-.315.562-.621.715-.205.103-.393.242-.569.401-.033.136-.1.297-.232.473-.126.168-.26.33-.399.488.248.157.496.315.741.478 1.834 1.223 4.184 2.764 5.736 4.316.157.156.254.309.314.449.635.186 1.258.451 1.872.758.718.254 1.498.558 1.94.825.293.178.501.383.645.588.449.233.9.438 1.355.584.385-.132.767-.286 1.14-.41.309-.103.677-.125 1.067-.079.162.019.44.056.581.076.127-.112.206-.282.326-.411.259-.28.552-.519.913-.679.183-.189.963-.991 1.495-1.507-.008-.151.012-.305.062-.457.135-.406.32-.684.526-.87.075-.339.169-.654.288-.892.24-.479.279-1.137.282-1.828.005-1.351-.199-2.816-.199-3.806 0-.328.013-.771.03-1.209-.055-.348-.106-.821-.114-.897-.366-1.587-.706-3.18-1.06-4.773-.009-.041-.045-.196-.096-.426zm-41.14-.089c-.104.411-.209.822-.292 1.236-.057.283-.048.87-.115 1.173-.047.212-.123.384-.206.519l-.062.372-.043.271c-.075.914-.205 1.82-.297 2.73v.833l-.001.035c-.005.275-.033.506-.079.697.044 1.877.13 3.764.168 5.619.151.334.442.989.584 1.38.085.234.175.478.27.724.256.131.528.313.799.549.311.271.647.623.966.971.171-.033.358-.027.564.027.15.04.385.134.614.359.1.098.245.289.355.437.161.055.352.115.501.147.334.072.675.123.967.162.195-.106.348-.183.394-.197.807-.23 1.551-.533 2.377-.671l.08-.014c.214-.088.431-.18.553-.253.706-.423 1.421-.824 2.166-1.073l.368-.122c.442-.331.875-.657 1.29-.941.182-.243.452-.417.761-.475.065-.036.129-.07.192-.101.494-.247.969-.535 1.439-.822.308-.275.605-.566.906-.866.812-.812 1.534-1.69 2.29-2.54-.196-.24-.39-.483-.586-.725-.536-.535-1.117-1.047-1.539-1.68-.043-.065-.093-.142-.144-.226-.635-.687-1.518-1.845-1.518-1.845-.201-.265-.281-.587-.244-.895-.782-.889-1.567-1.774-2.358-2.653-.05-.055-.187-.237-.34-.447-.077-.078-.187-.171-.307-.269-.179.037-.39.058-.635.062l-.03.001h-.921c-.116 0-.229-.006-.339-.015-.632-.017-1.261-.052-1.903-.116-.504-.051-1.808-.228-1.986-.287-.181-.061-.324-.142-.437-.234-.61-.065-1.256-.149-1.71-.25-.08-.018-.641-.172-1.003-.292-.056.015-.117.026-.182.033-.122.014-.358.015-.656-.075-.17-.052-.427-.154-.671-.253zm15.636 1.879c.449.463.874.962 1.288 1.478.492.596.971 1.216 1.44 1.836.26.29.518.581.775.874.404.405.797.821 1.141 1.281.31-.317.553-.561.65-.67.084-.095.567-.576 1.038-.936 1.071-1.078 2.1-2.206 3.108-3.359-.82-.043-1.65-.18-2.373-.144-.099.005-.196-.002-.29-.02-.57-.023-1.184-.081-1.771-.151-.504.027-.925.044-1.162.044-.234 0-1.321.134-1.864.075-.33-.036-.588-.141-.774-.257-.403-.019-.805-.038-1.206-.051zm12.91-30.297c-.027-.002-.054-.005-.081-.007-.438-.04-1.375-.128-1.954-.195-.196.072-.413.095-.633.058 0 0-.517-.089-.778-.113-.973-.088-1.963-.072-2.94-.121-2.268-.113-4.518-.247-6.792-.247h-.002c-.412.035-.825.074-1.24.118-.021.002-.623.098-1.214.177-.069.072-.138.144-.208.214-.094.093-.187.168-.278.227l-.22.333-.375.578c-.394.723-.828 1.475-1.279 2.093-.418.574-.865 1.042-1.305 1.354.041.279-.012.573-.172.831-.501.81-.851 1.655-1.345 2.459-.035.741-.413 1.637-.98 2.529-.467.736-1.063 1.485-1.5 2.127.998 1.966 2.084 3.925 2.923 5.963.167.404.324.887.496 1.385.133.26.367.768.387.829.048.145.11.3.188.445.046.085.074.187.151.225.375.188.644.527.747.957.049.205.048.43.018.634.76 1.225 1.656 2.42 2.482 3.585.805.04 1.552.243 2.352.243.406 0 1.289.143 1.777.249h6.697c.598 0 1.13-.042 1.715-.115 1.19-.149 2.305-.351 3.434-.487.097-.282.226-.584.384-.896.659-1.295 1.816-2.875 2.247-3.592.11-.184.483-.921.844-1.326.188-.466.383-.956.593-1.418.384-.843.825-1.598 1.31-2.082.023-.023.045-.045.068-.065l.02-.04c.093-.186.189-.371.287-.554-.005-.092 0-.193.02-.302.016-.094.065-.275.179-.487.138-.257.451-.721.467-.743.294-.412.219-.403.454-.834.142-.261.289-.517.437-.772-.194-.38-.387-.881-.5-1.161-.133-.333-.256-.656-.39-.974l-.181-.32c-.038-.031-.076-.065-.114-.104-.393-.392-.721-1.001-.979-1.69-.253-.673-.441-1.437-.695-1.946-.095-.121-.168-.262-.213-.418-.074-.149-.165-.333-.263-.534-.062-.027-.124-.06-.185-.098-.191-.119-.406-.324-.575-.638-.16-.298-.269-.894-.446-1.159-.1-.15-.233-.342-.377-.557-.049-.052-.099-.112-.147-.18-.133-.187-.338-.586-.454-.783l-.137-.207c-.1-.072-.2-.166-.296-.287-.131-.165-.358-.588-.595-1.056l-.211-.321c-.143-.094-.267-.22-.363-.374 0 0-.102-.164-.26-.41zm9.403 17.417c-.041.102-.087.22-.132.331-.056.181-.114.361-.177.536-.311.871-.718 1.654-1.253 2.189-.088.088-.175.158-.259.214-.037.095-.09.207-.161.327-.162.272-.557.788-.662.924l-.199.334-.117.207c.001.09-.007.185-.026.286-.039.203-.19.526-.276.698-.353.706-.876 1.381-1.301 2.049-.038.061-.076.121-.114.182l.053-.005c.655-.06 1.315-.138 1.974-.202.364-.092.729-.18 1.095-.257.595-.158 1.198-.301 1.743-.378.51-.072.983-.083 1.397-.037.126-.023.253-.045.379-.065-.212-.937-.39-1.894-.67-2.734-.298-.894-.581-1.793-.861-2.69-.167-.534-.36-1.521-.433-1.909zm-34.812-.15c-.172.649-.33 1.254-.497 1.698-.251.671-.743 2.017-.743 2.017-.098.268-.28.485-.51.627l-.05.141c.025.149.025.32-.013.516-.028.15-.227.584-.375 1.03-.052.154-.1.31-.146.467l-.034.156c-.011.051-.022.102-.034.152.794.111 1.68.253 2.115.384.373.112.648.283.846.476 1.222.314 2.461.479 3.695.632-.487-.649-.95-1.305-.95-1.305-.183-.26-.252-.567-.217-.861-.237-.329-.435-.604-.532-.743-.475-.678-1.328-2.101-1.328-2.101-.195-.325-.224-.705-.108-1.04-.087-.134-.164-.26-.229-.376-.336-.596-.514-1.22-.849-1.806-.011-.02-.025-.041-.041-.064zm40.784-14.298c-.032.078-.068.148-.107.211-.2.714-.4 1.428-.604 2.142-.221.772-.634 2.325-.634 2.325-.078.294-.256.535-.487.696-.035.073-.075.157-.121.256-.562 1.204-1.006 2.478-1.448 3.729-.154.437-.231.638-.315.841.051.097.103.195.155.294l.037.044c.247.307.514.964.659 1.344.101.223.197.448.284.673.455.904 1.354 2.211 1.773 3.361.193.529.293 1.039.292 1.504.03.215.053.453.088.633.366.71.8 1.606.933 2.178.021.09.037.178.047.262.921-.33 1.854-.646 2.779-.955.069-.022.144-.053.224-.09.517-.305 1.171-.681 1.171-.681.217-.125.457-.177.69-.163.199-.104.39-.2.546-.269.507-.225 1.163-.775 1.804-1.17.667-.41 1.339-.668 1.896-.68.15-.148.299-.298.45-.444.576-.561 1.17-1.084 1.821-1.462.305-.313.614-.614.88-.868.295-.416.626-.831.921-1.153l.024-.025c.225-.498.423-.972.624-1.441-.123-.171-.256-.445-.274-.827-.011-.242.047-.804.078-1.073-.179-.445-.578-1.295-1.005-2.039-.144-.251-.347-.543-.499-.752-.712-.292-1.742-.769-2.233-1.261-.26-.26-.354-.51-.384-.709-.007-.002-.013-.005-.02-.008-.453-.186-1.239-.718-1.642-.92-.941-.471-1.893-.886-2.835-1.356-.068-.017-.671-.173-.881-.267-.076-.034-.145-.07-.207-.109-1.26-.273-2.514-.552-3.679-1.134-.316-.159-.479-.366-.57-.549l-.068-.026c-.054-.021-.108-.042-.163-.062zm-46.926-.105c-.322.083-.643.156-.962.215-1.035.381-2.064.739-3.122 1.067l-.347.174-.457.231c-.631.395-1.256.813-1.951 1.091-.151.06-.347.13-.551.199l-.978.502-.197.1c-.119.166-.304.378-.548.599-.457.415-1.158.951-1.643 1.263-.296.189-.554.307-.717.361-.041.035-.072.06-.091.074-.186.133-.369.267-.548.403-.189.312-.423.624-.744.946-.161.16-.32.266-.472.332-.142.681-.635 2.184-.759 3.442-.011.112-.013.241-.009.366.296.151.606.369.91.656.856.81 1.815 2.226 2.277 2.688.275.275.681.658 1.053 1.002.141.055.296.127.457.216.446.25 1.012.652 1.104.706.389.227.774.463 1.156.703.404.217.806.436 1.202.662.303.173.964.543 1.262.782.062.05.117.1.166.15l.126.052.997.414c.039-.001.079 0 .12.002.09.005.561.093 1.609.339.47.111.933.251 1.386.416.105.038.209.077.312.118.161-.557.334-1.103.481-1.62.16-1.218.595-2.507.975-3.592.189-.541.239-.46.475-.971.089-.194.264-.582.264-.582.086-.189.212-.346.365-.466.069-.163.137-.327.201-.493.044-.115.11-.384.153-.512.067-.197.15-.329.193-.39.049-.07.101-.131.153-.185l.041-.101c.161-.414.361-.841.561-1.242.011-.032.03-.083.052-.141-.016-.026-.031-.054-.045-.084l-.006-.011-.084-.222c-.016-.055-.035-.149-.051-.247-.05-.19-.102-.389-.14-.502-.215-.646-.213-.574-.48-1.148-.363-.777-1.091-1.849-1.613-2.895-.449-.898-.744-1.791-.744-2.536 0-.199.028-.367.076-.509l-.068-.145c-.068-.176-.065-.171-.13-.346l-.162-.445-.028-.063c-.098-.212-.336-.55-.48-.823zm22.069 2.824-.133.004c-.831-.067-1.366.155-1.707.46-.487.116-.856.394-1.071.839-.206.087-.384.209-.532.355-.146.015-.279.043-.396.082-.669.223-1.004.627-1.175 1.047-.044.109-.077.224-.098.343-.034.03-.067.061-.098.094-.283.294-.509.703-.523 1.266-.428.449-.537 1.036-.408 1.681l.003.01c-.025.108-.044.22-.056.334-.204.479-.211 1.093.042 1.76-.024.138-.031.282-.021.432.026.367.201.808.491 1.212-.014.167-.003.342.033.523.108.547.584 1.254 1.263 1.783-.026.757.487 1.405 1.282 1.744.228.441.653.845 1.383 1.089.279.093.532.145.761.165.325.245.712.404 1.141.472.309.076.639.085.974.037.181-.026.362-.072.539-.134.22-.057.441-.13.658-.219.668.198 1.431-.033 2.036-.715l.062-.074c.045-.034.088-.069.13-.105.077-.068.147-.137.21-.208l.094.033c.506.168.916.138 1.238.034.501-.161.873-.512 1.079-1.038.048-.121.083-.258.107-.408.226-.22.38-.472.457-.743.166-.139.305-.292.411-.452.064-.095.119-.191.165-.286.29-.155.525-.341.682-.529.233-.277.355-.584.386-.896.004-.043.007-.086.007-.13.089-.207.133-.424.133-.643.147-.356.198-.797.018-1.336-.064-.194-.154-.373-.264-.536.201-.537.202-1.113-.052-1.621-.07-.138-.156-.267-.258-.383.197-.488.2-.951.076-1.324-.151-.452-.441-.806-.818-1.054-.015-.064-.033-.128-.055-.192-.213-.64-.589-1.006-1.002-1.215-.063-.031-.127-.059-.193-.084-.245-.204-.563-.375-.975-.488-.244-.202-.538-.352-.868-.451-.114-.034-.233-.06-.356-.08-.368-.215-.78-.357-1.203-.424-.57-.653-1.429-.839-2.318-.644-.45.098-.894.313-1.281.613zm-11.289-5.313c-1.15.278-2.337.461-3.479.715-.811.18-.719.266-1.589.391-.242.034-.879.017-.968.008-.078-.009-.151-.022-.219-.041-.316.089-.638.187-.962.291.096.318.193.636.293.958.261.85.915 2.178 1.317 3.422.18.558.305 1.106.358 1.61l.001.004c.184.081.372.225.535.472.026.039.083.197.145.38.414-.786.858-1.554 1.298-2.331.137-.24.274-.481.411-.721.044-.211.13-.453.268-.702.214-.386.592-.851.751-1.104l.308-.493c.021-.146.068-.324.159-.517.151-.321.529-.845.591-.951.136-.23.277-.457.422-.681.023-.096.06-.196.113-.301.02-.04.137-.235.247-.409zm25.498.152c.181.242.361.485.539.731.281.167.57.46.799.861.147.258.277.583.386.87.094.137.311.45.541.8.225.061.481.197.714.482.148.181.363.569.565 1.05.296.7.746 1.942.761 1.982.207.388.394.783.57 1.181.098-.234.203-.486.257-.63.06-.162.143-.35.238-.548.429-1.246.731-2.577 1.133-3.783.028-.082.366-.936.711-1.778-.722-.261-1.455-.539-2.17-.839-.919-.065-1.852-.145-2.733-.305-.019-.003-.071-.012-.148-.026-.235.138-.517.2-.807.158 0 0-.667-.098-1.356-.206zm4.305 6.776-.016-.029c.004.007.016.03.016.03zm4.702-21.683c-.038-.082-.076-.171-.112-.265-.238-.622-.499-1.555-.526-1.769-.047-.383-.169-.994-.34-1.642-.159-.055-.362-.154-.585-.312-.479-.341-1.266-1.102-1.835-1.707-.508-.035-1.08-.074-1.464-.097-.242-.015-.459-.035-.635-.057-.061.017-.123.034-.185.052-.21.06-1.3.57-1.924.679-.299.052-.562.038-.775-.009-.432.227-.863.462-1.294.708-.705.403-2.043 1.33-2.043 1.33-.302.209-.664.265-.995.185-.838.532-1.725.997-2.43 1.657-.19.178-.421.285-.661.32-.092.049-.179.086-.26.113-1.049 1.029-2.055 2.134-3.103 3.158.596.428 1.344.923 1.486 1.05.691.614 1.326 1.346 1.94 2.096 1.003 1.052 1.946 2.333 2.696 3.296l.019.028c.418.531.844 1.083.967 1.27.058.089.104.176.139.26.053.005.108.012.165.021.423.07 1.067.301 1.449.452.676-.015 1.354-.022 2.012.024.487-.432 1.233-.415 1.698.051.026.025.051.05.077.075.154.013.269.023.314.031.407.068.657.259.811.47 1.618.263 3.349.689 3.765.785.13.03.239.057.332.083.117.015.235.031.352.049.105-.718.207-1.437.31-2.16.09-.628.401-1.726.525-2.148l.009-.092c.168-1.178.204-2.407.208-3.628l-.005-.067c-.086-1.376-.109-2.748-.109-4.131 0-.055.002-.108.007-.159zm-37.567-5.963h-.033c-.145 0-1.064.009-1.535.014-.154.046-.295.081-.404.1l-.127.086c-.114.162-.259.329-.436.485-.323.282-.738.522-1.118.665-.123.132-.205.347-.318.561-.043.081-.085.165-.128.249-.053.122-.113.244-.175.361-.178.373-.355.757-.545 1.104-.182.332-.382.629-.599.885-.055.158-.094.298-.109.4-.217 1.519-.382 3.027-.488 4.541.036.285.064.56.071.677.066.217.105.492.109.835v.025.788c0 .551.055.495.103 1.071.058.696.121 1.395.183 2.093.169.771.482 2.31.515 3.084.003.062.003.121.002.179.538-.116 1.106-.209 1.647-.289 1.16-.296 2.426-.537 3.546-.702l.035-.014c1.045-.418 3.823-.987 5.975-1.088.153-.175.31-.358.606-.745.301-.393.606-.783.916-1.17l.332-.458c.189-.256.186-.252.375-.501l.157-.2c.021-.068.05-.141.088-.218.156-.311.489-.646.796-.944.583-.716.543-.728 1.252-1.462l.303-.312c-.029-.182-.013-.383.06-.602.047-.139.152-.363.383-.58.105-.097.427-.338.474-.373.477-.477.627-.616.91-.865-.056-.059-.112-.119-.166-.182-.68-.526-1.35-1.046-1.997-1.628-.497-.448-.507-.404-.931-.824-.658-.478-1.375-.954-2.058-1.442-.238-.131-.474-.277-.708-.434-.191.019-.451-.002-.739-.134-.179-.082-.459-.311-.623-.393-.48-.24-.969-.507-1.452-.727-.184-.084-1.726-.898-2.636-1.389-.051.004-.103.007-.159.007-.298 0-.572-.106-.786-.282-.156-.065-.373-.158-.568-.252zm15.342 10.916c-.048.069-.105.14-.173.211-.199.21-.661.534-.839.731-.66.734-1.254 1.488-1.859 2.274-.393.511-.781 1.072-1.172 1.652.013-.001.025-.002.038-.003 2.058-.131 4.771-.002 6.38.254h2.73c-.249-.298-.515-.638-.648-.823-.383-.441-.776-.87-1.185-1.28-.488-.487-.995-.875-1.518-1.311-.246-.205-.784-.619-1.013-.882-.096-.11-.169-.219-.224-.322-.144-.107-.283-.234-.414-.379-.035-.039-.069-.08-.103-.122zm24.267-10.91c-.004.083-.017.164-.038.241-.02.078-.048.153-.082.224.063-.12.111-.273.12-.465z" fill="#61dafb"/></svg>