<svg clip-rule="evenodd" fill-rule="evenodd" stroke-linejoin="round" stroke-miterlimit="2" viewBox="0 0 75 76" xmlns="http://www.w3.org/2000/svg"><path d="m28.189 10.538c.165.274.354.56.555.821.389.504.838.914 1.267 1.129.49.245.966.764 1.442 1.301.609.687 1.194 1.425 1.717 1.948.354.354.757.616 1.188.806.065.087.133.167.205.239.321.321.794.51 1.395.324.086-.027.185-.075.288-.135.183.012.366.016.546.015.358-.002.769-.024 1.129-.048.727.246 1.444.495 2.16.758.088.055.177.11.265.164.628.62 1.396 1.329 1.862 1.755.226.646.532 1.39.809 1.959.163 1.195-.157 1.889-.232 2.259-.148.733.084 1.19.45 1.51 2.701 2.359 5.253 5.364 7.691 7.802.163.163.393.313.722.378.24.047.715.02 1.302-.113.302-.069.659-.16 1.024-.236.582.237 1.314.492 2.055.721.958.967 1.647 1.736 2.105 2.723.07.151.134.307.193.47-.023.087-.039.184-.044.293-.005.113.067.555.095.724.015.284.024.572.03.86-.098.276-.165.566-.226.856-.044.061-.087.121-.119.168-.179.269-.165.253-.339.51-.336.493-.65 1-.979 1.498-.05.039-.1.079-.148.12-.007.006-.013.012-.02.018-.054.032-.107.066-.161.102-.294.193-.601.436-.9.689-.084.027-.168.057-.252.089-.342.133-.688.322-.978.415-.062.02-.123.043-.184.067-.144.02-.295.045-.425.08-.18.049-.339.117-.474.196-.037.01-.075.02-.112.031l-.415-.001c-.103 0-.205.002-.307.005l-.173-.012c-.121-.057-.25-.109-.385-.154-.285-.095-.613-.149-.826-.247-.689-.313-1.401-.76-2.06-1.136-.055-.032-.119-.071-.187-.116-.528-.991-1.057-1.985-1.522-3.01-.019-.04-.042-.098-.068-.168.007-.232.012-.464.002-.698 0-.008-.005-.11-.014-.241.059-.277.157-.544.197-.826.027-.187.034-.371.034-.561.054-.139.083-.289.083-.447 0-.151-.027-.317-.085-.488-.042-.464-.345-.883-.806-1.053-.362-.282-.827-.568-1.076-.816-.956-.957-1.967-2.501-2.806-3.759-.25-.375-.686-.94-.883-1.388-.378-.858-1.061-.811-1.273-.795-.337.026-.935.177-1.126.972-.046.191.023 1.236.023 1.653 0 .903.123 1.977.123 2.96 0 2.816.247 5.443.247 8.266 0 .373-.023.749-.049 1.123-.042.403-.075.808-.075 1.221v1.85l.007.127.018.123.031.119.042.114.027.059c-.061.301-.104.608-.103.86-.067.232-.061.504.062.816.052.134.169.344.382.555.294.292.933.729 1.084.804.162.082.315.278.477.469.229.269.441.56.612.79l.036.116c.18.568.399 1.149.584 1.704.089.406.172.775.232 1.06l.012.18c-.084.604-.211 1.2-.353 1.791-.029.057-.055.112-.078.163-.095.208-.189.42-.283.632-.087.063-.174.135-.26.216-.11.104-.225.233-.341.379-.448.467-1.073 1.202-1.252 1.416-.365.139-.721.291-1.076.448-.134-.004-.267 0-.398.018-1.071.153-1.578.399-1.743.527l-.004.002c-.203-.032-.424-.05-.65-.061-.263-.089-.52-.196-.788-.269-.36-.098-1.007-.265-1.609-.393l-.023-.026c-.047-.071-.101-.145-.162-.22-.109-.134-.254-.289-.408-.444l-.439-.493c-.07-.125-.173-.267-.323-.406-.04-.038-.09-.079-.147-.123l-.315-.354c-.16-.246-.325-.489-.491-.72-.011-.989-.035-1.976.076-2.901.113-.941.363-1.816 1.047-2.499.206-.207.541-.378.841-.567.341-.213.656-.437.886-.667.35-.351.628-1.062.653-1.984.032-1.222-.29-2.971-.29-3.581 0-2.396-.07-4.811-.135-7.241.088-.536.211-1.006.374-1.333.234-.469.282-1.064.219-1.692-.022-.218-.055-.44-.073-.656-.007-.092-.004-.253-.003-.288.066-.153.16-.472.221-.891.106-.728.184-1.876.122-2.53-.058-.606-.301-1.003-.472-1.174-.155-.155-.444-.348-.829-.546-.442-.228-1.118-.512-1.563-1.028-.64-.741-1.315-2.001-1.315-2.853v-1.291c.018-.113.217-1.356.217-1.617 0-.576-.394-1.061-.926-1.201-.028-.064-.061-.13-.1-.197-.304-.527-2.457-2.558-2.762-2.863-1.404-1.404-2.279-2.896-3.578-4.195-.484-.484-1.27-.484-1.754 0-.278.278-.396.654-.356 1.016-.138.131-.54.507-.986.894-.068.022-.139.051-.211.086-.159.078-.689.439-1.126.868-.241.236-.448.496-.592.737-.085.115-.144.227-.185.336l-.045.071-.115.097-.271.257-.189.185c-.178.053-.44.181-.7.441-.309.308-.79 1.014-1.04 1.327-.263.329-2.147 2.317-2.457 2.776l-.037.058c-.226.15-.715.521-.947.737-.026.025-.051.049-.074.073-.45.212-.92.528-1.291.885-.472.455-.759.97-.857 1.324-.355.356-.604.669-.698.836l-.002.005c-.201.199-.41.41-.617.628-.506.179-1.113.547-1.724 1.094-1.452 1.299-3.214 3.563-3.807 4.265-.013.015-.102.133-.237.315-.089.076-.176.159-.26.25-.215.23-.422.511-.605.788-.227.239-.438.476-.611.698-.124.108-.248.225-.361.344-.331.139-.645.361-.931.656-.35.106-.589.323-.736.544-.551.826-.753 1.749-.693 2.65-.059.368-.086.724-.076 1.044.019.631.183 1.156.421 1.512.008.012.016.023.024.035s.016.025.025.038c.266.389 1.633 2.339 1.846 2.553 1.428 1.427 2.987 2.813 4.352 4.177.833.833 1.798 1.744 2.796 2.699.092.403.321.822.693 1.237.573.641 1.573 1.307 2.35 1.773 1.181 1.234 2.261 2.481 3.058 3.676.26.39 2.635 2.67 3.173 3.056.253.182.494.26.711.277 1.1 1.252 2.324 2.587 3.182 3.37.482.584.976 1.149 1.445 1.61.584.576 1.172.99 1.693 1.228l.111.108c.503.519.972.977 1.267 1.205l.315.286c.114.101.228.202.341.303l.307.266.17.17.148.152c.298.344.652.824.903 1.066.049.048.098.09.146.129.096.131.189.25.266.333.248.265.499.394.66.447.077.026.152.045.226.057l.338.292c.085.106.17.209.255.308.459.538.919.947 1.217 1.105.026.014.052.027.077.039.086.204.165.372.221.455.02.147.068.31.158.49.063.127.247.389.533.677.465.468 1.245 1.086 1.718 1.287.4.171.75.179 1.036.103.253.13.488.211.68.239.561.084 1.004-.094 1.327-.417l.031-.032.017.003c1.077.157 1.893-.229 2.274-.989l.035-.073.004-.003c.661-.396 1.479-1.079 2.038-1.667.136.081.283.13.432.157.253.047.761.076 1.215-.44.202-.23.724-1.308 1.136-2.196.232-.29.465-.586.667-.879.132-.192.249-.383.349-.573.957-.778 1.755-1.495 1.955-1.723.1-.114.203-.233.308-.355.667-.184 1.482-.677 2.299-1.432l.171-.161c.122-.069.247-.152.374-.252.911-.713 2.306-2.519 2.596-2.853.716-.826 1.41-1.674 2.098-2.526 3.177-2.709 7.814-7.345 9.413-9.872.214-.037.43-.125.643-.278.187-.135.396-.359.587-.623.106-.147.198-.325.297-.419 1.008-.952 2.02-1.902 2.978-2.906.252-.264.981-1.077 1.265-1.414.119-.14.406-.433.531-.591.141-.179.216-.342.252-.446.093-.041.186-.098.281-.172.084-.066.233-.206.363-.439.018-.018.036-.036.054-.055.054-.058.126-.145.195-.271.024-.044.077-.168.128-.29.282-.184.485-.479.545-.826l.048-.114c.214-.199.384-.419.483-.618.037-.074.174-.323.12-.737l-.001-.006c.011-.092.014-.182.008-.269.073-.16.113-.345.094-.555.132-.243.19-.551.085-.932-.035-.129-.114-.321-.266-.526-.143-.195-.514-.575-.622-.684l-.032-.044c.019-.091.03-.193.03-.306 0-.242-.085-.653-.461-1.04-.298-.307-1.051-.79-1.201-.914l-.154-.133c-.096-.115-.193-.221-.277-.292-.183-.154-.368-.247-.538-.3l-.056-.046c-.061-.049-.121-.093-.182-.132-.408-.492-.946-1.103-1.326-1.418-.09-.075-.18-.138-.268-.192-.085-.086-.186-.188-.313-.322-1.1-1.155-2.17-2.281-3.355-3.354l-.065-.059c-1.188-1.299-2.398-2.621-3.681-3.837-.055-.183-.166-.375-.357-.566-1.639-1.64-3.28-3.262-4.949-4.877-.977-.946-2.099-2.254-3.298-3.171-.036-.062-.079-.122-.127-.178 0 0-.611-.708-.951-1.027-.632-.592-1.231-1.209-1.868-1.796l-.29-.267c-.038-.175-.122-.364-.273-.565-.651-.869-1.548-1.668-2.482-2.431-.147-.156-.383-.38-.493-.491-.426-.425-.842-.846-1.308-1.227-.64-.524-1.285-1.147-1.951-1.747-.35-.682-.946-1.627-1.557-2.22-.295-.287-.606-.496-.909-.631-.09-.116-.182-.224-.274-.317l-.004-.004c.029-.629-.419-1.183-1.045-1.282 0 0-.99-.152-1.52-.157-.282-.066-.604-.137-.914-.167-.538-.05-1.052.021-1.461.225-.233.117-.466.278-.694.459-.111.039-.233.096-.361.176-.358.224-1.022.788-1.346 1.15-.188.169-.36.318-.36.318-.033.029-.064.059-.093.091-.117.082-.234.175-.349.28-.22.2-.446.45-.664.71-.383.319-.764.642-1.104.982-.07.07-.631.641-.876 1.02-.026.039-.05.079-.071.118-.638.515-1.274 1.037-1.895 1.569-.07.053-.81.621-.942.783-.268.329-.298.643-.298.82 0 .239.067.644.47 1.018.166.155.53.387.97.618z" fill="#f05033"/></svg>