<?xml version="1.0" encoding="UTF-8" standalone="no"?><!DOCTYPE svg PUBLIC "-//W3C//DTD SVG 1.1//EN" "http://www.w3.org/Graphics/SVG/1.1/DTD/svg11.dtd"><svg width="100%" height="100%" viewBox="0 0 353 313" version="1.1" xmlns="http://www.w3.org/2000/svg" xmlns:xlink="http://www.w3.org/1999/xlink" xml:space="preserve" xmlns:serif="http://www.serif.com/" style="fill-rule:evenodd;clip-rule:evenodd;stroke-linejoin:round;stroke-miterlimit:2;"><g id="Vue"><path d="M3.453,6.459c-0.716,0.734 -1.218,1.692 -1.383,2.782c-0.359,2.367 0.98,4.605 3.114,5.466c0.384,0.497 0.923,1 1.691,1.418c0.209,0.115 0.584,0.245 1.035,0.378c0.07,0.671 0.234,1.362 0.489,2.073c0.518,1.442 1.768,3.132 3.376,4.843c2.085,5.893 5.022,10.383 8.367,13.763c0.623,1.249 1.28,2.531 1.954,3.814c-0.162,0.675 -0.196,1.465 -0.038,2.394c0.092,0.539 0.348,1.42 0.954,2.6c1.088,2.122 3.992,6.671 8.515,14.586c5.186,9.076 9.755,18.524 15.203,27.474c14.114,23.188 27.505,47.047 42.147,69.981c2.406,4.547 4.88,9.061 7.479,13.55c2.94,5.079 9.073,15.893 10.817,18.25c-0.049,0.616 0.01,1.448 0.39,2.433c0.441,1.144 3.052,6.967 3.154,7.145c3.846,6.73 6.683,14.538 10.966,20.962c1.087,1.631 2.752,5.394 3.993,7.119c0.982,1.364 2.066,2.13 2.843,2.483c6.933,11.68 14.067,23.339 20.847,35.05c2.198,3.796 4.661,7.533 6.998,11.317c0.157,0.333 0.346,0.64 0.563,0.919c2.11,3.453 4.089,6.953 5.643,10.58c0.409,0.954 1.066,2.101 1.835,3.327c0.413,0.974 0.874,1.981 1.349,2.99c0.024,1.486 0.16,3.813 0.722,5.451c0.544,1.583 1.395,2.765 2.435,3.558c0.168,0.429 0.327,0.814 0.472,1.134c-0.005,0.053 -0.01,0.106 -0.013,0.16c-0.098,1.458 0.193,3.356 2.274,5.544c2.788,2.931 5.233,2.606 6.365,2.314c1.761,-0.455 3.468,-1.707 4.05,-4.333c0.018,-0.083 0.033,-0.172 0.046,-0.267c0.174,-0.234 0.328,-0.486 0.462,-0.756c-0,0 0.985,-1.988 2.378,-4.84c0.118,-0.178 0.226,-0.366 0.323,-0.562c-0,0 0.965,-1.967 2.184,-4.606c1.352,-2.803 2.768,-5.778 3.942,-8.325c0.62,-0.961 1.22,-1.929 1.782,-2.911c1.484,-0.259 2.839,-1.172 3.606,-2.602c6.242,-11.645 12.306,-23.431 18.296,-35.292c0.64,-0.31 1.224,-0.76 1.705,-1.345c9.771,-11.903 15.789,-29.883 23.721,-43.242c3.49,-5.878 7.33,-12.402 11.404,-19.28c4.855,-6.78 9.532,-13.834 12.465,-20.855c12.244,-20.227 25.387,-40.987 36.907,-56.051c1.307,-1.709 1.36,-3.987 0.306,-5.722c1.715,-2.349 3.359,-4.717 4.725,-6.95c2.513,-4.109 4.069,-7.952 4.328,-10.785c6.225,-10.684 11.325,-19.605 13.63,-23.255c2.797,-4.429 5.445,-8.738 8.012,-13.101c0.583,-0.41 1.438,-1.224 2.24,-2.511c1.34,-2.151 3.358,-6.712 4.364,-9.048c1.043,-1.092 2.119,-2.186 3.129,-3.285c3.571,-3.883 6.165,-8.007 6.383,-11.962c0.12,-0.416 0.211,-0.802 0.262,-1.128c0.136,-0.876 0.086,-1.62 -0.019,-2.185c0.259,-0.887 0.284,-1.752 0.04,-2.588c0.592,-0.401 1.012,-0.81 1.271,-1.146c0.807,-1.044 1.142,-2.171 1.142,-3.327c0,-1.784 -0.941,-4.362 -4.33,-5.549c-3.108,-1.089 -11.061,-1.019 -12.827,-0.431c-3.479,1.16 -3.196,1.486 -8.871,1.486c-4.612,-0 -4.234,0.289 -8.509,0.595c-3.858,0.275 -7.646,0.234 -11.492,0.569l-5.606,-0c-0.92,-0 -1.37,0.103 -1.45,0.12c-1.936,0.414 -2.712,1.524 -3.036,1.966l-0.097,0.14c-2.38,0.028 -4.357,0.106 -4.357,0.106c-0.209,0.009 -0.415,0.03 -0.616,0.064l-1.506,-0.105l-0.089,-0.134c-0.851,-1.198 -2.14,-2.115 -3.953,-2.449c-0.932,-0.171 -2.175,-0.154 -3.489,0.025c-0.695,0.094 -1.438,0.323 -1.97,0.282c-8.465,-0.651 -17.192,-1.09 -25.713,-0.588c-0.752,0.044 -1.345,0.092 -1.841,0.145c-4.757,-0.227 -9.222,0.061 -12.852,1.27c-0.754,0.252 -1.329,0.597 -1.771,0.978l-0.997,-0.029c-6.111,-1.08 -11.434,-1.792 -13.928,-1.536c-2.163,0.221 -3.529,1.097 -4.289,1.856c-1.414,1.415 -1.738,2.935 -1.631,4.329l0.001,0.011c-2.176,2.417 -3.986,5.396 -5.553,8.649c-1.081,0.655 -2.192,1.627 -3.229,2.983c-4.236,5.536 -9.498,19.593 -10.641,22.206l-0.456,1.048c-1.476,2.36 -2.961,4.796 -4.27,7.206c-1.93,3.554 -3.467,7.086 -4.307,10.337c-0.223,0.297 -0.453,0.649 -0.67,1.061l-0.084,0.171c-3.2,4.111 -6.338,8.272 -9.36,12.505c-0.681,-1.694 -1.579,-3.594 -2.673,-5.607c-2.889,-5.314 -7.019,-11.756 -10.619,-17.114c-0.114,-0.478 -0.26,-0.97 -0.437,-1.476c-2.273,-6.493 -9.933,-17.812 -12.224,-21.624c-2.363,-5.334 -4.325,-9.692 -4.49,-10.022c-0.217,-0.434 -5.082,-11.496 -6.609,-13.426c-0.392,-0.496 -0.798,-0.891 -1.207,-1.201c-0.275,-1.452 -1.353,-4.475 -5.455,-4.475c-1.852,-0 -3.707,0.179 -5.561,0.447c-0.775,0.058 -1.467,0.114 -1.928,0.16c-3.755,0.376 -7.482,0.557 -11.216,0.831c-0.554,-0.079 -1.144,-0.127 -1.759,-0.14c-2.41,-0.05 -5.461,0.448 -6.889,0.448l-13.488,-0c-0.549,-0.029 -2.871,-0.069 -4.1,-0l-13.258,-0c-2.99,-0 -6.242,-0.626 -9.059,-1.095c-1.591,-0.265 -5.799,-0.128 -6.386,-0.053c-2.597,0.328 -3.678,1.963 -4.125,3.13l-0.507,0.19l-0.316,0.013c-1.25,-0.232 -2.682,-0.439 -3.468,-0.439c-2.755,-0 -4.621,-0.181 -7.518,-0.543c-6.24,-0.78 -12.394,-1.785 -18.672,-1.785c-1.677,-0 -2.838,0.509 -3.639,1.205c-0.193,-0.027 -0.342,-0.041 -0.435,-0.041c-0.991,-0 -2.533,-0.146 -4.221,-0.355c-1.34,-0.235 -2.913,-0.482 -4.38,-0.702c-4.663,-5.322 -7.552,-6.557 -8.654,-5.109c-1.696,-0.051 -2.127,1.792 -0.558,5.898Z" style="fill:#41b883;"/><path d="M122.452,5.343c-2.716,0.227 -5.485,0.018 -8.225,0.03c-0.711,-0.205 -1.54,-0.337 -2.443,-0.356c-1.361,-0.029 -3.081,0.256 -3.983,0.256c-2.402,-0 -5.691,-0.209 -8.882,-0.125c-3.081,-0.48 -6.068,-0.757 -9.644,-0.757c-1.635,-0 -3.353,0.124 -4.97,0.473c-1.502,0.035 -3.121,0.305 -3.121,0.305c-0.188,0.032 -0.372,0.075 -0.552,0.126c-1.395,-0.49 -2.617,-0.174 -3.4,0.126c-1.268,0.485 -3.268,1.572 -3.268,4.752c0,0.706 0.134,1.893 1.058,3.191l0.089,0.113c0.283,0.495 0.805,1.147 1.334,1.745c0.788,1.964 2.828,4.699 3.09,5.107c1.378,2.144 2.829,4.215 4.311,6.258c2.631,4.168 5.386,8.274 8.027,12.425c0.024,0.038 0.058,0.092 0.1,0.16c-0.119,0.983 -0.043,2.194 0.392,3.541c0.901,2.795 3.989,7.389 4.652,8.575c5.183,9.287 11.182,18.115 16.424,27.376c3.451,6.096 6.897,12.134 10.781,17.96c0.963,1.445 1.807,2.951 3.121,4.133l0.272,0.232c1.27,2.269 2.546,4.531 3.824,6.789l1.15,2.019c0.224,1.058 0.619,2.251 1.177,3.491c1.383,3.07 3.803,6.735 4.695,8.365c1.647,3.01 3.387,5.963 5.167,8.891c0.866,2.372 3.025,5.788 3.456,6.594c2.806,5.246 5.92,10.301 9.03,15.36c0.727,1.968 2.069,4.404 2.216,4.666c1.216,2.516 2.516,4.967 3.847,7.397l0.012,0.064c0.286,1.346 1.488,3.058 2.122,4.325c0.49,0.98 1.007,1.951 1.54,2.916c1.314,3.178 2.903,6.167 4.521,9.201c0.218,0.41 1.231,2.559 2.068,3.642c-0.136,1.549 0.289,2.799 0.831,3.666c1.486,2.375 4.62,3.098 6.996,1.612c1.529,-0.956 2.373,-2.596 2.382,-4.277c0.378,-0.738 1.272,-2.495 1.44,-2.88c2.27,-5.189 4.512,-10.368 7.102,-15.424c2.602,-5.08 5.265,-10.116 7.978,-15.114c0.23,-0.08 0.468,-0.181 0.714,-0.304c1.215,-0.608 2.72,-2.063 3.872,-4.248c1.082,-2.051 2.053,-5.013 2.691,-6.548c0.815,-1.502 1.635,-3 2.472,-4.489c5.193,-9.233 10.672,-18.324 16.153,-27.388c0.261,-0.432 3.906,-6.293 4.315,-7.019c0.477,-0.849 0.861,-1.748 1.311,-2.611c0.274,-0.525 1.035,-1.699 1.21,-2.132c0.265,-0.656 0.35,-1.211 0.38,-1.601c0.027,-0.341 0.021,-0.661 -0.01,-0.96c0.639,-0.15 1.317,-0.46 2.012,-1.006c0.292,-0.23 1.685,-2.106 2.043,-2.942c0.324,-0.755 0.774,-1.45 1.175,-2.166c1.743,-3.113 3.528,-6.138 5.185,-9.3c3.288,-6.279 6.812,-12.43 10.069,-18.727c0.687,-1.328 1.933,-2.984 2.817,-4.637c0.797,-1.491 1.339,-3.006 1.541,-4.425c0.667,-1.187 1.256,-2.345 1.283,-2.397c0.938,-1.804 1.875,-3.606 2.819,-5.404c2.579,-3.281 4.933,-6.69 7.282,-10.135c0.775,-1.137 1.563,-2.111 2.37,-3.21l0.22,-0.295c0.708,-0.923 1.37,-1.826 1.37,-1.826c0.794,-1.084 1.095,-2.379 0.941,-3.617c0.065,-0.362 0.092,-0.704 0.086,-1.026c0.722,-1.141 1.437,-2.278 2.212,-3.384c0.629,-0.899 1.815,-2.72 1.86,-2.789c2.001,-0.145 3.753,-1.472 4.42,-3.391c0.321,-0.203 0.611,-0.406 0.78,-0.565c1.228,-1.158 1.797,-2.548 1.797,-4.107c0,-2.801 -2.274,-5.076 -5.076,-5.076c-1.123,-0 -2.161,0.365 -3.002,0.984c-0.159,-0.069 -0.329,-0.134 -0.51,-0.194c-1.739,-0.58 -4.066,-0.643 -6.538,-0.313c-2.18,0.29 -4.537,0.935 -6.183,0.935l-0.421,-0c-0.093,-0.07 -0.191,-0.139 -0.292,-0.207c-1.004,-0.669 -2.45,-1.147 -4.157,-1.169c-1.556,-0.021 -3.556,0.412 -4.545,0.528c-1.203,0.142 -2.402,0.296 -3.6,0.444c-1.519,-0.051 -3.045,-0.043 -4.614,0.062c-1.501,0.1 -1.31,-0.036 -2.865,0.247c-0.497,0.09 -1.417,0.264 -2.139,0.448c-2.397,0.001 -4.848,0.149 -7.241,0.008c-0.92,-0.054 -2.41,-0.234 -3.39,-0.361c-0.452,-0.116 -0.949,-0.177 -1.496,-0.177l-0.056,0.002c-1.086,-0.028 -2.117,0.294 -2.97,0.874l-0.188,0.113c-0.952,-0.666 -1.961,-0.917 -2.957,-0.935c-1.029,-0.018 -2.136,0.242 -3.208,0.966c-0.63,0.425 -1.38,1.172 -2.007,2.148c-0.193,0.196 -0.375,0.412 -0.547,0.648c-0.404,0.552 -0.721,1.589 -0.935,2.477l-0.037,0.099l0.011,0.015c-0.068,0.285 -0.125,0.551 -0.169,0.777c-0.258,0.3 -0.572,0.672 -0.702,0.846c-0.488,0.649 -0.948,1.319 -1.398,1.994c-0.082,0.123 -0.163,0.249 -0.242,0.377c-1.16,0.305 -2.217,1.018 -2.934,2.093c-1.797,2.695 -4.198,4.698 -5.559,7.874c-1.22,2.847 -2.191,5.95 -3.58,8.729c-0.893,1.785 -2.49,4.611 -3.153,7.153c-0.133,0.509 -0.232,1.012 -0.3,1.506l-0.172,0.323c-3.003,5.01 -5.937,10.377 -8.017,15.576c-0.216,0.539 -0.272,0.824 -0.284,0.874c-0.041,0.179 -0.072,0.35 -0.094,0.513c-0.756,1.311 -1.516,2.618 -2.284,3.923c-0.259,0.441 -0.495,0.919 -0.724,1.412c-0.438,0.742 -0.882,1.472 -1.322,2.177c-0.405,0.647 -0.919,1.223 -1.306,1.881l-0.011,0.019c-0.896,1.236 -1.768,2.49 -2.629,3.75c-1.011,1.48 -2,2.982 -2.971,4.498c-0.08,-0.122 -0.161,-0.244 -0.241,-0.367c-1.4,-2.128 -2.653,-4.35 -4.034,-6.49c-0.323,-0.501 -0.659,-0.994 -0.983,-1.495c-0.093,-0.88 -0.417,-1.746 -0.986,-2.504c-1.391,-1.855 -2.609,-3.794 -3.726,-5.784c-0.985,-2.005 -2.014,-3.991 -3.066,-5.966c-1.801,-3.737 -3.505,-7.527 -5.549,-11.16c-0.917,-1.631 -1.954,-3.243 -2.98,-4.871c-0.659,-1.568 -1.352,-3.465 -2.151,-5.205c-0.831,-1.809 -1.786,-3.47 -2.827,-4.757c-2.493,-7.234 -4.447,-15.562 -9.866,-21.077c-0.163,-0.242 -1.355,-2.005 -1.912,-2.649c-0.711,-0.821 -1.449,-1.328 -2.003,-1.605c-1.016,-0.508 -2.173,-0.716 -3.446,-0.509c-0.378,0.062 -1.039,0.298 -1.547,0.496c-0.51,-0.317 -1.086,-0.547 -1.734,-0.678c-0.644,-0.129 -1.441,-0.166 -2.348,0.043c-0.418,0.096 -1.446,0.538 -1.937,0.755c-0.489,0.078 -1,0.19 -1.518,0.317c-0.63,-0.028 -1.081,-0.046 -1.133,-0.039c-0.071,0.009 -0.632,0.165 -1.306,0.384Z" style="fill:#34495e;"/></g></svg>