<svg clip-rule="evenodd" fill-rule="evenodd" stroke-linejoin="round" stroke-miterlimit="2" viewBox="0 0 101 76" xmlns="http://www.w3.org/2000/svg"><path d="m42.107.465c-2.256-.107-4.569.551-6.695 1.158-.172.05-.326.133-.456.242-.056.013-.11.026-.161.037-3.994.868-8.424 2.386-11.818 4.935-.009-.001-.018-.001-.028-.001-.217 0-.57.072-.97.291-.669.365-1.8 1.293-2.129 1.525-.862.609-2.47 1.472-3.796 2.419-.238.17-.466.344-.682.521-.42.251-.833.521-1.241.803h-.016c-.192 0-.534.062-.912.297-.488.302-1.332 1.064-1.479 1.188-1.153.976-2.27 2.069-3.349 3.145-.343.286-.679.58-.995.896-.205.204-.729.537-.959.752-.262.246-.389.495-.442.654-.013.037-.023.073-.032.109-.15.162-.255.283-.271.305l-.014.018c-.236.17-.536.439-.851.785-.767.845-1.737 2.184-2.098 2.891-.206.404-.264.738-.264.923 0 .176.03.326.078.455l-.209.266c-.194.247-.427.629-.631.986-.107.152-.199.324-.281.505-.129.241-.214.407-.214.407-.087.174-.13.359-.132.542-.132.371-.244.767-.355 1.184-.412 1.544-.33 2.969.129 4.235-.052.879.238 1.592.703 2.303.442 1.271 1.243 2.547 2.256 3.51.012.011.023.022.035.033-.013.172.008.358.075.559.097.291.327.634.684.934.19.16.429.318.647.454.99 1.372 2.561 2.669 4.114 3.812.168.176.327.344.472.504.222.244 1.152 1.241 1.839 1.497.236.088.463.126.678.122.019.013.038.027.056.041 1.045.756 2.066 1.483 3.167 2.143.636.382.519.405 1.291.626.078.022.219.071.341.108.423.352.842.709 1.251 1.076.081.099.185.219.352.385.137.138.416.388.646.588-.208.085-.414.177-.618.275-.365.163-.725.337-1.081.516-.336.168-.369.174-.568.32-.156.079-.339.188-.528.323-.089.064-.182.134-.276.207-.211.144-.445.31-.506.355-.581.426-1.338.887-1.918 1.377-.151-.063-.322-.099-.514-.097-.175.001-.419.042-.678.178-.243.128-.652.479-.652.479s.024-.021.024-.021c-.706.597-1.34 1.279-1.993 1.932-.422.422-.837.84-1.245 1.264-.208.134-.402.289-.579.452-.3.275-.597.565-.883.87-.064.031-.126.064-.188.101-.565.334-1.086.993-1.384 1.39-.972 1.297-1.685 2.785-1.932 4.392-.007.043-.013.087-.018.13-.391 1.031-.43 2.267-.123 3.433.048.185.106.368.171.547.012.052.026.102.04.15-.013.298.035.613.143.939.225.687.807 1.444 1.377 2.037.155.199.398.448.666.627.185.156.347.276.469.349 1.466.88 3.387 1.206 5.166.935.655.045 1.332-.128 1.987-.441.955.269 1.992.03 2.975-.542.406-.236.804-.53 1.178-.839.031-.012.063-.025.094-.038.535-.22 1.035-.6 1.505-.89 1.289-.793 2.691-1.944 3.586-3.176.366-.503.666-1.039.963-1.578.134-.076.257-.178.359-.306.521-.651.871-1.348 1.14-2.071.045-.09.079-.184.1-.279.331-.964.541-1.969.839-2.965.023-.077.038-.155.046-.232.124-.375.236-.753.323-1.12.132-.555.14-1.187.159-1.81.011-.37.007-.737.141-1.04.201-.457.104-.971-.205-1.323-.043-.285-.15-.499-.245-.631-.069-.095-.149-.177-.237-.247-.122-.84-.23-1.803-.573-2.49-.11-.218-.323-.527-.497-.765.147-.09.293-.181.44-.273.125-.008.251-.037.373-.086 1.559-.623 3.121-1.624 4.708-2.272-.538 1.693-.944 3.354-1.003 5.176-.001.035-.002.071-.003.106-.507 1.491-.294 3.055.062 4.673-.016.053-.028.108-.037.164-.115.721.291 1.52.651 2.1.032.07.067.14.104.21.055.152.087.323.142.478.137.382.327.723.592.988.126.127.273.208.414.297.057.076.11.147.159.212.036.048.075.093.116.135.073.217.185.534.277.716.206.405.5.729.917.937 1.305.653 2.695.37 3.812-.442.996-.724 1.739-1.873 1.955-2.949.026-.133.031-.265.015-.392.509-1.017 1.028-2.04 1.56-3.053.207-.291.413-.583.614-.878-.096 1.394-.006 2.851.412 4.105.215.644.916 1.894 1.722 2.39.625.385 1.304.46 1.987.118.35-.175.683-.487.959-.881.232-.33.425-.727.589-.985.049-.077.088-.157.118-.239.122-.177.246-.354.369-.531.296-.106.553-.322.701-.627.214-.439.433-.88.657-1.323.571-.847 1.113-1.713 1.567-2.622.092-.184.134-.379.132-.571.334-.596.675-1.185 1.023-1.764.341-.196.582-.55.618-.968.012-.027.084-.183.128-.265.113-.21.226-.42.305-.629.379-.993.869-1.878 1.333-2.835.329-.677.625-1.357.924-2.034.383-.592.761-1.187 1.106-1.799.144-.256.187-.541.143-.809.029-.052.057-.103.086-.155.077-.137.126-.282.147-.429.302-.598.592-1.202.868-1.812.279 1.984.755 3.971 1.652 5.766.296.592.669 1.143.944 1.748-.004-.008-.016-.036-.016-.036s.152.313.307.541c-.498.503-.965 1.067-1.406 1.596-1.584 1.901-3.175 3.774-4.48 5.814-.477.541-.982 1.094-1.277 1.684-.103.205-.223.639-.217.993.006.299.088.561.197.753.179.313.439.523.769.626.266.17.579.293.822.333.299.05.559.01.761-.064.22.043.827.149 1.168.064.519-.13 1.041-.317 1.588-.409.054-.008.106-.02.158-.033.102-.001.205-.015.308-.043.536-.144 1.081-.484 1.605-.78.083-.019.165-.047.246-.085.442-.205.883-.462 1.3-.76.163-.054.33-.134.495-.244.335-.223.709-.624.922-.845 1.134-1.019 2.02-2.303 2.275-3.832.008-.051.013-.101.016-.151.053-.23.097-.466.131-.706.036-.252.034-.501.009-.748.02-.093.032-.197.032-.314 0-.592-.213-1.296-.419-1.947-.068-.413-.171-.82-.286-1.223-.024-.084-.061-.193-.101-.302-.034-.214-.125-.422-.273-.598 1.317-1.831 2.213-3.968 3.665-5.742.216-.264.305-.591.275-.906.662-1.074 1.249-2.201 1.873-3.302.283.894.613 1.772.972 2.644.354 1.724.909 3.368 1.813 4.899-.114.108-.243.195-.36.301-.142.128-.407.405-.407.405-.044.047-.085.096-.121.149-.29.289-.559.604-.817.928-.083.049-.16.108-.231.178 0 0-.304.306-.428.48-.125.175-.226.375-.35.553-.126.179-.25.359-.373.54-.238.211-.476.532-.557.655-.055.082-.108.165-.159.25-.038.03-.076.064-.115.103-.134.134-.721 1.161-.843 1.486l-.075.151c-.035.069-.085.191-.126.303l-.04.058c-.092.132-.155.276-.189.423-.085.111-.158.238-.217.38-.01.024-.02.05-.029.079-.022.047-.042.097-.06.15-.063.183-.124.632-.141.766-.017.085-.041.216-.043.238-.004.042-.006.082-.006.122-.157.875-.142 1.836.357 2.585.236.353.615.628 1.078.772.462.143 1.012.149 1.4.072.652-.131 1.272-.317 1.85-.62 3.021-1.024 5.804-3.222 7.005-6.224.19-.475.189-1.28.093-1.763-.175-.873-.071-1.804-.419-2.617-.106-.248-.181-.5-.27-.75.344-.061.687-.218 1.006-.324.582-.194 1.173-.38 1.757-.567.782-.25 1.563-.267 2.368-.382.093-.013.182-.028.269-.045.348-.005.696-.033 1.044-.058l.929-.003c.416.044.839.11 1.246.184.273.05.826.101.826.101.166.015.327-.003.478-.05.362.08.729.178 1.111.29.082.024.261.062.447.099.081.029.161.059.242.092.191.076.652.222.815.237.135.013.25.004.343-.011l.443.191c.169.072.648.206.813.252.187.102.437.218.489.23l.014.002c.757.563 1.412 1.255 2.198 1.779.3.199.585.429.853.674.118.287.274.569.457.847.153.233.343.457.507.687.094.312.197.614.332.885.022.044.046.086.073.125.105.576.227 1.147.127 1.743-.275 1.653-1.688 3.441-3.197 3.882-.658.192-1.037.884-.844 1.542.192.659.883 1.038 1.542.845 2.302-.673 4.532-3.339 4.952-5.86.16-.959-.016-1.879-.171-2.809-.075-.452-.264-.886-.508-1.304-.037-.13-.073-.261-.116-.389-.137-.41-.312-.8-.562-1.139-.017-.047-.139-.37-.214-.52-.026-.051-.092-.185-.249-.339-.018-.019-.051-.046-.091-.078-.425-.709-1.25-1.77-1.874-2.082l-.036-.017c-.054-.045-.107-.091-.155-.147-.109-.124-.227-.231-.346-.339-.093-.155-.253-.381-.423-.524-.196-.165-.407-.256-.599-.3-.03-.025-.061-.049-.095-.074-.114-.081-.562-.388-.834-.525-.204-.102-.384-.15-.5-.168-.085-.013-.165-.019-.242-.017-.447-.225-.902-.434-1.407-.518-.062-.01-.119-.016-.173-.018-.147-.063-.293-.128-.439-.189-.081-.033-.742-.246-.927-.244-.032.001-.063.002-.094.004-.219-.051-.439-.084-.658-.084l-.022.001c-.277-.083-.592-.167-.872-.205-.295-.04-.569-.034-.803.008-.175-.019-.351-.033-.531-.033h-.572c-.09 0-.179.01-.264.029h-.333c-.075-.046-.169-.079-.285-.098l-.151-.015c-.035-.002-.178-.005-.299-.001h-.039c-.306 0-.599.022-.902.076l-.009.001c-.08-.013-.167-.02-.261-.02-.12 0-.246.012-.375.032l-.034.003c-.142.014-.293.037-.441.065-.198-.064-.434-.07-.713.02-.083.026-.499.176-.519.183-.196.072-.412.11-.616.155-.157.035-.263.089-.415.133.011-.003.039-.011.039-.011s-.423.118-.518.169c-.062.034-.117.07-.166.107-.14.05-.28.101-.419.157-.255.036-.532.109-.784.214-.107.039-.43.18-.43.18s.026-.014.035-.019c-.088.044-.2.078-.292.119l-.093.04c-.097.035-.188.071-.244.099.037-.019.132-.053.162-.064-.253.108-.516.215-.752.346l-.005.003c-.096-.123-.198-.239-.296-.365-.412-.53-.796-1.071-1.118-1.661-.918-1.683-1.17-3.319-1.024-5.224.021-.265-.044-.516-.17-.729.067-.298.16-.592.228-.887.167-.725.29-1.501.591-2.175.09-.2.122-.413.104-.617.083-.129.151-.245.167-.298.193-.622-.075-1.035-.309-1.269-.206-.206-1.246-.349-1.246-.349s.5.047.637.116c-.545-.272-.953-.245-1.699-.245-.63 0-1.236.064-1.819.253-.049.004-.322.025-.457.048-.377.063-.723.211-1.032.52-.145.145-.273.339-.345.592-.033.114-.046.381-.05.56-.154.362-.256.744-.338 1.139-.058.284-.102.578-.168.872-.208.514-.42 1.026-.658 1.527-.14.296-.384.68-.563 1.062-.177.379-.294.762-.324 1.106-1 1.962-2.073 3.908-3.288 5.715-.132.196-.201.416-.211.636-.37.554-.736 1.111-1.08 1.682-.167-.48-.339-.96-.491-1.438-.037-.117-.383-1.077-.477-1.336-.002-.022-.004-.044-.007-.065-.045-.338-.222-.627-.472-.82-.097-1.103-.093-2.215.001-3.306.024-.286.045-.918.154-1.517.035-.197.134-.491.174-.604.381-.252.589-.694.551-1.141.052-.172.096-.347.143-.534.039-.156.047-.312.027-.462.031-.232-.006-.462-.098-.667-.018-.324-.164-.603-.393-.832-.291-.291-.811-.531-1.477-.581-.825-.061-1.966.135-2.429.247-.055.008-.502.068-.67.124-.261.085-.451.22-.578.348-.15.15-.284.351-.378.598-.062.165-.142.525-.162.616-.427.884-.525 1.736-.64 2.71-.031.08-.059.157-.084.232-.074.222-.142.443-.212.665l-.104.206-.075.159c-.05.1-.099.201-.148.302-.128.098-.239.222-.324.371-1.479 2.587-2.648 5.283-3.786 8.033-.193.467-.621 1.189-.905 1.881-.201.489-.329.974-.36 1.403-.451.764-.864 1.546-1.206 2.344-.129.301-.45.716-.69 1.124-.284.484-.474.971-.511 1.362 0 .007-.001.014-.001.022-.401.612-.823 1.237-1.219 1.863-.008-.03-.017-.062-.026-.096.04-.123.062-.254.062-.39 0-2.97.949-6.069 2.065-8.773.147-.356.116-.742-.051-1.058.094-.232.183-.468.283-.718.18-.449.318-.941.318-1.425 0-.325-.012-.837-.12-1.228-.098-.351-.268-.639-.473-.844-.467-.467-1.067-.583-1.723-.338-.352.131-.749.451-1.023.698-.048.008-.095.018-.138.029.05-.424.082-.862.078-1.285.229-.225.371-.539.371-.886 0-.308-.09-1.744-.43-2.394-.256-.491-.635-.757-1.019-.859-.007-.01-.013-.02-.02-.03-.466-.669-1.098-1.033-1.975-.83-.31-.008-.604.067-.875.225-.21.056-.416.134-.569.185-.524.174-.99.355-1.428.59-.013.005-.027.01-.04.015-1.69.65-2.784 1.24-3.968 2.686-.011.014-.022.028-.034.042-.437.099-.825.345-1.159.714-.288.319-.536.752-.756 1.169-.103.198-.175.398-.28.503.032-.032.052-.046.058-.05.022-.019.044-.036.066-.052-.104.088-.187.163-.21.19-.065.074-.117.147-.157.216-2.457 1.416-4.977 2.723-7.475 4.061-.352.189-1.132.499-1.871.862-.031-.088-.075-.182-.134-.279-.158-.258-.585-.68-.942-.863-.226-.115-.442-.171-.643-.181l-.266-.169c-1.449-1.608-3.036-3.021-4.73-4.433-.283-.236-.793-.506-1.291-.769-.212-.112-.541-.321-.592-.353-.162-.197-.372-.331-.6-.4-.321-.291-.64-.58-.957-.869-.614-.558-1.192-1.208-1.712-1.865.097-.407-.012-.854-.33-1.171-.307-.307-.595-.448-.839-.503-.139-.185-.256-.343-.308-.418-.804-1.161-1.488-2.289-2.074-3.578-.017-.037-.035-.072-.054-.106.052-.122.116-.339.142-.621.044-.48.023-1.395.023-1.439 0-.152.042-1.639-.003-2.719-.018-.415-.058-.784-.109-1.053.113-.189.2-.34.398-.776.084-.184.337-.546.432-.746.053-.112.09-.217.114-.313l.11-.181c.267-.376.537-.751.808-1.127.385-.533.754-1.079 1.119-1.626.146-.22.401-.58.551-.791l.41-.435c.096-.102.195-.203.295-.302.422-.359.847-.714 1.27-1.072.355-.091.664-.338.824-.692.019-.02.073-.073.142-.14.122-.108.243-.215.363-.324l.001-.001c.616-.484 1.385-.958 1.703-1.193 2.086-1.537 4.216-2.991 6.384-4.396 1.146-.647 2.314-1.264 3.529-1.831.124-.058.235-.134.33-.224 2.594-1.162 5.228-2.246 7.881-3.255.176.05.385.063.631.011.145-.031 1.165-.333 1.568-.404 1.386-.245 1.351-.142 2.699-.401 2.104-.404 4.242-.614 6.371-.88.301-.038.564-.181.756-.387h.013c2.063.288 4.258.869 5.932 1.586 1.098.47 1.968 1.098 2.821 1.738.066.049.179.156.309.278.114.221.234.441.363.657.383.638.933 1.221 1.442 1.825.017.02.034.04.05.06-.019.088-.031.186-.034.295-.004.166.053.46.053.655 0 .613 0 .557-.221 1.158-.481 1.303-.843 2.527-.993 3.846-.108.212-.216.425-.324.638-.445.599-.911 1.181-1.383 1.758-.374.111-.674.393-.81.756-.166.147-.721.641-.85.759-1.14 1.053-2.335 2.039-3.472 3.091-.407.248-.816.505-1.215.772-.198-.092-.407-.124-.624-.112-.267.015-.959.444-.959.444s.043-.034.062-.046c-.301.201-.487.511-.538.844-.134.115-.266.231-.397.348-1.022.552-2.054 1.084-3.088 1.603-.314.063-.618.135-.897.22-.701.213-1.278.518-1.668.878-.021.003-.04.005-.058.007-.246.027-.631.133-.924.206-.326.044-.649.088-.965.135-.826.124-1.608.221-2.417.453-.252.071-.753.159-1.009.276-.022.01-.043.02-.064.031-.862.111-1.726.188-2.582.091-.633-.072-1.214-.246-1.83-.386-.192-.044-.375-.089-.563-.149.026.009.096.036.096.036s-.368-.082-.635-.125c-.412-.201-.819-.412-1.229-.607-.672-.32-1.348-.67-1.927-1.144-.416-.34-.671-.757-1.037-1.124-.092-.091-.181-.159-.265-.21-.06-.079-.13-.152-.21-.218-.532-.433-1.316-.352-1.749.18-.246.302-.388.721-.216 1.23.07.208.434.665.434.665s-.029-.033-.037-.042c.149.176.302.35.458.52.024.075.052.15.08.206.147.294.401.521.571.804.692 1.154 1.964 1.723 3.021 2.462.27.189.732.517 1.152.653.309.099.612.122.891.076.314.126.628.25.956.344.231.065.485.147.722.186.013.003.039.004.073.003.298.099.642.2.94.232.123.014.242.017.356.012.064.029.132.053.203.071 0 0 .477.121.896.14.296.013.574-.028.784-.1h.471c1.497 0 3.038.103 4.513-.192 1.081-.216 2.113-.63 3.12-1.123.321.282.78.391 1.215.246 1.03-.343 2.087-.799 3.109-1.341.053 0 .107-.003.163-.011.227.033.494.02.793-.074.399-.124 1.035-.467 1.532-.753.449-.153.923-.273 1.351-.415.19-.064.572-.3.979-.708l.706-.7c.172-.092.361-.206.54-.325 1.685-.474 2.545-.887 3.75-2.575.155-.216.23-.465.232-.712.268-.286.537-.586.718-.815.114-.145.203-.279.267-.391.145-.118.296-.262.445-.435.407-.471.91-1.182 1.232-1.732.277-.365.53-.819.748-1.168.384-.614.587-1.023.682-1.256.018-.018.036-.036.054-.056.07-.076.289-.43.323-.485.327-.461.574-.956.793-1.481.203-.488.651-1.33.938-2.068.294-.103.55-.316.7-.617.466-.932.91-2.996.632-4.606-.119-.688-.36-1.293-.727-1.768-.061-.274-.191-.5-.371-.685-.094-.096-.205-.187-.342-.261-.112-.391-.303-.786-.559-1.177-.733-1.123-2.09-2.216-2.818-2.837-.18-.189-.368-.374-.562-.552-.215-.246-.471-.552-.709-.775-.348-.327-.707-.526-.974-.597-.078-.021-.154-.036-.229-.045-.97-.567-1.989-.948-2.953-1.049-.406-.199-.736-.341-.833-.363-1.851-.428-3.709-.59-5.594-.622-.083-.023-.173-.04-.267-.049-.105-.01-.219-.008-.331.002-.191-.247-.509-.455-1.036-.455-.136 0-.351.021-.604.055l-.67.047c-.43.029-.86.07-1.29.099-.448.03-.923.05-1.406.078zm-20.464 53.524c-.182.125-.688.471-.871.575-1.439.813-2.747 2.261-4.258 2.865-.009.004-.017.007-.026.01-.151.104-.309.202-.347.226-.546.49-1.114.953-1.659 1.444-.079.117-.163.246-.227.321-.205.24-.422.357-.555.41-.084.034-.166.059-.245.075-.338.347-.669.701-.993 1.06-.531.778-1.116 1.53-1.643 2.267-.082.114-.162.229-.243.343-.057.306-.115.574-.13.62-.199.637-.366 1.334-.632 1.948l-.039.11c.052.084.1.18.139.289.064.179.098.527.15.696.083.269.178.469.315.698.174.232.371.539.371.539.046.074.084.151.113.23.126.063.238.123.328.175.043.025.468.302.707.523.178.038.337.079.466.118.19-.024.38-.051.57-.076.201-.148.441-.284.71-.401.632-.277 1.458-.466 1.957-.609.069-.019.545-.15.806-.176.021-.002.042-.004.063-.005.162-.117.309-.217.348-.244.386-.271.773-.566 1.145-.874.584-.679 1.32-1.474 1.973-1.822.074-.126.149-.25.231-.372.138-.207.362-.469.612-.756l.022-.041c.57-1.141 1.157-2.333 1.688-3.513.042-.182.082-.353.104-.443.152-.607.239-1.259.318-1.89.012-.094.02-.207.033-.325l-.019-.594-.014-.347c-.016-.04-.033-.084-.048-.131-.211-.466-.332-.972-.423-1.489-.049-.277-.081-.559-.132-.833-.015-.044-.031-.088-.048-.133-.049-.127-.091-.258-.129-.391-.018.001-.036.001-.053.001-.153 0-.3-.027-.435-.078zm20.825-11.505c-.081-.009-.163-.026-.243-.051-.04-.013-.079-.027-.117-.043-.122.004-.271.009-.295.012-.169.024-.334.057-.495.098-.179.296-.48.516-.847.581-.204.036-.403.222-.619.403-.197.165-.39.347-.573.53-.062.265-.211.511-.442.693-.194.152-.302.387-.422.609-.149.276-.291.556-.452.806-.835 1.303-1.753 2.582-2.298 4.043-.034.093-.079.179-.131.258-.128.64-.208 1.295-.308 1.755-.078.355-.154.712-.232 1.069-.025.228-.047.456-.064.685-.036.485-.079 1.101-.203 1.672.124 1.267.244 2.531.41 3.793.264.182.728.529 1.085.898.051-.068.103-.136.154-.205l.041-.057c.005-.012.01-.023.016-.034.16-.638.584-1.294.858-1.874.67-1.415 1.284-2.844 2.154-4.149.034-.05.07-.097.11-.141.009-.014.018-.028.028-.042.068-.103.133-.208.197-.314.095-.324.191-.649.28-.975.326-1.195.753-2.319 1.177-3.463-.038-.259-.029-.556.045-.873.133-.566.499-1.277.627-1.57.474-1.083.951-2.199.951-3.401 0-.058.004-.114.012-.169-.137-.133-.282-.32-.404-.544zm18.811 11.861c-1.406 1.872-3.076 3.483-4.463 5.333-.068.09-.14.179-.216.268.111 0 .189.001.189.001s-.04-.001-.054-.001c.296 0 .487-.049.75-.136.797-.266 1.852-1.081 2.421-1.744 1.004-1.172 1.151-2.32 1.373-3.721zm13.38-4.386c-.103.063-.218.107-.321.167-.791.547-1.311 1.424-1.9 2.175-.168.214-.322.437-.481.657-.011.044-.022.082-.032.111-.072.217-.157.457-.267.677-.036.071-.074.142-.113.212-.143.476-.243.96-.364 1.448-.047.186-.12.384-.199.587l-.006.017c.003.165-.011.336-.037.507l-.004.021.076.223c.129-.007.364-.026.532-.067.147-.132.318-.223.497-.273.322-.245.566-.556.82-.871.33-.41.661-.837 1.064-1.239.072-.073.152-.134.236-.185.293-.667.583-1.372.769-2.094-.03-.694-.132-1.393-.27-2.073zm-.035-.168c-.083.071-.168.141-.25.215l.284-.054c-.011-.054-.022-.108-.034-.161zm-.023.188-.006.003c.022-.007.044-.015.063-.024z" fill="#cd6799"/></svg>