<svg xmlns="http://www.w3.org/2000/svg" viewBox="0 0 99.67 100"><defs><style>.cls-1{fill:#edd94d;}</style></defs><title>icon-js</title><g id="Layer_2" data-name="Layer 2"><g id="Layer_1-2" data-name="Layer 1"><path class="cls-1" d="M99.656,97.011c-.226-2.559-.729-5.1-.793-7.693-.065-2.769-.356-5.619-.243-8.307.178-4.534.307-9.052.291-13.587-.032-5.085-.162-10.153-.194-15.238,0-2.575-.065-5.15-.227-7.676-.178-2.8.324-5.668.389-8.486.065-3.174-.227-6.153-.13-9.327.114-3.628.2-7.271.357-10.9.162-3.741.032-7.465.145-11.206.033-1.214.567-1.814-.032-2.963C98.458.22,97.211.09,95.656.074c-2.445-.016-4.728.891-7.141.842C85.13.867,81.746.5,78.361.463,70.216.382,62.038.544,53.892.592q-6.656.049-13.279.486C36,1.4,31.269.965,26.638.8,22.266.657,17.909.544,13.521.544c-1.8.016-3.6.048-5.409.048C6.8.608,4.485.2,3.367,1.094a1.357,1.357,0,0,0-2.688.292C1.133,4.511.6,8.22.6,11.41c0,3.384.162,6.753.211,10.137C.89,28.753.679,35.96.728,43.166c.016,4.356.243,8.615.048,12.955Q.559,61.611.355,67.1C.112,73.643-.114,80.185.064,86.744c.048,1.862.146,3.724.243,5.587.048.858.1,1.732.129,2.607A22.123,22.123,0,0,0,.274,97.8c.389,2.316,4.065,1.3,5.6,1.425A32.734,32.734,0,0,0,9.861,99.1a27.116,27.116,0,0,0,3.028-.114c.227-.032.826-.21,1-.21.162.016.567.259.7.259,1.182-.065,3.87-.729,4.955-.162.453.243.518.891,1.263,1.069A11.975,11.975,0,0,0,24,99.65a98.456,98.456,0,0,1,10.672-.81c1.166.017,2.3.292,3.5.292,1.652,0,2.964.34,4.567.292,6.688-.146,13.635-.713,20.274.129A28.055,28.055,0,0,0,68.4,99.2c1.96-.146,3.919-.162,5.878-.2,2.478-.032,4.972-.032,7.45-.048,3.74-.032,7.5-.081,11.254,0,1.506.032,3-.032,4.454.016C98.992,99.019,99.786,99.019,99.656,97.011ZM54.33,61.643c-.017,1.474-.017,2.964-.017,4.453a29.119,29.119,0,0,1-.388,4.357c-.162,1.214.388,2.639.421,3.886a20.272,20.272,0,0,1-.6,4.146c-.26,1.473-.405,2.979-.567,4.469-.13,1.409-1.053,2.284-1.879,3.433-.7.956-1.506,2.64-2.413,3.369a8.854,8.854,0,0,1-2.866,1.052c-2.057.567-5.052,1.231-7.174.81a19.694,19.694,0,0,0-3.125-.567,7.175,7.175,0,0,1-3.433-1.376c-1.312-.891-2.462-1.085-3.4-2.413-.551-.745-1.02-1.522-1.571-2.267-.178-.211-1.231-1.231-1.231-1.425.017-.632,3.709-2.494,4.389-2.98.761-.518,2.154-1.846,3.125-1.814,1.15.033,1.6,1.911,2.106,2.915A3.386,3.386,0,0,0,39.5,83.408,7.085,7.085,0,0,0,43.69,81.5c.794-.939,2.381-3.676.826-4.47,1.943-.566.567-5.878.437-7.352-.275-2.882-.923-6.315-.469-9.036a14.114,14.114,0,0,0,.388-2.51c0-.712-.016-1.425-.016-2.137,0-1.183-.016-2.365-.016-3.547,0-2.235.065-4.469.032-6.7a57.846,57.846,0,0,0,9.474-.1C54.281,50.988,54.346,56.3,54.33,61.643Zm36.727,18.3c-.518,1.587-.405,3.644-1.166,5.037A13.566,13.566,0,0,1,86.1,88.93a15.487,15.487,0,0,1-10.818,2.7c-1.247-.113-2.688,0-3.805-.226a17.784,17.784,0,0,1-5.231-2.09A22.293,22.293,0,0,1,62.3,86.7a17.317,17.317,0,0,1-3.061-4.68c1.668-.939,3.3-1.943,4.988-2.882,1.652-.907,1.879-.745,3.109.55a10.952,10.952,0,0,0,7.9,3.692c2.51.1,6.3-1.489,6.8-4.194.761-4.145-3.271-4.68-6.024-6.024a10.2,10.2,0,0,0-2.137-1.1c-.47-.13-.664-.065-1.183-.243a20.752,20.752,0,0,1-5.02-3.19A12.343,12.343,0,0,1,62.7,62.307c-.583-1.636-1.458-3.384-1.215-5.133.227-1.684.227-3.709,1.166-5.134,1.571-2.364,4.907-5.328,7.644-6.008,1.668-.421,4.226-1.2,5.927-1.02,1.732.178,3.66.972,5.408,1.312,1.847.372,3.207,2.04,4.454,3.481.5.567.939,1.2,1.409,1.782.323.421,1.133.874,1.311,1.247-2.429,1.6-5.165,2.656-7.546,4.4a9.192,9.192,0,0,0-2.008-2.477c-1.053-1.02-1.733-.875-3.012-.988-2.17-.227-4.6-.47-5.36,2.3-.567,2.057,1.149,4.616,2.672,5.863S77,63.165,78.588,64.04A37.557,37.557,0,0,0,82.361,66a14.511,14.511,0,0,1,3.433,1.377c.6.469.81,1.166,1.587,1.716A4.924,4.924,0,0,1,89.924,72.9C90.28,75.359,91.867,77.416,91.057,79.942Z"/><path d="M91.057,79.942c-.518,1.587-.405,3.644-1.166,5.037A13.566,13.566,0,0,1,86.1,88.93a15.487,15.487,0,0,1-10.818,2.7c-1.247-.113-2.688,0-3.805-.226a17.784,17.784,0,0,1-5.231-2.09A22.293,22.293,0,0,1,62.3,86.7a17.317,17.317,0,0,1-3.061-4.68c1.668-.939,3.3-1.943,4.988-2.882,1.652-.907,1.879-.745,3.109.55a10.952,10.952,0,0,0,7.9,3.692c2.51.1,6.3-1.489,6.8-4.194.761-4.145-3.271-4.68-6.024-6.024a10.2,10.2,0,0,0-2.137-1.1c-.47-.13-.664-.065-1.183-.243a20.752,20.752,0,0,1-5.02-3.19A12.343,12.343,0,0,1,62.7,62.307c-.583-1.636-1.458-3.384-1.215-5.133.227-1.684.227-3.709,1.166-5.134,1.571-2.364,4.907-5.328,7.644-6.008,1.668-.421,4.226-1.2,5.927-1.02,1.732.178,3.66.972,5.408,1.312,1.847.372,3.207,2.04,4.454,3.481.5.567.939,1.2,1.409,1.782.323.421,1.133.874,1.311,1.247-2.429,1.6-5.165,2.656-7.546,4.4a9.192,9.192,0,0,0-2.008-2.477c-1.053-1.02-1.733-.875-3.012-.988-2.17-.227-4.6-.47-5.36,2.3-.567,2.057,1.149,4.616,2.672,5.863S77,63.165,78.588,64.04A37.557,37.557,0,0,0,82.361,66a14.511,14.511,0,0,1,3.433,1.377c.6.469.81,1.166,1.587,1.716A4.924,4.924,0,0,1,89.924,72.9C90.28,75.359,91.867,77.416,91.057,79.942Z"/><path d="M54.346,74.339a20.272,20.272,0,0,1-.6,4.146c-.26,1.473-.405,2.979-.567,4.469-.13,1.409-1.053,2.284-1.879,3.433-.7.956-1.506,2.64-2.413,3.369a8.854,8.854,0,0,1-2.866,1.052c-2.057.567-5.052,1.231-7.174.81a19.694,19.694,0,0,0-3.125-.567,7.175,7.175,0,0,1-3.433-1.376c-1.312-.891-2.462-1.085-3.4-2.413-.551-.745-1.02-1.522-1.571-2.267-.178-.211-1.231-1.231-1.231-1.425.017-.632,3.709-2.494,4.389-2.98.761-.518,2.154-1.846,3.125-1.814,1.15.033,1.6,1.911,2.106,2.915A3.386,3.386,0,0,0,39.5,83.408,7.085,7.085,0,0,0,43.69,81.5c.794-.939,2.381-3.676.826-4.47,1.943-.566.567-5.878.437-7.352-.275-2.882-.923-6.315-.469-9.036a14.114,14.114,0,0,0,.388-2.51c0-.712-.016-1.425-.016-2.137,0-1.183-.016-2.365-.016-3.547,0-2.235.065-4.469.032-6.7a57.846,57.846,0,0,0,9.474-.1c-.065,5.344,0,10.655-.016,16-.017,1.474-.017,2.964-.017,4.453a29.119,29.119,0,0,1-.388,4.357C53.763,71.667,54.313,73.092,54.346,74.339Z"/></g></g></svg>