<svg clip-rule="evenodd" fill-rule="evenodd" stroke-linejoin="round" stroke-miterlimit="2" viewBox="0 0 75 76" xmlns="http://www.w3.org/2000/svg"><path d="m.786 6.618c.006.507.019 1.015.022 1.522-.084 3.115-.043 6.235.052 9.356-.235.187-.441.484-.471.95-.046.711-.125 4.266-.125 4.316 0 2.349.113 4.698.247 7.047-.079.311-.138.648-.176 1.006-.221 2.108.173 5.068.202 6.142.047 1.788.143 3.57.272 5.346v11.644c0 2.113-.407 4.965-.488 7.636-.055 1.833.046 3.586.468 5.015-.038 2.135-.117 4.258-.117 6.414 0 .674.547 1.22 1.221 1.22.176 0 .345-.037.496-.105.201.045.415.039.625-.026 1.109-.343 2.664-.401 4.321-.378 2.441.033 5.087.262 7.029.25.459.163.909.259 1.283.259 2.396 0 4.809.137 7.217.137 5.991 0 11.898.614 17.838.3 1.771.142 3.543.244 5.313.244h6.809c1.137 0 3.4.265 3.4.265.497.057.965-.193 1.201-.609h.698c1.657 0 3.289.013 4.942.155.66.057 1.3.084 1.964.084.607 0 1.212-.008 1.819-.027.39-.013.782-.013 1.172-.027.306-.011.607-.026.913-.026.846 0 1.662.023 2.484-.033.33.342.749.348.933.338.098-.006.68-.069.983-.582.338-.184.564-.467.662-.859.164-.66.076-1.313-.139-1.963-.057-.174-.129-.346-.202-.518v-.259c.234-.192.408-.496.408-.972 0-.551-.035-1.098-.089-1.643-.018-.242-.039-.457-.063-.6l-.007-.044c-.043-.368-.091-.736-.138-1.105-.122-1.312-.111-2.682-.111-3.962 0-5.472-.177-10.97-.001-16.438.046-1.412.137-2.834.137-4.261v-2.043c0-.189-.043-.37-.121-.53.026-.792.043-1.583.043-2.372 0-1.506-.026-3.011-.026-4.516 0-.182-.006-.361-.014-.539-.007-.679-.018-1.193-.018-1.193-.004-.175-.044-.34-.114-.489l-.004-.032c.008-.718.012-1.437-.005-2.153.083-3.26.165-6.518.213-9.766l.042-.506c.087-1.04.14-2.193.14-3.233 0-.156-.064-.795-.137-1.319l.001-.588c0-.124-.011-.237-.03-.34.113-.19.216-.454.25-.79.064-.623-.084-1.884-.084-2.138v-4.043c.015-.222.023-.404.019-.515-.003-.07-.009-.136-.019-.198v-1.917c0-1.211-1.052-1.323-1.158-1.33-.097-.006-.3-.009-.52.069-.415-.292-1.006-.471-1.77-.483-.584-.009-1.306.065-2.042.143-.865-.161-2.233-.3-2.403-.3-.072 0-.888-.004-1.27.058-.221.036-.401.107-.541.186-.223-.052-.481-.085-.759-.091-.663-.013-1.515.12-1.924.12-2.432 0-4.866.239-7.298.417-1.145-.163-2.207-.325-3.066-.411-1.685-.169-3.467-.279-5.16-.279h-1.907c-.281 0-.541.096-.747.256-2.197-.142-4.401-.12-6.606-.12-.057 0-.353.024-.752.063-2.22-.148-4.436-.32-6.657-.468-.465-.031-1.756-.285-2.682-.247-.754.031-1.344.279-1.667.601-.003.003-.07.181-.118.432l-.54-.009c-.5-.056-.907-.091-.979-.096-2.681-.192-5.432-.139-8.122-.139-.231 0-1.671-.15-2.365-.086-.271.025-.496.092-.674.172-.709-.046-1.411-.086-2.136-.086-.294 0-.907-.06-1.225-.026-.053.006-.104.014-.153.023-.497-.046-1.001-.086-1.516-.129-.735-.062-1.403-.141-2.144-.141h-1.294l-.041.002c-.558.012-.93.119-1.16.283-.315-.13-.589-.092-.768-.05-.346.081-.783.312-.944.915-.208.129-.488.384-.555.894-.027.202.07 1.113.192 1.676l.009.04c-.044.381-.078.726-.085.799-.168.495.003 1.039.407 1.353z" fill="#f0db4f"/><path d="m49.802 58.632-.266.122c-.522.252-1.03.531-1.543.797-.891.462-1.758.972-2.61 1.503-.182.113-.493.382-.796.577.155.165.283.323.333.387.392.499.721 1.054 1.038 1.603.057.099.206.327.327.564.415.34.789.721 1.142 1.144.003.004.029.043.068.103.362.292.72.589 1.08.883.065.015.132.037.202.067.096.04.338.199.422.255l.197.102c.021.008.04.016.056.024.258.125.513.258.766.393.272.054.53.137.812.241.496.184.991.407 1.473.644.272.007.543.015.814.027.003 0 .585.04.875.127.149.045.276.106.38.173.149.006.298.015.447.027l.374.034c.052.006.1.013.144.023.062.01.124.022.183.036h.185c.478-.062.956-.116 1.437-.157.035-.003.703-.069 1.033-.036.043.004.086.01.126.018.167-.025.334-.045.499-.056h.002c.512-.111.506-.119.987-.239.866-.264 1.803-.538 2.664-.612l.003-.001c.199-.151.49-.316.523-.335.377-.223.773-.441 1.173-.641.283-.294.572-.583.866-.87.435-.422.869-.801 1.329-1.177.189-.404.373-.811.581-1.206.086-.164.175-.326.266-.487.152-.534.315-1.065.502-1.587.039-.203.081-.406.126-.608.007-.03.086-.313.163-.59-.003-.642-.011-1.284-.03-1.926-.002-.074-.008-.163-.014-.26-.135-.386-.253-.776-.344-1.176-.056-.245-.117-.519-.159-.794l-.077-.293c-.037-.144-.073-.289-.109-.434l-.244-.619c-.109-.166-.219-.333-.328-.499l-.647-.971c-.014-.018-.041-.053-.074-.098-.404-.369-.813-.732-1.222-1.094-.025-.023-.124-.122-.249-.253-.829-.461-1.636-1.033-2.393-1.522-.556-.358-1.119-.666-1.69-.983-.262-.029-.536-.121-.805-.278-.143-.083-.367-.243-.525-.359l-.078-.039c-.018-.003-.036-.007-.055-.01-.122-.026-.42-.149-.483-.176-.329-.116-.592-.312-.91-.449-.499-.214-1.143-.463-1.655-.776-.224-.052-.44-.133-.644-.255-.483-.29-.864-.707-1.324-1.014-.231-.154-.35-.326-.419-.469-.263-.23-.414-.563-.416-.909-.077-.218-.119-.457-.122-.71-.001-.11.006-.222.021-.337-.036-.276-.015-.562.072-.853.097-.321.256-.569.459-.753.037-.131.101-.267.197-.405.082-.117.262-.309.531-.462.296-.168.744-.312.845-.327.158-.022.399-.037.669-.03.151-.007.316-.002.473.005.225-.12.538-.191.943-.056.022.007.06.025.104.05.091 0 .177.005.243.019.197.041.372.115.522.219.231.024.458.113.65.272l.066.059v-.001l.245.231c.241.18.479.388.687.594l.011.011c.172.15.341.312.467.48.206.276.334.572.382.868.004.021.008.042.012.063.239-.12.482-.234.725-.345.579-.449 1.185-.856 1.796-1.263.187-.124.474-.344.745-.471.048-.022.096-.043.145-.06l.128-.095.334-.242c.058-.091.13-.175.214-.251.37-.328.771-.605 1.186-.867-.129-.187-.257-.374-.383-.562-.471-.625-.96-1.255-1.388-1.909-.164-.1-.356-.246-.535-.39-.264-.164-.53-.324-.795-.488-.009-.005-.353-.269-.602-.479-.228-.096-.456-.194-.674-.304-.175-.087-.349-.178-.517-.279-.072-.043-.176-.113-.28-.188-.245-.056-.489-.118-.729-.187-.518-.09-1.035-.188-1.515-.352-.479-.036-.962-.043-1.437-.101-.114-.001-.217-.012-.311-.033-.073-.006-.15-.013-.219-.024-.274.023-.548.051-.822.082-.39.045-.356.014-.727.039l-.298.03-.117.006-.003-.046-.243.024-.468.067c-.356.09-.712.186-1.066.292l-.432.149c-.422.194-.844.389-1.269.578-.23.103-.366.16-.481.209-.588.444-1.169.899-1.728 1.375-.027.023-.054.047-.081.071-.062.127-.144.242-.244.34-.017.028-.037.06-.059.097-.183.3-.459.74-.629 1.025-.17.286-.336.575-.499.866l-.028.065c-.09.257-.197.505-.311.749-.108.259-.218.516-.336.769l-.012.063c-.091.475-.176.964-.245 1.456.006.671.036 1.332.123 2.001.046.364.1.726.159 1.089.202.792.472 1.61.672 2.423.014.018.023.03.027.035.15.195.73.871.881 1.306.022.065.04.129.053.191l.084.097c.049.059.098.118.147.177l.141.175c.391.325.781.663 1.14 1.027.181.149.357.303.529.462.429.269.864.528 1.296.791.247.082.522.222.62.271.562.281 1.104.593 1.66.879.114.016.231.04.351.074.487.139 1.081.467 1.36.585.372.157.441.202.661.328.147.054.293.111.438.172.138.058.275.116.415.167.082.02.388.098.499.147.14.061.254.137.347.217.712.22 1.378.588 1.747.946.377.15.77.588.77.588s-.024-.027-.037-.041c.38.381.587.58.709 1.064.008.035.019.094.029.166.297.63.294 1.339.116 2.05-.169.678-.759 1.325-1.401 1.691-.097.083-.198.159-.3.223-.069.065-.139.125-.21.179-.063.048-.129.092-.198.131-.207.171-.428.314-.648.394-.3.111-.598.148-.884.103l-.146.015-.089.002c-.18.033-.387.047-.565.018-.027-.004-.053-.009-.079-.015-.115.022-.21.036-.242.037-.28.013-.581.015-.859-.021-.075-.01-.306-.067-.52-.148-.7-.099-1.561-.518-1.859-.696-.16-.097-.534-.328-.79-.591l-.021-.013c-.315-.177-.619-.372-.894-.592-.187-.151-.503-.448-.637-.669l-.014-.026c-.096-.102-.186-.214-.27-.334-.099-.142-.182-.307-.269-.452-.129-.129-.387-.394-.51-.567l-.008-.012c-.034-.035-.068-.071-.101-.109zm-17.61 3.361c-.178.065-.391.156-.394.158-.217.098-.426.209-.629.328-.007 0-.013.001-.019.001-.199.016-.678-.048-.807-.066-.242.004-.574.044-.85.025-.294-.019-.557-.09-.764-.194-.033-.016-.066-.034-.097-.051-.318-.14-.719-.407-.759-.446-.081-.082-.158-.173-.231-.27-.076-.036-.143-.071-.189-.099-.168-.103-.299-.22-.399-.337-.097-.077-.376-.3-.433-.368-.09-.107-.149-.209-.188-.296-.02-.043-.037-.086-.051-.128-.136-.171-.261-.357-.375-.555-.113-.194-.215-.4-.307-.607-.059.025-.115.051-.163.075-.15.076-.298.156-.437.234-1.223.704-2.444 1.414-3.634 2.171-.668.425-.723.461-1.254.794.016.032.033.064.049.097.197.384.38.775.56 1.168l.382.494c.077.046.157.102.238.169.242.2.626.646.716.752l.274.282.045.023c.124.067.393.307.47.376.152.117.299.24.445.365.399.34.795.683 1.194 1.023h.009c.391 0 .736.196 1.055.387l.139.082.574.29c.328.136.654.265.981.383.114.019.229.038.344.056.652.007 1.305-.007 1.957-.007.928 0 1.854-.044 2.782-.032.211-.031.424-.058.635-.075.513-.166 1.026-.334 1.551-.458.059-.013.211-.047.397-.081l.96-.495c.494-.46 1.048-.867 1.59-1.262.059-.042.166-.115.295-.191.185-.212.365-.427.537-.648 1.193-1.534 1.687-3.189 2.138-4.98-.029-.093-.052-.193-.067-.3-.077-.523.093-1.489.062-1.824-.023-.259-.043-.502-.043-.765v-.419c.003-.402.053-.712.138-.944.001-.577.007-1.155.016-1.734.009-.572.013-1.202.061-1.83-.083-2.324-.21-4.653-.176-6.978.017-1.212-.017-2.448.08-3.657.012-.145.044-.386.105-.626.019-1.97.084-3.934.084-5.856 0-.156-.001-.313-.001-.47-.124-.009-.246-.018-.364-.026l-1.259.01-1.161.01-.168.004c-1.347.022-2.694.051-4.04.084-.016.381-.038.762-.06 1.144-.006.248-.009.496-.009.745v.037c.277.335.367.807.193 1.238-.157.386-.158.839-.146 1.294.016.649.083 1.306.068 1.886-.068 2.629-.106 5.246-.114 7.872.034.099.059.211.069.337.012.15-.026.421-.034.561-.009.159-.014.318-.017.476.082.208.142.44.176.69.102.742-.041 1.727-.041 2.228v1.462c0 .013 0 .302-.028.463-.01.057-.023.111-.039.162.018.292.028.584.028.876 0 .68.068 1.534-.139 2.155-.089.266-.034.57-.046.86-.018.445-.096.873-.29 1.262-.035.071-.079.142-.132.209-.065.191-.137.368-.214.522-.162.324-.453.592-.828.74l-.001.015zm11.496-3.348c.006.024.012.047.017.071l.036-.025c-.017-.014-.035-.029-.053-.046z" fill="#323330"/></svg>