<svg clip-rule="evenodd" fill-rule="evenodd" stroke-linejoin="round" stroke-miterlimit="2" viewBox="0 0 71 76" xmlns="http://www.w3.org/2000/svg"><path d="m35.643.525c-.072-.023-.152-.043-.24-.056-.126-.019-.31-.022-.506-.01-.092-.001-.223.008-.378.04-.157.025-.3.058-.401.099-.069.028-.132.059-.191.092-.281.108-.575.233-.647.263l-.343.122-.696.24c-.105.03-.193.059-.252.083-.031.012-.061.026-.09.039-.195.072-.431.163-.784.305-.97.388-1.941.783-2.908 1.186-.089.018-.147.03-.159.033-.271.068-.965.262-1.057.317-.16.094-.28.199-.37.309-.32.046-.67.112-.862.167-1.067.305-2.128.643-3.181.994-.248.083-.436.142-.623.209-1.934.392-3.944 1.365-5.627 2.074-.839.353-1.7.626-2.539.976-.198.083-.663.21-.883.293-.231.087-.384.189-.455.245-.109.087-.195.178-.262.27-.401.151-.803.299-1.204.446-.432.065-.945.188-1.218.279-.824.275-1.622.606-2.445.88-.071.024-.162.044-.262.064-.494.067-.922.131-1.211.203-.286.071-.577.134-.868.199-.743.08-1.729.25-2.218.515-.273.148-.472.328-.611.521-.088.023-.166.047-.234.072-.12.04-.81.276-1.076.454-.435.291-.596.682-.638.962-.057.38.02.769.373 1.122.012.012.024.024.037.036.059 2.022.4 4.067.813 6.111.086.511.18 1.018.275 1.519.087.457.167.915.256 1.372-.019.472-.011.956.018 1.447-.1.373-.148.827-.116 1.336.089 1.415.639 3.457.711 3.994.567 4.192.892 8.484 1.55 12.694.058.659.126 1.316.205 1.969.041 1.861.33 3.643.594 5.492.084.588.209 1.171.293 1.76.043.298.089.9.089.9.018.224.094.43.213.603.19 1.267.338 2.533.366 3.783-.049.179-.077.426.013.688.075 1.234.654 1.465 1.234 1.258.208.074.415.092.6.028l.125.058.521.235c.44.321.923.566 1.418.789.04.024.086.049.138.073.03.013.082.031.142.051.2.087.401.173.6.259.068.168.178.338.352.497.148.135.454.32.842.458.142.05.3.099.452.142.022.012.042.022.059.03.57.263.95.378 1.53.668.578.289 1.156.569 1.737.842.009.245.085.526.3.799.094.119.292.266.499.401.072.162.193.332.392.489.197.156 1.596.75 1.635.763.045.015.186.054.385.11.452.286.931.565 1.377.774.556.262 1.085.416 1.513.446 2.526 1.455 5.035 2.936 7.502 4.505.804.512 2.368 1.774 3.735 2.488.723.378 1.417.605 1.982.637.307.16.69.209 1.141.062.437-.142 1.44-.965 1.547-1.054.328-.206.644-.428.956-.658.185.017.398-.009.638-.105.366-.145 1.798-1.269 1.849-1.305.516-.365 1.041-.726 1.571-1.083.104.025.221.039.353.039.243 0 .657-.102 1.104-.354.469-.265 1.08-.729 1.343-.87 1.091-.588 2.127-1.326 3.129-2.037.099.001.212-.008.337-.033.267-.056.778-.247.999-.358.488-.244.979-.641 1.453-.926 1.124-.674 2.263-1.292 3.4-1.942 2.89-1.652 5.553-2.53 8.056-3.782.4-.2.769-.518 1.121-.847.142-.133.4-.339.469-.394.643-.047 1.151-.585 1.151-1.24 0-.361-.154-.686-.4-.913.035-.065.102-.208.117-.44.047-.166.087-.387.091-.632.007-.393-.074-.85-.173-1.095l.003-.306c.066-.111.123-.243.163-.398.066-.252.188-.965.305-1.72.082-.131.14-.28.168-.441 0 0 .173-.99.211-1.489.091-1.188.128-2.363.286-3.55.024-.179.174-.687.225-1.11l.009-.093.116-.366.087-.286c.127-.175.259-.455.349-.776.125-.444.192-.987.192-.987l.038-.298.158-.601c.06-.208.117-.417.169-.627.031-.123.043-.186.044-.197.075-.451-.073-.729-.163-.857l.056-.827c.028-.418.096-1.252.096-1.252.017-.203-.016-.4-.09-.576.247-1.461.455-2.926.579-4.41.038-.463.229-1.508.23-2.32 0-.07-.001-.139-.004-.206.106-.842.194-1.693.263-2.563.012-.144.282-1.619.269-2.328-.005-.274-.057-.506-.128-.695.4-2.21.743-4.455.743-6.66 0-.095-.006-.182-.02-.263l.005-.03c.178-1.114.372-2.265.497-3.384.029-.26.172-.691.176-.967.001-.116-.009-.226-.027-.327.169-.203.23-.416.254-.504.089-.333.121-.86-.431-1.31-.086-.07-.28-.194-.567-.301-.391-.145-1.21-.359-1.454-.481-1.636-.818-3.177-1.742-5.143-2.07-2.523-.42-5.046-1.366-7.562-2.361-.061-.231-.208-.481-.526-.691-.08-.053-.682-.246-.916-.324-.449-.149-.881-.286-1.338-.411-1.518-.414-3.027-.823-4.512-1.343-2.608-.913-5.208-1.917-7.784-2.919-.554-.216-1.232-.594-1.906-.861-.608-.241-1.218-.397-1.772-.397-.479 0-.757.18-.921.339zm0 7.518c-.174.367-.469.847-.616 1.079l-.714 1.963c-.006.018-.013.036-.021.054-.415.996-.849 1.977-1.314 2.942l-.145.334c-.051.116-.102.231-.154.346l-.09.196c-1.204 3.011-2.397 6.009-3.669 8.978-.636 1.483-1.59 2.85-2.396 4.286l-.741 1.6c-.11.239-.219.479-.328.718l-.012.033c-.57 1.71-1.274 3.611-2.1 5.426-.115.347-.383 1.147-.567 1.588-.512 1.23-1.092 2.474-1.684 3.667-.017.084-.042.168-.078.25 0 0-.648 1.508-.982 2.258l-.015.034c.017.127.014.271-.015.431-.016.087-.065.265-.177.487-.142.281-.479.832-.615 1.084-.294.547-.584 1.103-.874 1.652-.731 1.38-1.33 2.804-2.143 4.135-.268.671-.577 1.295-.829 1.7l-.064.099c-.187.491-.393.987-.607 1.401-.068.132-.139.256-.212.373-.008.122-.032.255-.079.396-.083.245-.337.633-.444.848-.099.197-.225.459-.35.724 2.792-.069 5.561.1 8.357.155.016-.002.032-.005.049-.008.113-.323.223-.636.312-.929.615-2.028 1.36-3.971 2.104-5.956.09-.242.177-.485.272-.725.081-.206.161-.413.256-.612.088-.183.195-.356.29-.535.226-.423.44-.88.648-1.297.029-.057.211-.404.329-.575.138-.198.285-.319.372-.379.276-.189.539-.226.74-.222.205.004.392.051.562.143.395-.008.876.036 1.054.036.506 0 1.012.022 1.52.053.192-.007.367-.009.514-.009 1.813 0 3.626-.044 5.437-.044.382 0 1.02-.097 1.542-.071.258.013.498.053.71.116.561-.03 1.11-.026 1.614.058l.169-.01c1.001-.125 2.074-.222 2.917-.017.103.003.201.013.283.031.31.072.548.22.717.39.046.046.086.091.12.136.153-.178.314-.176.463.187l.003.008c.029.074.272.677.378.995.213.639.45 1.262.663 1.9.129.387.256.772.38 1.155l.216.5c.095.154.179.3.239.431.146.319.285.641.419.965.49.97.989 1.94 1.439 2.928.059.13.163.441.247.705l.085.143c.061.103.157.308.224.48.222-.016.444-.028.667-.036.075-.01.154-.015.239-.015.973 0 2.152-.153 3.244-.076.322.023.639.065.944.13l.383.046c.759.005 1.515.016 2.273.045-.053-.099-.102-.198-.144-.297-.133-.312-.205-.622-.22-.915-.004-.008-.008-.016-.012-.024l-.063-.129c-.385-.784-.808-1.701-1.072-2.586-.306-.508-.636-1.058-.874-1.556-.301-.63-.464-1.217-.464-1.653 0-.007 0-.014 0-.021-.274-.44-.509-.855-.676-1.235-.104-.236-.208-.474-.311-.713-1.659-3.314-3.368-6.763-4.688-10.171-.158-.409-.304-1.019-.465-1.679l-.179-.515c-.261-.635-.559-1.255-.814-1.892-.035-.088-.094-.23-.149-.374-.12-.277-.24-.555-.359-.833-.849-1.511-1.71-3.009-2.407-4.616-.119-.276-.342-.856-.535-1.396-.26-.581-.51-1.167-.747-1.76-.102-.255-.195-.519-.286-.785-.281-.444-.577-.911-.833-1.368-.554-.989-.922-1.963-.922-2.7l.001-.006c-.201-.455-.397-.912-.588-1.37-.344-.825-.655-1.658-.972-2.489-.048-.052-.095-.11-.14-.176-.094-.136-.244-.464-.401-.835-.044-.068-.087-.137-.129-.208-.069-.084-.133-.183-.191-.298-.025-.051-.056-.128-.087-.214-.117-.232-.228-.475-.332-.726-.11-.265-.214-.538-.313-.813l-.159-.369c-.417-.953-.805-1.894-1.167-2.849-.191-.414-.22-.517-.435-1.16l-.136-.41c-.03-.053-.061-.107-.09-.161zm-1.123 18.468c-.14.241-.231.502-.311.766-.052.169-.098.341-.164.503-.058.02-.093.046-.113.059-.137.093-.19.212-.21.323-.009.05-.019.136.005.23l-.006.033c-.087.304-.262.583-.391.868-.342.751-.718 1.466-.995 2.247-.094.265-.177.533-.257.801-.059.135-.119.269-.182.402-.069.147-.134.298-.194.453-.526.998-1.012 2.017-1.446 3.057-.16.198-.302.412-.418.645.004-.009.016-.031.016-.031s-.286.571-.318.832c-.008.069-.011.135-.01.199l-.009.02c-.107.244-.222.482-.333.724-.088.062-.133.134-.157.18-.026.05-.042.1-.051.148-.016.053-.022.104-.022.148 0 .051.048.485.497.499h.01c.231.067.58.01.808-.002.655-.035 1.316-.041 1.973-.041h1.332s.02-.029.02-.029c.243.004.486.008.73.008.106 0 .291.022.442.012.109-.008.208-.03.289-.062.485.012.969.029 1.455.029h.758c.028.004.209.029.279.026.08-.004.148-.022.205-.046.155.008.309.014.462.017l.326.002c.402.04.804.078 1.207.104.347.023.704.043 1.052.043h.286c.115.015.251 0 .287-.006l.013-.002c.233-.04.411-.244.411-.489 0-.167-.082-.314-.208-.405-.001-.009-.002-.019-.003-.029-.007-.048-.024-.118-.066-.195-.028-.054-.105-.161-.132-.198-.033-.06-.064-.122-.092-.186-.042-.159-.094-.353-.161-.512-.036-.084-.076-.161-.12-.227l-.202-.459c-.046-.17-.092-.33-.106-.368-.169-.488-.284-1.004-.494-1.475-.262-.591-.562-1.163-.776-1.774-.218-.622-.417-1.345-.802-1.911-.017-.044-.031-.087-.038-.13l-.007-.101c-.014-.288-.214-.386-.223-.392-.001-.001-.014-.004-.036-.009-.248-.802-.597-1.602-.988-2.32-.062-.113-.123-.226-.183-.339-.03-.066-.059-.132-.087-.199-.082-.194-.084-.181-.16-.381-.027-.067-.085-.193-.097-.217-.026-.057-.053-.091-.079-.107-.068-.208-.141-.413-.222-.617-.023-.057-.052-.122-.085-.192l-.004-.027c-.075-.486-.286-1.022-.456-1.196-.018-.027-.037-.051-.058-.072-.007-.091-.033-.16-.054-.202-.093-.186-.241-.263-.404-.279-.094-.009-.253-.011-.419.155-.085.085-.17.231-.223.418-.06.212-.087.505-.117.629-.053.217-.112.432-.174.647z" fill="#c30e2e"/></svg>