<svg xmlns="http://www.w3.org/2000/svg" width="67.998" height="100" viewBox="0 0 67.998 100"><defs><style>.ba3861a0-3239-4778-a4ff-12038eaac5da{fill:#f24e1e;}.e70c1312-98b3-470b-97ec-db0714efd6d9{fill:#a259ff;}.e3a1ccef-8c71-49c3-9c37-b855689d455d{fill:#0acf83;}.ba2153b9-5b39-48af-8f27-30fcb04403cc{fill:#ff7262;}.b4d5ab4a-d31f-4e08-9fb9-8e54efa6b4eb{fill:#1abcfe;}</style></defs><g id="b89e6e36-4927-4d8d-b2cf-d2f2bb02d2ff" data-name="Layer 2"><g id="e60318a7-ba70-42ba-88a2-ced0ab016d49" data-name="Layer 1"><path class="ba3861a0-3239-4778-a4ff-12038eaac5da" d="M34.655,31.971a1.661,1.661,0,0,0-.274-.494,1.5,1.5,0,0,0,.173-.683c0-.3-.01-.784-.037-1.43s-.075-1.42-.146-2.33-.145-1.728-.223-2.478c-.02-.2-.041-.372-.054-.534.007-.535.013-.964.013-1.292a8.527,8.527,0,0,0-.044-1.157,1.244,1.244,0,0,0-.152-.432c0-.994-.017-1.955-.047-2.881-.03-1.072-.051-1.9-.057-2.479s-.011-1.738-.011-3.476q0-1.968-.01-2.7a2.165,2.165,0,0,0,.376-1.261,1.5,1.5,0,0,0,.243-.656c.047-.436.091-1.058.129-1.87s.054-1.427.054-1.887a3.067,3.067,0,0,0-.1-.93,1.515,1.515,0,0,0-1.728-1.308.9.9,0,0,1-.324-.024,2.532,2.532,0,0,1-.518-.192,10.541,10.541,0,0,0-1.119-.44,5.863,5.863,0,0,0-1.477-.3,7.187,7.187,0,0,0-1.5.088c-.436.071-.906.139-1.407.21-.172.023-.341.047-.51.067-.186-.027-.4-.057-.643-.084-.132-.014-.28-.024-.443-.034A1.712,1.712,0,0,0,24.569.9a1.216,1.216,0,0,0-.68.038c-.281-.01-.609,0-.906-.01C22.462.863,22.056.816,21.766.8,21.4.772,20.883.755,20.214.748s-1.164.01-1.437.03a4.814,4.814,0,0,0-.812.146h-.122c-.375.027-.838.037-1.379.125-.288.044-.535.091-.748.135-.253,0-.466.014-.635.027a5.869,5.869,0,0,0-.842.135,1.464,1.464,0,0,0-.335.1,7.941,7.941,0,0,0-.822.294c-.3.125-.6.26-.875.405-.112.058-.22.119-.328.18-.041.02-.081.04-.125.064-.082.044-.166.088-.247.135a.6.6,0,0,0-.081-.02,1.378,1.378,0,0,0-1.475.845.114.114,0,0,1-.013.031c-.142.047-.281.1-.423.152a8.007,8.007,0,0,0-.93.426,6.2,6.2,0,0,0-.9.578,6.542,6.542,0,0,0-.811.757,7.351,7.351,0,0,0-.68.873c-.091.139-.182.28-.264.419a8.044,8.044,0,0,0-.706.771,8.932,8.932,0,0,0-.683,1A9.33,9.33,0,0,0,4,9.475a6.466,6.466,0,0,0-.345,1.048,1.312,1.312,0,0,0-.7.748A8.3,8.3,0,0,0,2.7,12.342c-.094.5-.162.941-.2,1.329-.01.082-.017.163-.024.244a1.627,1.627,0,0,0-.842,1.018A10.31,10.31,0,0,0,1.5,17.347a22.118,22.118,0,0,0,.041,2.4,4.808,4.808,0,0,0,.159.872,2.267,2.267,0,0,0,.521.95,1.532,1.532,0,0,0,.341.277c.061.247.132.508.233.825l.17.514a2.916,2.916,0,0,0,.084.47,1.309,1.309,0,0,0,.139.237,9.4,9.4,0,0,1,.291,1.153,7.845,7.845,0,0,0,.314,1.285,5.661,5.661,0,0,0,.429.9c.156.264.322.525.5.785s.439.595.791,1.021a12.576,12.576,0,0,0,1.021,1.126,11.8,11.8,0,0,0,.967.849,8.6,8.6,0,0,0,1.052.693q.482.268,1.8.937c.924.466,1.553.757,1.884.879a10.013,10.013,0,0,0,1.173.348,10.92,10.92,0,0,0,1.217.213c.318.034.727.1,1.235.206a7.938,7.938,0,0,0,1.9.176q.755-.026,2.843-.024c1.958,0,2.543-.037,2.82-.067.332-.041.734-.068,1.2-.085a4.3,4.3,0,0,0,.521-.047c.1.01.2.017.311.027,1.8.145,3.127.233,3.973.277.872.037,1.474.058,1.988.058a1.561,1.561,0,0,0,.487.1h.024a1.329,1.329,0,0,0,1.095-.666s.01-.007.017-.014a1.438,1.438,0,0,0,.173-.4,1.182,1.182,0,0,0,.946-.2,1.279,1.279,0,0,0,.487-1.457"/><path class="e70c1312-98b3-470b-97ec-db0714efd6d9" d="M35.377,36.521c-.014-.389-.041-.727-.078-1.011a4.654,4.654,0,0,0-.274-1.052,2.093,2.093,0,0,0-.872-1.139,1.466,1.466,0,0,0-1.123-.146,1.575,1.575,0,0,0-.842.677,1.444,1.444,0,0,0-.115.267c-.277-.031-.676-.054-1.2-.064-.615-.017-1.085-.014-1.426-.011-.359.011-.724.038-1.089.082-.088.01-.193.023-.311.044-.163,0-.288,0-.379,0q-.462.011-1.887.186c-.568.071-1.062.125-1.477.166-.139-.075-.284-.146-.44-.213a4.35,4.35,0,0,0-1.535-.207,6.748,6.748,0,0,0-1.441.149c-.1.02-.2.047-.294.071a1.463,1.463,0,0,0-1.3-.48c-.392.017-.892.064-1.5.149-.592.081-1.2.186-1.816.311a12.924,12.924,0,0,0-1.505.385,5.508,5.508,0,0,0-.794.328,5.657,5.657,0,0,0-1.289.389A13.668,13.668,0,0,0,11,36.092a2.906,2.906,0,0,0-1.16.284,3.348,3.348,0,0,0-.889.639,2.328,2.328,0,0,0-.247.28,8.9,8.9,0,0,0-.838.565c-.281.21-.555.436-.819.666s-.547.487-.852.778c-.219.213-.439.433-.662.656-.2.186-.406.368-.6.554-.27.257-.571.572-.906.937a4.228,4.228,0,0,0-.768,1.079c-.03.037-.06.077-.094.118-.531.656-.873,1.095-1.032,1.325a5.549,5.549,0,0,0-.51.927,2.56,2.56,0,0,0-.281.95,1.362,1.362,0,0,0,.5,1.119c-.051.149-.091.3-.132.44a5.715,5.715,0,0,0-.152.967,5.6,5.6,0,0,0-.017.747,1.42,1.42,0,0,0,.308.744c-.048.284-.081.517-.108.7a15.082,15.082,0,0,0-.115,1.738,7.1,7.1,0,0,0,.044,1.512,1.61,1.61,0,0,0,.348.686,3.257,3.257,0,0,0,.162.558,1.528,1.528,0,0,0,.612.683c.031.145.064.3.1.463.182.829.331,1.407.436,1.725s.22.625.331.9a8.915,8.915,0,0,0,.457.954,4.29,4.29,0,0,0,.578.865,1.462,1.462,0,0,0,.964.42,2.564,2.564,0,0,0,.527.666l1.221,1.166q.689.664,1.427,1.322c.5.447.98.849,1.43,1.208a14.046,14.046,0,0,0,1.2.875,7.351,7.351,0,0,0,.781.44,1.3,1.3,0,0,0,1.531-.369,1.181,1.181,0,0,0,.149-.219,3.694,3.694,0,0,0,.369.1c.473.1,1,.2,1.579.271l.24.03c.115.027.223.048.325.065a7.106,7.106,0,0,0,.926.115,1.139,1.139,0,0,0,.446-.055c.251.011.508.024.764.038.1.01.2.023.3.033.5.055,1.085.095,1.748.129.358.017.71.03,1.065.044.139.01.277.024.416.037.078.007.152.014.223.024.193.037.375.084.555.132a4.519,4.519,0,0,0,1.112.182,1.371,1.371,0,0,0,.829-.23c.287.027.493.037.679.037a1.708,1.708,0,0,0,1.116-.327c.311-.021.686-.055,1.136-.1.636-.071,1.062-.112,1.275-.132.088-.007.169-.02.247-.034.145.034.3.065.456.088a9.261,9.261,0,0,0,1.187.058,14.33,14.33,0,0,0,1.451-.071c.355-.041.662-.065.919-.071a1.6,1.6,0,0,0,1.468-1.086,1.379,1.379,0,0,0-.362-1.092c.02-.078.037-.159.051-.247a2.134,2.134,0,0,0,.152-1.247c-.061-.528-.112-1.184-.162-1.968-.051-.819-.119-1.738-.2-2.766-.044-.545-.085-1.025-.119-1.434-.006-.118-.013-.24-.023-.362a3.8,3.8,0,0,0-.054-.483c0-.021,0-.044,0-.068-.044-.453-.094-1.051-.152-1.785.017-.125.031-.264.037-.416l0,0v-.031c.017-.3.023-.652.023-1.072a2.483,2.483,0,0,0,.065-.392c.047-.5.071-1.177.071-2.022,0-.457,0-.872-.011-1.248.4-.1.579-.372.656-1.457v-.007c.055-.8.058-2.059.061-4.024.582-.277.582-1.061.589-3.58q0-2.7-.017-3.216"/><path class="e3a1ccef-8c71-49c3-9c37-b855689d455d" d="M34.168,71.807c0-.251,0-.548,0-.886,0-1.224-.02-1.958-.051-2.205a1.559,1.559,0,0,0-.574-.984,1.287,1.287,0,0,0-.105-.21,2.3,2.3,0,0,0-1.048-.818,3.38,3.38,0,0,0-1.157-.291c-.243-.016-.72-.013-1.43,0-.23,0-.446.01-.646.017a1.545,1.545,0,0,0-.96-.254,2.9,2.9,0,0,0-1.13.4c-.04.02-.084.044-.125.068-.318.04-.686.087-1.109.145a2.764,2.764,0,0,0-1.214.007,2.829,2.829,0,0,0-.622.213c-.253-.01-.541-.02-.862-.024-.642-.017-1.471-.024-2.482-.027q-.487-.045-.943-.051a1.3,1.3,0,0,0-.474.048c-.152,0-.291,0-.416,0l-.338-.051a18.619,18.619,0,0,0-2.258-.24,6.037,6.037,0,0,0-1.448.078,6.311,6.311,0,0,0-.862.277,1.369,1.369,0,0,0-.392.247,9.081,9.081,0,0,0-1.944.074,1.721,1.721,0,0,0-.988.6,1.569,1.569,0,0,0-.331,1l-.315.206a.063.063,0,0,0-.023,0,8.746,8.746,0,0,0-1.167.24A1.441,1.441,0,0,0,7.773,70.6c-.02.017-.044.031-.068.048-.287.193-.537.372-.75.531a1.134,1.134,0,0,0-.386-.213,1.429,1.429,0,0,0-1.575.727c-.078.148-.342.784-.785,1.9-.061.159-.122.315-.182.47-.078.139-.159.281-.244.423-.247.419-.473.835-.676,1.244a6.294,6.294,0,0,0-.484,1.211,1.915,1.915,0,0,0-.044.9q-.121.492-.287,1.315-.249,1.227-.463,2.191c-.017.081-.044.186-.061.305A1.287,1.287,0,0,0,.5,81.805c-.947.741-.392,1.579.311,2.648.335.507.663.987.984,1.433a1.539,1.539,0,0,0,0,1.035,5.584,5.584,0,0,0,.775,1.217c.277.369.561.731.855,1.082a1.689,1.689,0,0,0,.514,1.025c.108.112.237.254.382.426a1.322,1.322,0,0,0-1.194.795,1.46,1.46,0,0,0,.883,1.683,6.17,6.17,0,0,1,.632.345,4,4,0,0,0,.629.667c.419.382.751.666.991.852a8.12,8.12,0,0,0,.859.588,11.572,11.572,0,0,0,1.214.595q.75.33,1.288.517l.007-.01c.094.044.165.075.23.1a.491.491,0,0,1,.071.021l.054.01a1.333,1.333,0,0,0,1.082.791c.034,0,.081.01.138.02a1.177,1.177,0,0,0,.061.345,1.533,1.533,0,0,0,1.228.981,9.452,9.452,0,0,0,1.271.159c.254.017.6.03,1.058.037a1.686,1.686,0,0,0,1.367.013h.057a6.165,6.165,0,0,0,1.677-.135c.118.007.24.01.362.01.524.01,1,0,1.43-.03a1.218,1.218,0,0,0,.193.412,1.355,1.355,0,0,0,1.177.565,2.021,2.021,0,0,0,.253-.014,3.726,3.726,0,0,0,1.373-.517,16.229,16.229,0,0,0,1.6-1.035c.146-.1.281-.2.406-.29A2.5,2.5,0,0,0,25,98.079a4.8,4.8,0,0,0,1.163-.564q.553-.335,1.126-.741a2.446,2.446,0,0,0,.666-.416c.058-.05.143-.125.244-.23.142-.1.274-.192.4-.28a1.571,1.571,0,0,0,.555-.751c.46-.514.815-.9,1.072-1.16a4.042,4.042,0,0,1,.324-.3c.027-.02.054-.041.081-.064a.262.262,0,0,1,.028-.017v0a1.757,1.757,0,0,0,.6-1.271q.258-.411.551-.9c.311-.524.524-.916.646-1.183.014-.027.027-.058.041-.092.172-.29.277-.466.311-.517a1.353,1.353,0,0,0,.277-.707,1.608,1.608,0,0,0,.636-.845,5.523,5.523,0,0,0,.3-1.055c.047-.284.081-.6.1-.936.017-.247.031-.754.034-1.522.044-.264.075-.487.091-.68a2.092,2.092,0,0,0-.091-.923c0-.723,0-1.335-.007-1.832l-.006-2.1v-.4H34.13a1.955,1.955,0,0,0-.155-.619c0-.595,0-1.315.007-2.16.01-.261.02-.609.027-1.038a2.047,2.047,0,0,0,.223-1.066c0-.077,0-.152,0-.226a4.353,4.353,0,0,0,.126-.524,1.58,1.58,0,0,0-.186-1.146"/><path class="ba2153b9-5b39-48af-8f27-30fcb04403cc" d="M67.192,19.612q.207-.811.4-1.866c.146-.788.2-1.228.2-1.272a1.288,1.288,0,0,0-.9-1.274,1.335,1.335,0,0,0-.189-.048c.1-.94.159-1.464.166-1.582a1.38,1.38,0,0,0-.423-1.079c0-.277,0-.483,0-.625a4.209,4.209,0,0,0-.19-1.079,1.823,1.823,0,0,0-1.153-1.295,1.773,1.773,0,0,0-.345-.074c-.027-.058-.057-.112-.088-.166a1.908,1.908,0,0,0-.835-.822c-.091-.216-.176-.4-.25-.551-.176-.358-.352-.683-.531-.984a9.122,9.122,0,0,0-.544-.835,5.6,5.6,0,0,0-.764-.839,5.663,5.663,0,0,0-.8-.618,1.482,1.482,0,0,0-.633-.193,6.435,6.435,0,0,0-.825-.487c-.135-.068-.26-.128-.375-.179-.176-.149-.365-.3-.558-.46a1.58,1.58,0,0,0-.619-.5q-.522-.411-.8-.6a2.993,2.993,0,0,0-1.079-.5,1.661,1.661,0,0,0-1.045.18c-.091-.044-.179-.085-.257-.119s-.131-.054-.2-.078a1.592,1.592,0,0,0-1.126-.453l0-.013h-.2c-.223,0-.423,0-.612,0-.2-.071-.345-.118-.43-.148A8.059,8.059,0,0,0,51.113.8C51.005.785,50.9.768,50.8.755a1.35,1.35,0,0,0-1.3-.372,1.88,1.88,0,0,0-.906.6.12.12,0,0,0-.037.02c-.1.054-.2.108-.294.166-.234-.007-.457-.021-.663-.041C47.235.5,46.336.538,45.639.576c-.947.047-1.741.077-2.391.091-.226.007-.453.01-.676.017L41.95.677c-.132,0-.26,0-.382,0a.188.188,0,0,1-.058,0h-.131V.687a2.486,2.486,0,0,1-.423,0L40.53.657c-.081-.007-.159-.01-.237-.017q-.37-.072-1.207-.3A2.277,2.277,0,0,0,37.2.325q-.249-.051-.507-.111A6.04,6.04,0,0,0,35.394,0a1.4,1.4,0,0,0-1.262.835,1.53,1.53,0,0,0-.267.352,4.021,4.021,0,0,0-.25,1.717c0,.163-.01.338-.013.534a2.172,2.172,0,0,0-.129.528c-.024.189-.047.835-.047,1.941-.007,1.028,0,1.765,0,2.2s.024.929.051,1.44c.02.382.047.781.074,1.194-.007.111-.013.226-.017.348q-.03.628-.037,4.189c-.007,2.36,0,3.848.01,4.467s.054,1.457.125,2.475.152,1.87.24,2.529q.138,1.04.251,1.5c.017.064.033.135.054.213v.1c0,3.169-.007,4.153.4,4.477v.01c.007,1.265.013,2.178,1.095,2.367a1.257,1.257,0,0,0,.605-.044,1.488,1.488,0,0,0,.335.068v0c.034,0,.075,0,.115,0H37.3c.673,0,1.156-.007,1.427-.031a2.924,2.924,0,0,0,.974.125l.345,0c.635-.017,1.217-.044,1.738-.088s1.088-.1,1.721-.169c.078-.007.152-.017.23-.024a2.619,2.619,0,0,0,.345.024,5.88,5.88,0,0,0,1.234-.129c.389-.074.811-.138,1.268-.2a15.721,15.721,0,0,1,1.89-.1c.5-.007.92-.017,1.251-.03.017.01.034.017.054.027a7.037,7.037,0,0,0,1,.294,7.6,7.6,0,0,0,1.508.159,6.76,6.76,0,0,0,1.437-.085c.241-.04.663-.145,1.275-.314a9.023,9.023,0,0,0,1.349-.328c.244-.075.5-.169.765-.277.169-.051.317-.1.449-.139.4-.122.737-.216,1.025-.284a1.54,1.54,0,0,0,1.065-1.008c.01-.01.024-.017.034-.027a2.359,2.359,0,0,0,1.136-.473,7.962,7.962,0,0,0,1.126-1c.379-.4.754-.828,1.126-1.3s.669-.882.923-1.251c.068-.1.132-.2.193-.284.2-.287.409-.605.639-.957.341-.521.659-1.024.953-1.518s.562-.967.781-1.393a9.931,9.931,0,0,0,.5-1.089,1.508,1.508,0,0,0-.01-1.21,1.333,1.333,0,0,0,.061-.491c.024-.084.044-.169.068-.257"/><path class="b4d5ab4a-d31f-4e08-9fb9-8e54efa6b4eb" d="M67.894,52.331a10.061,10.061,0,0,0,.1-1.494c0-.484-.02-.981-.05-1.5-.034-.534-.075-.94-.115-1.227-.031-.2-.095-.47-.173-.768a1.273,1.273,0,0,0-.128-.72,1.092,1.092,0,0,0-.159-.186c-.061-.176-.119-.365-.19-.531a.363.363,0,0,1,0-.057,1.54,1.54,0,0,0-.629-1.072.95.95,0,0,0-.142-.064,1.385,1.385,0,0,0-.582-.268c-.114-.287-.3-.845-.561-1.663-.311-.984-.521-1.562-.608-1.745a2.892,2.892,0,0,0-.616-.811,2.426,2.426,0,0,0-.541-.393c-.084-.209-.169-.409-.25-.6a9.23,9.23,0,0,0-.673-1.332,2.429,2.429,0,0,0-.913-.913,1.442,1.442,0,0,0-1-.092,6.7,6.7,0,0,0-1.123-.74,2.775,2.775,0,0,0-1.464-.48,4.457,4.457,0,0,0-.358-.271,5.029,5.029,0,0,0-1.038-.575,3.253,3.253,0,0,0-.829-.186,4.122,4.122,0,0,0-.416-.257c-.172-.081-.436-.192-.8-.331a4.377,4.377,0,0,0-1.484-.26,7.946,7.946,0,0,0-1.228.094,7.085,7.085,0,0,1-.9.088c-.125.007-.223.011-.3.011a1.507,1.507,0,0,1-.2-.007,5.666,5.666,0,0,0-1.383-.136A6.468,6.468,0,0,0,47.562,34a7.27,7.27,0,0,0-1.495.659,11.16,11.16,0,0,1-1,.507,11.655,11.655,0,0,0-1.082.521c-.014.007-.02.017-.034.024-.2.071-.409.138-.592.216a1.871,1.871,0,0,0-.953.829c-.2.159-.4.314-.612.5-.166.081-.332.152-.5.243-.463.244-.936.517-1.427.822a5.559,5.559,0,0,0-1.055.747,1.384,1.384,0,0,0-.317,1.3c-.031.027-.061.058-.092.085-.26.247-.568.564-.93.957a9.975,9.975,0,0,0-.73.869,2.484,2.484,0,0,0-.355.74,2.6,2.6,0,0,0-.514.7,9.051,9.051,0,0,0-.6,1.495c-.027.081-.051.162-.078.244-.074.169-.149.351-.23.551a8.972,8.972,0,0,0-.412,1.264,2.37,2.37,0,0,0-.061.737q-.157.635-.234,1.015c-.081.389-.145.754-.2,1.085a12.388,12.388,0,0,0-.1,1.326c0,.165-.007.311-.007.439a2.334,2.334,0,0,0-.078.585,3.68,3.68,0,0,0,.146,1.072A13.084,13.084,0,0,0,34.5,54.79c.24.561.429.97.568,1.244.027.051.081.132.111.186v0q.259.908.585,1.755a9.741,9.741,0,0,0,.6,1.339,10.624,10.624,0,0,0,.67.994c.236.318.466.646.693.988q.37.558.811,1.163a11.323,11.323,0,0,0,.991,1.17,12.87,12.87,0,0,0,1.038.95c.308.253.582.483.825.69a6.9,6.9,0,0,0,.724.558,4.932,4.932,0,0,0,.666.375,5.341,5.341,0,0,0,.815.3,12.712,12.712,0,0,0,2.066.257.926.926,0,0,0,.105.007,1.23,1.23,0,0,0,.564-.152c.064.014.142.047.207.061a5.419,5.419,0,0,0,.879.091,1.617,1.617,0,0,0,.984-.277q.639.142,1.4.284a14.9,14.9,0,0,0,1.5.22c.342.027.619.04.849.044a1.964,1.964,0,0,0,1.045-.264c.649-.007,1.1-.027,1.342-.051A6.672,6.672,0,0,0,55.89,66.4a7.058,7.058,0,0,0,1.187-.487,1.436,1.436,0,0,0,.8-1.034c.315-.173.606-.332.873-.47a1.276,1.276,0,0,0,.588-.176c.078-.047.335-.213.768-.5.328-.152.669-.3,1.018-.45.649-.27,1.129-.494,1.443-.659a1.488,1.488,0,0,0,.917-1.234c.568-.376.987-.656,1.247-.839.409-.284.751-.541,1.035-.771a1.483,1.483,0,0,0,.653-1.63,1.434,1.434,0,0,0-.842-.872l.788-1.048c.24-.318.426-.575.554-.768.308-.291.49-.473.555-.537a1.342,1.342,0,0,0,.2-1.492l.023-.06a9.946,9.946,0,0,0,.2-1.049"/></g></g></svg>