<svg xmlns="http://www.w3.org/2000/svg" viewBox="0 0 99.233 100"><defs><style>.cls-1{fill:#bc2f26;}</style></defs><title>icon-adobe</title><g id="Layer_2" data-name="Layer 2"><g id="Layer_1-2" data-name="Layer 1"><path class="cls-1" d="M98.594,69.862a15.892,15.892,0,0,0,.1-1.96c-.1-.5-.486-.745-.615-1.134a8.637,8.637,0,0,1-.179-2.7c.017-2.818.1-5.652.195-8.471.129-3.822.34-7.628.583-11.434.34-5.021.648-10.042.534-15.079a6,6,0,0,0-.372-2.786c-.292-.454-.745-.6-.907-.988-.34-.81.1-2.527.129-3.418.065-1.133.13-2.267.178-3.385a34.185,34.185,0,0,0-.307-5.911,66.438,66.438,0,0,1,.032-6.722,11.687,11.687,0,0,1-.016-1.684c.081-.5.356-.648.405-1.1.1-.972-.178-1.441-1.231-1.7-1.765-.437-4.357.146-6.171.243-3.466.227-6.8.017-10.3-.1-4.5-.129-9-.21-13.508-.21-5.021,0-10.09.405-15.111.21-4.212-.178-8.455.114-12.666-.129-3.515-.211-7.013-.308-10.528-.308-4.762,0-9.345.049-14.091-.308C12.671.637,10.6.475,8.541.427,7.488.394,6.451.394,5.415.394A7.285,7.285,0,0,1,3.844.427C3.779.411,2.823.006,2.823.006-.675-.27.167,9.416.248,11.505c.081,2.122.777,4.616.486,6.689-.1.778-.567,1.491-.664,2.381a21.34,21.34,0,0,0-.065,2.5c-.016,4.794.632,9.637.47,14.415C.345,41.6.491,45.713.588,49.81c.081,4.066.6,8.682.13,12.682A70.249,70.249,0,0,0,.394,73.878a36.334,36.334,0,0,1,.081,6.074,36.814,36.814,0,0,0,0,5.977c.081,2.283.016,4.5.259,6.786.13,1.344,0,4.827.972,5.863.988,1.053,3.838.389,5.021.357,2.64-.065,5.264-.081,7.887-.114,5.086-.081,10.156-.308,15.242-.356-.373,2.624,7.725,1.117,9.394.988,4.761-.356,9.507-.486,14.285-.535,10.366-.129,20.6.438,30.838.1a85.779,85.779,0,0,1,8.665-.081c.826.064,6.754.971,4.746-1.652,1.053-.648.308-2.106.275-3.078-.129-2.737.049-5.555.178-8.276C98.5,80.584,99.064,75.126,98.594,69.862ZM83.612,55.43a53.134,53.134,0,0,1-4.794,10.9,18.9,18.9,0,0,1-2.511,4.033,24.206,24.206,0,0,1-4,2.8A20.043,20.043,0,0,1,64.5,75.514,25.98,25.98,0,0,0,61,76.632c-1.912.47-4.552-.016-6.56-.016-4.276,0-8.536.016-12.8.162a28.55,28.55,0,0,1-5.507.016,22.771,22.771,0,0,0-3.466-.567,6.206,6.206,0,0,1-2.511-.308A24.818,24.818,0,0,1,25.822,73.6a24.02,24.02,0,0,1-7.693-7.353c-1.717-2.754-3.968-6.576-4.324-9.88a22.229,22.229,0,0,1,.923-9.848c2.381-6.106,6.705-9.993,12.5-12.876a18.818,18.818,0,0,1,8.26-1.83,17.158,17.158,0,0,0,3.871-.113c1.377-.357,2.332-1.831,3.5-2.641,2.948-2.057,6.333-3.952,9.961-4.275a43.02,43.02,0,0,1,12.65.615c.81.162,1.393.615,2.17.826,1.1.308,1.587-.032,2.656.567a42.469,42.469,0,0,1,4.39,2.77c2.947,2.267,5.247,5.685,7.223,8.794a6.875,6.875,0,0,1,1.069,1.717c.146.632-.405,1.474-.372,2.154.1,1.442,1.328,1.717,1.733,2.8C85.442,48.142,84.487,52.385,83.612,55.43Zm-29.1-7.563c-1.944-2.057-4.179-3.887-6.236-5.831a24.729,24.729,0,0,0-2.3-2.4,14.555,14.555,0,0,0-4.632-1.863c-3.175-.842-6.382-1.619-9.6-.7a24.57,24.57,0,0,0-7.515,3.466c-.275.194-.956.939-1.279,1.02-.681.2-.972-.275-1.6.308-1.037.939-1.2,3.239-1.7,4.486a10.417,10.417,0,0,0-.858,4.94c.032.81-.032,1.636-.016,2.446A20.805,20.805,0,0,1,19.069,57c-.1.712-.535,1.133-.341,1.992a5.114,5.114,0,0,0,.972,1.7,30.8,30.8,0,0,0,1.992,2.592c.778.923,1.458,1.927,2.171,2.834.777.972,2.105,1.507,3.012,2.316a8.987,8.987,0,0,0,2.657,2.057c1.652.648,3.53.47,5.247.875q.874.2,1.749.437a10.86,10.86,0,0,0,3,.081c.81,0,2.267.648,3.012.211,1.1-.632.535-2.235-.486-2.656-.583-.6-1.49-1.248-2.186-1.831-1.263-1.069-2.219-.648-3.725-.793a19.909,19.909,0,0,1-8.082-3.045c-.7-.421-1.588-.843-1.895-1.62-.162-.405-.049-1.085-.227-1.62a13.244,13.244,0,0,0-1.1-2.186,5.126,5.126,0,0,1-1.069-2.219,26.6,26.6,0,0,1,.21-5.442,4.85,4.85,0,0,1,.956-2.624,5.223,5.223,0,0,1,.55-.826c.373-.389.891-.5,1.2-.891.194-.243.243-.745.372-.907A13.22,13.22,0,0,1,34.018,41.7,15.222,15.222,0,0,1,38.132,42c1.846.275,3.045,1.279,4.729,1.894a7.058,7.058,0,0,1,2.478,1.426,17.9,17.9,0,0,1,2.187,2.251,33.558,33.558,0,0,0,4.94,4.778c1.1.907,2.98,1.134,3.79-.308C57.244,50.28,55.559,48.984,54.507,47.867ZM25.644,46.684h-.016a.769.769,0,0,1,.065-.324ZM80.6,50.248a17.933,17.933,0,0,1-1.587,5.911c-.745,1.782-1.1,3.709-1.976,5.442a6.606,6.606,0,0,1-1.992,2.559,11.115,11.115,0,0,0-.988.551c-.243.227-.292.68-.5.94a5.688,5.688,0,0,1-1.782,1.069c-2.445,1.23-4.924,2.575-7.3,3.789-3.143,1.6-6.819.907-10.172.5-2.494-.308-4.762-1.669-6.964-2.981a37.249,37.249,0,0,1-3.321-2.138,8.01,8.01,0,0,1-1.862-2.38c-.972-1.426-2.867-2.657-4.017-3.985-1.215-1.409-2.98-2.3-4.163-3.644-1.231-1.393-1.652-3.515.357-4.406,2.089-.907,4.033.81,5.312,2.284,1.442,1.668,2.656,3.531,4.163,5.151a29.9,29.9,0,0,0,4.016,3.255c1.944,1.442,4.05,3.24,6.447,3.742a37.366,37.366,0,0,0,6.721.243c4.147.064,7.823-3.353,10.269-6.414,2.008-2.462,2.494-5.944,2.834-9.135a23.3,23.3,0,0,0,.211-4.632,14.652,14.652,0,0,0-1.717-4.892c-.34-.421-.81-.518-1.231-.907-.567-.534-.745-1.781-1.409-2.3-.243-.194-.389,0-.6-.145-.842-.535-1.652-1.393-2.543-1.847a17.51,17.51,0,0,0-2.932-.664c-1.9-.55-3.223-1.231-5.231-1.215a17.011,17.011,0,0,0-8.066,1.766c-.5.275-.34.777-1.2.842a2.73,2.73,0,0,1-1.15-.405c-.809-.356-2.542-.923-2.915-1.765-.68-1.507,1.328-2.721,2.494-3.191a43.294,43.294,0,0,1,8.18-2.073,12.711,12.711,0,0,1,3.482-.4c1.619.146,3.077.842,4.632,1.053a17.285,17.285,0,0,1,5.815,2.1c2.721,1.539,4.454,3.709,6.235,6.106a22.106,22.106,0,0,1,3.175,4.811A16.083,16.083,0,0,1,80.6,50.248Z"/></g></g></svg>