<svg xmlns="http://www.w3.org/2000/svg" viewBox="0 0 92.829 100"><defs><style>.cls-1{fill:#c62a37;}</style></defs><title>icon-angular</title><g id="Layer_2" data-name="Layer 2"><g id="Layer_1-2" data-name="Layer 1"><path class="cls-1" d="M92.114,17.262A35.9,35.9,0,0,0,86.6,15.368a8.825,8.825,0,0,1-2.126-.7c-.4-.282-.5-.714-.914-1.08-.964-.863-3.007-1.212-4.236-1.611-4.669-1.495-9.47-2.592-14.038-4.353-4.7-1.827-9.3-3.837-13.988-5.681A11.41,11.41,0,0,0,48.838,1.5a2.785,2.785,0,0,1-1.063-.232c-.382-.233-.332-.731-.747-.98C45.1-.879,41.313,1.862,39.535,2.609,28.454,7.244,16.959,10.833,5.662,14.886c-.8.3-1.612.565-2.409.864a3.735,3.735,0,0,1-1.495.216C.13,16.2-.153,16.88.063,18.541c.266,1.994.565,3.937.748,5.947.365,3.855.714,7.709,1.2,11.563C2.821,42.7,3.27,49.308,4.034,56c.432,3.787.7,7.558,1.03,11.346.149,1.628.631,3.206.814,4.785.183,1.5-.416,3.123.266,4.552C3.1,78.131,8.17,79.942,9.051,80.34c1.993.9,3.9,2.027,5.848,2.891,3.854,1.728,7.542,3.721,11.28,5.715,3.82,2.026,7.459,4.385,11.213,6.578,1.495.864,9.253,6.878,9.9,3.406,1.412.465,3.954-1.711,5.1-2.376,1.828-1.08,3.655-2.126,5.516-3.156,2.575-1.429,5.15-2.824,7.741-4.236,2.808-1.529,5.566-3.107,8.373-4.619a11.717,11.717,0,0,1,1.5-.78c.333-.117.715.166,1.08-.034.7-.4,1.047-1.013,1.728-1.412a15.7,15.7,0,0,1,2.442-1.146c.581-.183,1.479-.116,1.993-.5.416-.316.316-1.08.748-1.346.449-.283,1.08.116,1.678-.4.714-.6,1.279-3.439,1.445-4.336.283-1.578-.282-3.339-.116-5.083.2-1.894.482-3.755.565-5.665.166-4.3.6-8.589,1.1-12.842.166-1.428.216-3.339.814-4.5.183-.349.582-.581.764-1.063a7.72,7.72,0,0,0,.15-1.612c.1-1.029.183-2.043.282-3.073.316-3.771.715-7.525,1.147-11.28.249-2.243.481-4.469.681-6.711a14.878,14.878,0,0,1,.3-2.858C92.58,18.99,93.427,17.96,92.114,17.262ZM73.159,77.1c-2.791-.432-5.8.183-8.539-.332-1.129-.216-.531.348-1.229-.632a14.018,14.018,0,0,1-1.063-3.007c-.532-1.445-1.047-2.907-1.578-4.336-.432-1.129-.881-2.259-1.379-3.355a11.585,11.585,0,0,0-.864-1.761c-.565-.814-.764-.665-1.562-1.064a8.107,8.107,0,0,0-4.037-.78,55.013,55.013,0,0,0-8.273.1,8.727,8.727,0,0,1-1.943.25c-.9-.034-1.8-.05-2.692-.067-1.345-.05-2.724-.183-4.07-.133-1.977.067-2.475.748-3.223,2.476-.631,1.445-1.212,2.94-1.794,4.419-1.08,2.724-2.176,5.482-3.073,8.289-3.19-1.013-7.227-.349-10.533-.349.831-1.744,1.529-3.555,2.293-5.332.548-1.263,1.429-2.409,1.495-3.771a.607.607,0,0,1-.05-1.014c.183-.4.366-.781.565-1.163.465-.963.93-1.927,1.395-2.874.549-1.113,1.08-2.242,1.629-3.355,1.262-2.625,2.757-5.217,3.854-7.925a1.333,1.333,0,0,0,.05-.98,1.386,1.386,0,0,0,.581-.615c.365-.8.748-1.578,1.1-2.375.515-1.18,1-2.359,1.5-3.555.581-1.4,1.345-2.575,1.761-3.937.5-1.595,1.212-3.124,1.877-4.685,1.2-2.808,2.309-5.632,3.588-8.39,1.512-3.272,2.608-6.379,4.336-9.519.98-1.777,1.977-3.538,2.907-5.332,1.778,5.631,4.967,10.682,7.227,16.047,2.641,6.3,5.332,12.576,8.207,18.789,1.03,2.227,2.242,4.353,3.289,6.562,1.345,2.791,2.259,5.748,3.6,8.539,2.492,5.134,4.452,10.45,6.877,15.6A6.77,6.77,0,0,0,73.159,77.1ZM54.553,52.863c-.648,1.163-1.827.714-2.575-.033a1.247,1.247,0,0,1-1.113.564c-1.861,0-3.705-.049-5.549.083-1.412.117-2.757-.465-4.1-.3-.831-.265-1.645.15-2.475-.083-1.446-.415-1.462-1.628-.847-2.658a12.855,12.855,0,0,0,1.3-1.993c.416-1.03.848-2.027,1.313-3.04a55.159,55.159,0,0,0,2.326-5.134,16.63,16.63,0,0,1,.78-2.491,5.135,5.135,0,0,0,.665-1.263c.066-.482-.216-.9-.116-1.4.3-1.677,2.126-2.026,2.874-.548.564,1.113.6,2.658,1.1,3.854.731,1.745,1.246,3.539,2.126,5.2.7,1.346,3.057,6.446,3.356,6.845C54.138,51.235,55.151,51.783,54.553,52.863Z"/></g></g></svg>