<svg clip-rule="evenodd" fill-rule="evenodd" stroke-linejoin="round" stroke-miterlimit="2" viewBox="0 0 75 76" xmlns="http://www.w3.org/2000/svg"><path d="m6.138 24.491c.111.685.257 1.365.421 2.043-.042.193-.051.43.01.698.067.295.326.759.412 1.03.216.686.382 1.372.532 2.074.516 2.404.796 4.89 1.53 7.236.054.173.11.346.167.517.019.198.086.372.169.524.008.014.016.029.025.043.174.5.353.997.521 1.501.132.395.358 1.196.358 1.196.037.131.094.252.167.359.322 1.084.658 2.165.955 3.255 1.103 4.043 2.046 8.312 2.723 12.378.077.46.206.921.364 1.384-.003.008-.005.017-.007.025-.123.447-.097 1.012.051 1.595.138.542.383 1.114.5 1.515.398 1.362.596 2.778 1.003 4.135.207.688.348 1.357.574 2.036.09.271.149.561.249.818.019.104.056.307.06.32.042.13.095.241.154.335.338 1.066.759 2.13 1.1 3.152.058.175.032.412.057.602.021.157.054.303.097.435.025.2.075.586.086.622.039.121.086.208.121.267.323.534.775.602 1.071.6.038 0 .468-.015.811-.291.174-.022.346-.083.504-.183l.127-.084c.555-.116 1.167-.448 1.565-.935l.026-.032c.903-1.129 1.859-2.201 2.844-3.243.517-.475 1.001-.974 1.529-1.437.093-.062.438-.291.547-.407.156-.167.252-.345.307-.511.013-.036.024-.073.033-.11.878-.873 1.764-1.741 2.643-2.621.461-.46.912-.937 1.365-1.408.049-.011.099-.025.15-.042.393-.131.735-.367 1.037-.665.232-.23.428-.514.651-.715 1.064-.957 2.138-1.921 3.193-2.88.071-.064.147-.13.226-.196.067-.044.13-.096.189-.154.218-.175.448-.345.659-.496.167-.119.513-.341.513-.341l-.569.167c.047-.042.096-.081.148-.115-.055.037-.151.077-.224.105.06-.089.209-.319.358-.603.035-.04.072-.079.109-.118.227-.096.463-.246.688-.458.228-.214.465-.522.663-.78.412-.347.807-.669 1.115-.948.068-.062 1.122-.989 1.286-1.219.129-.181.204-.354.24-.516.251-.233.504-.46.76-.679l.311-.265c.304-.013.679-.133 1.038-.448.252-.221.545-.637.79-.998.306-.305.638-.59.954-.879 1.141-1.046 2.385-2.008 3.477-3.1.171-.171.822-.646 1.082-.989.121-.159.204-.32.258-.472.605-.57 1.201-1.151 1.764-1.77.455-.5.983-.919 1.459-1.395.118-.117.281-.295.425-.454.933-.811 1.817-1.663 2.7-2.546.356-.356.719-.728 1.105-1.049.142-.119.483-.324.635-.456.245-.212.364-.435.417-.573.022-.056.039-.111.053-.165.914-.861 1.857-1.699 2.728-2.57 1.446-1.446 2.952-3.264 4.501-4.813 2.058-2.058 4.414-3.948 6.506-5.875.388-.032.648-.217.807-.376.211-.21.329-.456.359-.735.047-.046.094-.093.141-.14.484-.484.484-1.271 0-1.755-.144-.144-.315-.245-.496-.304-.021-.024-.043-.048-.066-.071-.267-.267-.716-.526-1.28-.716-.838-.283-2.002-.459-2.61-.611-2.631-.657-5.566-1.684-8.367-2.002-1.382-.489-2.764-.98-4.15-1.465-1.223-.429-2.476-.784-3.706-1.194-.109-.037-.242-.083-.382-.133l-.334-.143c-.289-.124-.895-.302-.895-.302-.39-.112-.791-.025-1.092.203-2.757-.837-5.481-1.825-8.187-2.822-.209-.188-.492-.352-.827-.467-.422-.146-.973-.208-1.287-.294l-.415-.111c-.302-.107-.604-.211-.904-.319-.216-.367-.615-.614-1.07-.614-.124 0-.243.018-.355.052l-.016-.007c-.268-.119-.566-.16-.825-.289-.1-.05-.435-.169-.617-.2-.25-.042-.448-.01-.56.019-.154.039-.285.096-.394.166-2.453-.64-4.883-1.403-7.302-2.177-.076-.155-.198-.312-.389-.456-.065-.049-.205-.141-.416-.216-.168-.06-.519-.152-.673-.203-.494-.165-.96-.338-1.466-.464-1.444-.361-2.907-.658-4.371-.951-.417-.083-.833-.175-1.247-.273-.136-.062-.287-.1-.454-.11-.27-.067-.54-.136-.809-.208-.131-.261-.355-.477-.645-.593 0 0-1.179-.474-1.786-.66-1.024-.315-2.086-.571-3.127-.831-2.299-.574-4.674-1.085-7.021-1.471-.233-.056-.466-.11-.699-.161l-.242-.054-.102-.029c-.431-.159-1.14-.41-1.492-.474-.159-.029-.307-.039-.442-.035-.19-.008-.378.028-.548.102-.247-.253-.601-.399-.981-.371-.683.052-1.196.649-1.144 1.332.004.057.009.113.015.17-.111.207-.19.48-.171.82.021.355.277 1.169.323 1.312.373 1.674.832 3.328 1.248 4.99.016.064.272.928.497 1.501-.003.265.031.565.107.883.19.792.652 1.796.776 2.26.081.306.164.611.249.916l.003.087c.034.522.356 1.369.57 1.937.142.49.285.979.43 1.469.524 2.115.916 4.259 1.577 6.336.031.097.062.193.094.289zm12.226 49.316v.017l.002-.023-.001-.002zm.091-.386c-.038.083-.073.194-.086.338v.002c.013-.12.042-.234.086-.34zm-1.755-15.927c.217.795.592 1.592.93 2.391.523 1.236.964 2.478.964 3.695 0 .357-.152.68-.394.907.066.268.138.534.217.799.075.25.141.499.205.746.158.163.272.37.321.607 0 0 .072.344.114.515.099.397.211.795.26 1.2l.037.119c.345 1.15.81 2.301 1.177 3.402l.004.014c.728-.652 1.405-1.445 2.088-2.164.734-.866 1.529-1.735 2.351-2.454.056-.049.413-.39.703-.602 1.03-1.033 2.075-2.055 3.112-3.092.627-.627 1.237-1.285 1.857-1.917-3.153-.63-6.068-2.295-9.224-2.926-1.469-.294-2.914-.628-4.337-1.103-.085-.028-.222-.077-.385-.137zm13.608-12.805c.06.258.123.517.188.775.284 1.138.524 2.326.799 3.491.071.054.139.117.204.189.118.134.25.344.312.634.018.088.027.225.031.355.029.111.054.211.056.229.038.299.068.586.118.887.179 1.073.366 2.119.61 3.176.355 1.535.823 3.172 1.078 4.7.002.012.007.034.015.063.519-.467 1.037-.935 1.551-1.402.059-.054.121-.109.185-.164.265-.457.659-.933 1.105-1.399.041-.09.098-.19.182-.292.077-.095.447-.392.512-.444.227-.225.457-.431.693-.642.145-.175.276-.327.343-.394 1.024-1.024 2.09-2.118 3.195-3.065.721-.618 1.442-1.197 2.118-1.873.054-.054.118-.116.187-.181l.007-.009c.117-.134.309-.312.48-.463-.02-.009-.04-.018-.06-.027-.759-.345-1.585-.627-2.41-.879-.106.031-.234.053-.389.053-.683 0-1.736-.408-2.393-.627-.082-.027-.51-.214-.856-.381l-.115-.03c-2.147-.536-4.101-1.337-6.251-1.875-.501-.125-.999-.261-1.495-.405zm-2.381.719c-.398.321-.803.638-1.193.979-2.689 2.352-5.351 4.792-7.878 7.319l-1.413 1.413c.187.071.347.131.427.157 1.325.442 2.671.75 4.039 1.023 1.478.296 2.902.822 4.322 1.361.257-.131.56-.173.861-.098 1.396.349 2.633.605 4.02 1.205-.257-1.252-.62-2.551-.905-3.784-.179-.778-.33-1.551-.468-2.331-.177-.198-.291-.455-.311-.74 0 0-.014-.27-.041-.403-.091-.454-.247-.919-.362-1.38-.336-1.346-.606-2.738-.938-4.063-.054-.219-.108-.439-.16-.658zm-11.391 11.285-.002-.013c.121-.109.219-.24.29-.386-.062.135-.151.277-.288.399zm.408-1.075-.005.005c.014.131.007.26-.019.385.028-.12.04-.251.024-.39zm-4.536-16.6c.062.285.121.569.169.855.024.144.052.35.076.538.377 1.303.79 2.595 1.147 3.903.788 2.887 1.495 5.888 2.086 8.851l1.214-1.214c2.566-2.566 5.269-5.044 7.999-7.432.422-.369.868-.7 1.298-1.047.008-.018.016-.036.024-.053-3.315-1.171-6.6-2.458-10.074-3.19-.839-.176-1.726-.544-2.608-.851-.449-.157-.895-.306-1.331-.36zm31.115-7.32c.1.292.198.578.276.85.536 1.877.976 3.775 1.448 5.666.255 1.017.656 2.012.883 3.032l.052.241c.1.14.171.304.205.483 0 0 .129.673.19 1.011.094.517.206 1.028.308 1.541.235 1.172.213 1.561.157 1.928l.186-.187c.093-.093.19-.183.289-.271 1.148-1.093 2.348-2.132 3.421-3.312.219-.24.453-.464.69-.683.01-.024.02-.049.032-.074.015-.033.088-.21.308-.418.204-.193 1.261-1.114 1.261-1.114.085-.073.176-.133.273-.18.718-.647 1.41-1.32 2.102-2.011l.174-.174.031-.066c.099-.198.258-.409.467-.606.121-.115.27-.226.403-.33.171-.173.363-.381.558-.518l.01-.007c.239-.233.482-.463.726-.692-.208-.057-.414-.118-.614-.193-1.678-.629-3.438-1.211-5.179-1.646-2.91-.727-5.795-1.444-8.657-2.27zm-2.544 1.286c-.083.076-.17.153-.267.234-.702.585-1.417 1.179-2.113 1.792-.058.19-.168.412-.369.629-.28.302-.983.814-1.1.907-.986.789-1.948 1.875-2.744 2.869-.816 1.02-1.946 2.076-3.041 2.99.352.098.706.192 1.06.281 2.087.522 3.989 1.291 6.061 1.826.046-.003.095-.003.145-.001.438.016 2.164.557 2.398.623 1.161.332 2.398.689 3.543 1.145.048-.267.064-.448-.101-1.27-.094-.473-.196-.943-.285-1.418-.068-.114-.119-.241-.149-.378 0 0-.205-.953-.311-1.429-.221-.998-.618-1.972-.867-2.968-.081-.324-.161-.647-.24-.971-.248-.116-.504-.343-.629-.79-.008-.028-.051-.275-.062-.339-.053-.185-.086-.406-.132-.588-.145-.582-.257-1.178-.427-1.773-.132-.465-.256-.92-.37-1.371zm-17.317-6.245c-1.008.867-1.998 1.757-2.866 2.77-1.945 2.269-4.203 4.333-6.316 6.445-.264.265-.527.536-.792.807.108.029.217.06.325.094.96.294 1.93.752 2.846.945 3.487.734 6.786 2.023 10.114 3.196-.328-1.562-.674-3.125-1.125-4.703-.134-.47-.259-.951-.376-1.435-.269-.357-.489-.854-.633-1.44-.267-1.089-.299-2.57-.449-3.269-.237-1.107-.473-2.256-.728-3.41zm2.451-.405c.246 1.115.475 2.224.704 3.295.022.098.04.212.057.338.181.188.304.434.337.711 0 0 .054.464.104.692.12.537.268 1.083.42 1.616.024.084.081.617.079.99.129.552.268 1.101.421 1.635.492 1.724.861 3.431 1.219 5.138 1.061-.864 2.197-1.889 2.994-2.885.732-.915 1.593-1.891 2.49-2.707.063-.13.156-.262.289-.395 1.217-1.217 2.575-2.35 3.896-3.451.124-.103.231-.202.329-.299.033-.159.097-.313.194-.453 0 0 .013-.018.037-.05-1.074-.358-2.144-.739-3.211-1.149-.353-.136-.711-.271-1.074-.401-.117.067-.259.121-.43.152-.037.007-.187.015-.352.014.036.003.074.005.114.005-.066 0-.132-.002-.198-.006-.137-.002-.273-.011-.353-.031l-.05-.014c-.315-.05-.633-.136-.949-.243-.536-.18-1.069-.436-1.586-.546-.367-.079-.706-.171-1.071-.252-.158-.035-.506-.136-.671-.203-.22-.089-.36-.201-.426-.26-.1-.091-.178-.184-.237-.277-1.015-.34-2.042-.641-3.076-.964zm-18.026-5.516c.048.168.13.461.171.66.092.172.145.368.147.576.004.614.057 1.218.143 1.817.247.731.526 1.449.825 2.165.034.082.262.514.342.664.159.209.253.469.253.751 0 .306-.085.529-.196.693.125.365.258.728.383 1.102.041.124.366 1.167.433 1.741.046.395-.019.705-.089.88-.036.09-.077.172-.122.246.216 1.225.429 2.452.734 3.651.014.008.028.015.042.023.538-.515 1.05-1.066 1.572-1.588 2.068-2.068 4.282-4.084 6.186-6.306.908-1.059 1.944-1.989 2.995-2.896-2.99-.908-6.013-1.746-9.008-2.744-1.542-.514-3.23-.904-4.811-1.435zm46.571-.926c-.682.999-1.755 2.059-2.745 2.801-.89.668-1.436 1.58-2.179 2.323-1.5 1.499-3.2 3.09-4.834 4.451l-.039.032c2.621.741 5.261 1.396 7.921 2.061 1.832.458 3.683 1.068 5.448 1.73.11.041.222.077.335.111-.052-.47-.094-.908-.151-1.109-.769-2.689-1.314-5.42-2.121-8.11-.33-1.098-.594-2.207-.935-3.292-.092-.105-.166-.226-.22-.362l-.097-.202c-.108-.112-.242-.261-.383-.434zm2.817-.551c.037.137.078.273.122.404.408 1.224.701 2.48 1.074 3.724.81 2.701 1.358 5.441 2.129 8.142.068.238.131.752.199 1.309 1.305-1.357 2.657-2.96 4.044-4.346 1.788-1.789 3.801-3.45 5.671-5.12-.014-.007-.026-.013-.036-.018-.063-.032-.127-.063-.19-.094-1.025-.352-2.054-.683-3.085-1.027-.527-.175-1.053-.353-1.578-.533-.506-.128-1.013-.251-1.519-.377-1.037-.26-2.019-.594-3.04-.886-.265-.076-.529-.237-.8-.282-.241-.04-.849-.209-.931-.255-.159-.088-.28-.188-.371-.294-.504-.02-1.086-.153-1.689-.347zm-18.131-6.055c.099.4.172.751.215.925.667 2.667 1.692 5.317 2.146 8.036.156.937.342 1.868.5 2.812.05.305.044.585.14.874.053.158.065.477.06.739.003.027.004.057.004.092l-.004-.092-.022-.141c.01.069.018.129.022.173-.003.142-.01.264-.019.33.071.357.178.71.254 1.069.228-.181.452-.361.671-.543 1.578-1.315 3.219-2.851 4.667-4.299.825-.825 1.458-1.812 2.446-2.553.456-.343.938-.768 1.367-1.22-.124-.421-.019-.896.313-1.228.113-.114.343-.312.616-.525-.319-.095-.637-.188-.955-.279-3.527-1.008-7.001-2.288-10.447-3.559-.428-.127-.939-.294-1.074-.343-.144-.053-.288-.104-.431-.155-.149-.037-.307-.075-.469-.113zm-2.292 1.146c-.978.871-2.002 1.7-3.005 2.577-2.518 2.203-4.901 4.593-7.248 6.94 1.549.489 3.084.924 4.588 1.5 2.049.189 4.087.867 5.976 1.594.908.349 1.818.676 2.73.985-.078-.302-.163-.603-.208-.908-.039-.103-.204-.542-.229-.711-.039-.252-.01-.47.044-.643.02-.066.045-.129.073-.188l-.017-.111c-.157-.944-.344-1.875-.5-2.812-.442-2.654-1.454-5.238-2.105-7.842-.018-.07-.054-.209-.099-.381zm-18.303-5.57c-.232.204-.424.37-.518.465-1.603 1.602-3.331 3.071-4.984 4.605-.863.98-1.75 1.93-2.775 2.698-.679.51-1.12 1.2-1.63 1.835 1.58.543 3.29.916 4.841 1.433 2.973.991 5.973 1.824 8.942 2.724-.104-.348-.211-.692-.324-1.029-.684-2.052-1.157-4.191-1.673-6.307-.302-.167-.53-.457-.61-.813 0 0-.1-.447-.166-.667-.1-.334-.212-.663-.313-1-.369-1.23-.448-2.539-.765-3.806-.005-.02-.014-.069-.025-.138zm2.433-.5.009.073c.027.108.052.216.075.326.096.059.192.138.286.242.077.085.228.306.355.609.162.387.341.965.358 1.071.097.579.134 1.178.2 1.77.758 2.765 1.285 5.638 2.191 8.355.147.442.287.894.42 1.353 2.375-2.375 4.789-4.791 7.336-7.02 1.083-.947 2.193-1.834 3.238-2.785-3.413-.869-6.783-1.98-10.136-3.05-1.427-.2-2.912-.598-4.343-1.022zm-17.988-5.298c.013.054.026.108.039.162.075.223.13.396.143.454.186.839.445 1.663.627 2.509.018.087.064.335.098.606.253.741.418 1.503.632 2.251.029.102.076.244.119.387.199.523.381 1.03.51 1.502.092.339.167.68.246 1.021.16.495.31.998.441 1.48-.001-.005-.013-.045-.013-.045s.022.08.05.192c.018.043.035.088.051.136.065.203.089.595.147.79 0 0 .37 1.111.37 1.111.131.391.25.787.362 1.186.63-.737 1.158-1.555 1.967-2.162.266-.199.523-.412.772-.634.059-.16.154-.309.282-.438.551-.551 1.118-1.086 1.693-1.615 1.007-1.152 1.984-2.345 3.128-3.325.607-.52 1.206-1.096 1.789-1.672-.46-.136-.884-.271-1.047-.355-.142-.073-.257-.156-.35-.243-1.024-.313-2.047-.636-3.073-.947-1.882-.427-3.772-.859-5.613-1.401-.489-.144-.974-.298-1.462-.444l-.126-.02c-.113-.017-.385-.1-.688-.2-.278-.064-.557-.131-.825-.204-.076-.021-.171-.05-.269-.082zm17.997 5.371-.009-.037c.002.007.009.037.009.037z" fill="#fff"/></svg>