<svg xmlns="http://www.w3.org/2000/svg" viewBox="0 0 98.978 100"><defs><style>.cls-1{fill:#d9593e;}</style></defs><title>icon-git</title><g id="Layer_2" data-name="Layer 2"><g id="Layer_1-2" data-name="Layer 1"><path class="cls-1" d="M98.809,51.705c.462,1.178-1.162,2.244-1.927,2.929-1.13,1.035-1.91,2.165-2.993,3.232a19.835,19.835,0,0,0-2.245,2.054c-.462.669-.159.892-.446,1.656-.477,1.306-2.42,2.468-3.439,3.423-3.391,3.185-6.273,6.847-9.457,10.222A2.756,2.756,0,0,1,76.327,76.4c-.509.064-1.3-.557-1.894-.159-.462.318-1.338,2.213-2.054,2.993-2.357,2.532-4.777,5.016-7.117,7.563-3.6,3.917-6.687,9.028-11,12.164-3.153,2.293-6.56.43-9.028-2.07-2.643-2.659-5.493-5.079-8.215-7.642-1.688-1.608-3.408-3.168-5.048-4.824a24.656,24.656,0,0,0-4.251-3.917c-.716-.414-1.194-.4-1.878-1.067a20.968,20.968,0,0,1-1.752-2.006,56.93,56.93,0,0,0-3.917-4.187c-1.241-1.274-2.1-2.787-3.311-3.981-1.545-1.544-3.153-3.009-4.713-4.522C9.074,61.751,6,58.758,3.1,55.589,1.1,53.392-.431,51.307.11,48.377c.541-2.993,3.837-4.856,6.034-6.783a18.928,18.928,0,0,0,3.392-3.28,23.046,23.046,0,0,1,2.722-3.741c2.914-3.057,5.86-6.13,8.9-9.06,2.467-2.34,5.524-3.869,7.2-6.782.589-1.035,1.624-2.755,2.8-3.026,1.608-.366,2.723.988,3.678,2.1,1.163,1.338,2.182,2.8,3.423,4.076,1.131,1.162,2.437,2.134,3.583,3.2,1.242,1.179.414,2.357.271,3.806a6.156,6.156,0,0,0,.8,3.63,9.681,9.681,0,0,0,.971,1.544c.159.191.637.382.732.51.064.095.351.875.446.955.589.557,1.1.287,1.624,1.1a3.067,3.067,0,0,1,.478,1.449,17.273,17.273,0,0,1-.382,2.133,22,22,0,0,0,0,2.516c.016,1.528.016,3.057-.016,4.585-.064,2.8.223,5.557.27,8.359.048,2.532,1.179,6.576-.366,8.677-.541.749-1.592.812-2.245,1.37a5.764,5.764,0,0,0-1.226,2.229,10.3,10.3,0,0,0-.223,4.458c.335,1.512,2.022,3.009,3.248,3.869,1.386.987,2.85.907,4.49,1.067,3.3.318,4.745-2.978,6.019-5.557.764-1.545,1.194-3.455-.112-4.9-.828-.908-3.28-1.242-3.487-2.707a6.367,6.367,0,0,1,.3-1.64,10,10,0,0,0,0-1.385c0-1.194-.016-2.388.032-3.582.063-1.608.255-3.185.286-4.793.032-1.7.032-3.407-.047-5.111-.08-1.592.27-3.391-.064-4.935-.287-1.274-1.767-3.535-.748-4.761C54.2,36.388,55.5,39.27,56.266,40a55.1,55.1,0,0,1,5.827,6.066c1.179,1.481,1.035,1.974,1.147,3.933a8.438,8.438,0,0,0,1.114,3.917,7.293,7.293,0,0,0,8.327,3.518,7.7,7.7,0,0,0,5.525-7.164c.207-2.755-.684-5.6-3.487-6.576a16.015,16.015,0,0,0-4.633-.94c-.716.032-1.512.6-2.277.4-.844-.223-1.226-.924-1.735-1.561-2.1-2.563-4.952-4.442-7.117-6.958a26.362,26.362,0,0,1-2.118-2.085c-.716-1.147.255-3.041.159-4.3-.143-1.72-1.448-3.089-2.324-4.522-1.067-1.751-2.006-1.178-3.758-1.847-1.671-.716-2.69.876-4.267-.446a57.613,57.613,0,0,1-5-4.665c-.685-.732-1.5-1.337-2.181-2.07-.558-.605-1-1.608-1.688-2.069-.669-.462-1.465-.112-1.72-1.195a1.266,1.266,0,0,1,1.545-1.576c.286-1.672,2.913-2.484,3.916-3.646C42.732,4.8,43.545,3.159,45.009,1.9A9.9,9.9,0,0,1,50.12.023c1.974-.207,2.691,1.05,4.188,2.069,1.815,1.21,3.025,3.121,4.776,4.49A68.766,68.766,0,0,1,66.09,13.7c1.878,1.991,3.725,4.857,6.018,6.4a37.652,37.652,0,0,1,5.4,4.729c2.467,2.436,5.111,4.712,7.515,7.212,1.719,1.767,3.12,4,4.9,5.605C94.016,41.34,100.067,45.336,98.809,51.705Z"/></g></g></svg>